<?xml version="1.0" encoding="utf-8"?>
<!-- Generator: Adobe Illustrator 27.5.0, SVG Export Plug-In . SVG Version: 6.00 Build 0)  -->
<svg version="1.1" xmlns="http://www.w3.org/2000/svg" xmlns:xlink="http://www.w3.org/1999/xlink" x="0px" y="0px"
	 viewBox="0 0 500 500" style="enable-background:new 0 0 500 500;" xml:space="preserve">
<g id="Background_Complete">
	<g>
		<rect y="382.398" style="fill:#EBEBEB;" width="500" height="0.25"/>
		<rect x="416.779" y="398.494" style="fill:#EBEBEB;" width="33.122" height="0.25"/>
		<rect x="322.527" y="401.208" style="fill:#EBEBEB;" width="8.693" height="0.25"/>
		<rect x="396.586" y="389.208" style="fill:#EBEBEB;" width="19.192" height="0.25"/>
		<rect x="52.459" y="390.888" style="fill:#EBEBEB;" width="43.193" height="0.25"/>
		<rect x="104.556" y="390.888" style="fill:#EBEBEB;" width="6.333" height="0.25"/>
		<rect x="131.471" y="395.111" style="fill:#EBEBEB;" width="93.676" height="0.25"/>
		<path style="fill:#EBEBEB;" d="M237.014,337.8H43.915c-3.147,0-5.708-2.561-5.708-5.708V60.66c0-3.147,2.561-5.708,5.708-5.708
			h193.099c3.146,0,5.707,2.561,5.707,5.708v271.432C242.721,335.239,240.16,337.8,237.014,337.8z M43.915,55.203
			c-3.01,0-5.458,2.448-5.458,5.458v271.432c0,3.01,2.448,5.458,5.458,5.458h193.099c3.009,0,5.457-2.448,5.457-5.458V60.66
			c0-3.009-2.448-5.458-5.457-5.458H43.915z"/>
		<path style="fill:#EBEBEB;" d="M453.31,337.8H260.212c-3.147,0-5.707-2.561-5.707-5.708V60.66c0-3.147,2.561-5.708,5.707-5.708
			H453.31c3.148,0,5.708,2.561,5.708,5.708v271.432C459.019,335.239,456.458,337.8,453.31,337.8z M260.212,55.203
			c-3.009,0-5.457,2.448-5.457,5.458v271.432c0,3.01,2.448,5.458,5.457,5.458H453.31c3.01,0,5.458-2.448,5.458-5.458V60.66
			c0-3.009-2.448-5.458-5.458-5.458H260.212z"/>
	</g>
	<g>
		<g>
			<g>
				<polygon style="fill:#E0E0E0;" points="412.884,136.23 369.806,111.169 336.616,111.169 292.823,135.043 292.823,297.464 
					412.884,297.464 				"/>
			</g>
			<g>
				<g>
					<g>
						<path style="fill:#FAFAFA;" d="M291.588,136.23l1.236-1.188c16.019-15.395,37.119-23.873,59.412-23.874c0.001,0,0,0,0.001,0
							c22.292,0,43.394,8.48,59.412,23.874l1.236,1.187v161.234H291.588V136.23z M404.838,139.682
							c-14.354-13.211-32.966-20.467-52.602-20.467c-19.636,0-38.248,7.256-52.602,20.467v149.735h105.204V139.682z"/>
					</g>
				</g>
				<polygon style="fill:#F0F0F0;" points="355.253,290.386 349.218,290.386 349.218,236.483 298.11,236.483 298.11,230.449 
					349.218,230.449 349.218,175.317 298.11,175.317 298.11,169.282 349.218,169.282 349.218,118.174 355.253,118.174 
					355.253,169.282 406.362,169.282 406.362,175.317 355.253,175.317 355.253,230.449 406.362,230.449 406.362,236.483 
					355.253,236.483 				"/>
				<g>
					<path style="fill:#F0F0F0;" d="M287.565,134.588l1.178-1.179c35.01-35.009,91.975-35.009,126.986,0l1.178,1.179v166.899
						H287.565V134.588z M408.861,137.944c-31.565-30.336-81.685-30.335-113.25,0v155.497h113.25V137.944z"/>
				</g>
			</g>
		</g>
		<g>
			<rect x="165.759" y="181.502" style="fill:#E0E0E0;" width="3.704" height="58.673"/>
			<ellipse style="fill:#E0E0E0;" cx="167.611" cy="253.33" rx="36.499" ry="26.556"/>
			<polygon style="fill:#E0E0E0;" points="87.405,275.927 87.405,381.373 100.087,381.373 100.087,303.153 235.135,303.153 
				235.135,381.373 247.817,381.373 247.817,275.927 			"/>
			<rect x="83.093" y="269.623" style="fill:#F0F0F0;" width="169.036" height="23.045"/>
			<rect x="142.294" y="224.959" style="fill:#E0E0E0;" width="50.635" height="9.515"/>
			<polygon style="fill:#F0F0F0;" points="216.892,216.173 118.33,216.173 137.897,145.447 197.325,145.447 			"/>
		</g>
	</g>
</g>
<g id="Background_Simple" style="display:none;">
	<g style="display:inline;">
		<path style="fill:#407BFF;" d="M248.458,103.616c-80.152,36.062-7.391,100.335-53.671,135.339s-172.11-5.463-124.142,85.434
			c56.345,106.771,303.084,91.945,356.284-39.017C480.129,154.41,328.611,67.554,248.458,103.616z"/>
		<path style="opacity:0.9;fill:#FFFFFF;" d="M248.458,103.616c-80.152,36.062-7.391,100.335-53.671,135.339
			s-172.11-5.463-124.142,85.434c56.345,106.771,303.084,91.945,356.284-39.017C480.129,154.41,328.611,67.554,248.458,103.616z"/>
	</g>
</g>
<g id="Shadow_1_">
	<ellipse id="_x3C_Path_x3E__359_" style="fill:#F5F5F5;" cx="250" cy="416.238" rx="193.889" ry="11.323"/>
</g>
<g id="Plant">
	<g>
		<path style="fill:none;stroke:#263238;stroke-width:1.667;stroke-linecap:round;stroke-linejoin:round;stroke-miterlimit:10;" d="
			M350.028,336.865c0,0,10.904,26.271,20.106,32.557c0,0,10.031-11.989,29.997-16.279"/>
		<g>
			<path style="fill:#407BFF;" d="M373.835,348.935c0,0-2.398-17.575-13.637-19.498c-11.239-1.923-7.85-10.421-10.778-13.71
				c-2.928-3.289-10.576,6.415-4.024,15.817c6.551,9.402,1.196,6.447,4.024,15.188C352.248,355.474,374.862,363.503,373.835,348.935
				z"/>
			<path style="opacity:0.2;fill:#FFFFFF;enable-background:new    ;" d="M373.835,348.935c0,0-2.398-17.575-13.637-19.498
				c-11.239-1.923-7.85-10.421-10.778-13.71c-2.928-3.289-10.576,6.415-4.024,15.817c6.551,9.402,1.196,6.447,4.024,15.188
				C352.248,355.474,374.862,363.503,373.835,348.935z"/>
			<g>
				
					<path style="fill:none;stroke:#263238;stroke-width:1.2705;stroke-linecap:round;stroke-linejoin:round;stroke-miterlimit:10;" d="
					M371.448,360.709c-3.535-16.823-12.84-32.452-9.189-50.124c2.424-11.736,8.941-22.394,14.55-32.832
					c5.242-9.755,10.783-19.5,14.592-29.931c3.539-9.693,5.165-20.146,1.774-30.124"/>
				<g>
					<path style="fill:#407BFF;" d="M396.004,226.92c0,0,7.66-21.313-8.418-22.199C371.507,203.833,388.697,224.428,396.004,226.92z
						"/>
					<path style="fill:#407BFF;" d="M381.58,243.073c0,0-4.264-19.684-15.798-15.87C354.248,231.018,370.186,243.125,381.58,243.073
						z"/>
					<path style="fill:#407BFF;" d="M400.91,245.293c0,0-1.298-15.652,10.83-15.632C423.867,229.681,418.101,243.238,400.91,245.293
						z"/>
					<path style="fill:#407BFF;" d="M391.983,276.905c0,0,16.66-14.059,22.216-3.109
						C419.754,284.745,401.575,286.502,391.983,276.905z"/>
					<path style="fill:#407BFF;" d="M363.275,273.552c0,0-2.405-24.166-15.748-16.968
						C334.183,263.781,351.764,275.648,363.275,273.552z"/>
					<path style="fill:#407BFF;" d="M350.78,307.718c0,0,10.358-24.07-7.738-21.817C324.946,288.152,338.218,301.467,350.78,307.718
						z"/>
					<path style="fill:#407BFF;" d="M378.198,317.15c0,0,15.709-17.519,27.187-11.517
						C416.863,311.636,406.872,329.205,378.198,317.15z"/>
					<g style="opacity:0.2;enable-background:new    ;">
						<path style="fill:#FFFFFF;" d="M396.004,226.92c0,0,7.66-21.313-8.418-22.199C371.507,203.833,388.697,224.428,396.004,226.92
							z"/>
						<path style="fill:#FFFFFF;" d="M381.58,243.073c0,0-4.264-19.684-15.798-15.87
							C354.248,231.018,370.186,243.125,381.58,243.073z"/>
						<path style="fill:#FFFFFF;" d="M400.91,245.293c0,0-1.298-15.652,10.83-15.632
							C423.867,229.681,418.101,243.238,400.91,245.293z"/>
						<path style="fill:#FFFFFF;" d="M391.983,276.905c0,0,16.66-14.059,22.216-3.109
							C419.754,284.745,401.575,286.502,391.983,276.905z"/>
						<path style="fill:#FFFFFF;" d="M363.275,273.552c0,0-2.405-24.166-15.748-16.968
							C334.183,263.781,351.764,275.648,363.275,273.552z"/>
						<path style="fill:#FFFFFF;" d="M350.78,307.718c0,0,10.358-24.07-7.738-21.817
							C324.946,288.152,338.218,301.467,350.78,307.718z"/>
						<path style="fill:#FFFFFF;" d="M378.198,317.15c0,0,15.709-17.519,27.187-11.517
							C416.863,311.636,406.872,329.205,378.198,317.15z"/>
					</g>
				</g>
				
					<path style="fill:none;stroke:#263238;stroke-width:1.2705;stroke-linecap:round;stroke-linejoin:round;stroke-miterlimit:10;" d="
					M405.082,240.286c0,0-7.201,10.097-16.816,15.143c0,0-5.936-12.257-10.744-15.32"/>
				
					<path style="fill:none;stroke:#263238;stroke-width:1.2705;stroke-linecap:round;stroke-linejoin:round;stroke-miterlimit:10;" d="
					M404.511,275.803c0,0-17.587-1.045-31.806,9.11c0,0-7.38-13.323-17.368-19.575"/>
				
					<path style="fill:none;stroke:#263238;stroke-width:1.2705;stroke-linecap:round;stroke-linejoin:round;stroke-miterlimit:10;" d="
					M345.785,296.051c0,0,7.016,20.093,16.455,28.092c0,0,20.31-11.05,35.002-10.94"/>
			</g>
			<path style="fill:#407BFF;" d="M367.601,352.096c0,0-5.902-11.739,5.181-16.071c11.083-4.332,12.627,0.417,19.553-2.824
				c6.925-3.241,12.98-12.391,13.326-6.029c0.346,6.362-7.521,9.02-5.233,12.186C402.715,342.525,380.345,358.603,367.601,352.096z"
				/>
			<path style="fill:#407BFF;" d="M367.707,346.242c0,0-8.236-8.324-15.41-8.173c-7.174,0.151-11.895-7.1-13.369-1.778
				C337.453,341.614,347.953,355.829,367.707,346.242z"/>
		</g>
		<g>
			<polygon style="fill:#263238;" points="329.078,344.84 331.845,368.695 332.211,371.846 333.362,381.848 334.195,388.916 
				334.728,393.517 337.413,416.721 406.493,416.721 409.177,393.517 409.71,388.916 410.543,381.848 411.693,371.846 
				412.06,368.695 414.828,344.84 			"/>
			<polygon style="opacity:0.4;" points="333.362,381.848 334.195,388.916 409.71,388.916 410.543,381.848 			"/>
			<polygon style="opacity:0.4;" points="334.728,393.517 337.413,416.721 406.493,416.721 409.177,393.517 			"/>
			<polygon style="opacity:0.4;" points="331.845,368.695 332.211,371.846 411.693,371.846 412.06,368.695 			"/>
		</g>
	</g>
</g>
<g id="Speech_bubble">
	<g>
		<g>
			<path style="fill:#407BFF;" d="M241.452,172.488h-38.101c-7.236,0-13.101,5.865-13.101,13.101v37.028
				c0,7.235,5.866,13.101,13.101,13.101h15.18l4.036,13.832l4.777-13.832h14.109c7.235,0,13.1-5.866,13.1-13.101v-37.028
				C254.552,178.353,248.687,172.488,241.452,172.488z"/>
			<path style="opacity:0.7;fill:#FFFFFF;" d="M241.452,172.488h-38.101c-7.236,0-13.101,5.865-13.101,13.101v37.028
				c0,7.235,5.866,13.101,13.101,13.101h15.18l4.036,13.832l4.777-13.832h14.109c7.235,0,13.1-5.866,13.1-13.101v-37.028
				C254.552,178.353,248.687,172.488,241.452,172.488z"/>
		</g>
		<path style="fill:#407BFF;" d="M209.166,196.684c3.308-5.531,9.79-3.506,13.181,0.714c3.28-4.306,9.708-6.498,13.157-1.054
			c5.816,9.178-5.813,17.899-11.314,21.327c-0.623,0.394-1.139,0.718-1.569,0.973c-0.436-0.244-0.961-0.554-1.593-0.932
			C215.439,214.427,203.589,206.008,209.166,196.684z"/>
	</g>
</g>
<g id="Dog">
	<g>
		<g>
			<path style="fill:#407BFF;" d="M375.246,416.721H94.996c-1.057-1.656-1.68-3.479-1.876-5.309
				c-0.021-0.191-0.034-0.391-0.046-0.583c-0.012-0.191-0.017-0.391-0.021-0.583c-0.004-0.191,0-0.391,0.013-0.583
				c0.013-0.424,0.052-0.841,0.118-1.248c0.025-0.158,0.05-0.316,0.084-0.466c0.039-0.183,0.078-0.366,0.118-0.541
				c0.045-0.2,0.1-0.391,0.164-0.583c0.111-0.366,0.241-0.724,0.396-1.074c0.073-0.175,0.155-0.349,0.237-0.524
				c0.083-0.167,0.173-0.341,0.272-0.508c0,0-0.009-0.008-0.001-0.008c0.099-0.166,0.191-0.325,0.299-0.491
				c0.2-0.324,0.434-0.641,0.678-0.94c0.117-0.158,0.244-0.3,0.379-0.449c0.105-0.117,0.21-0.233,0.323-0.35
				c0.227-0.225,0.464-0.441,0.709-0.649c0.246-0.208,0.501-0.408,0.774-0.591c0.226-0.158,0.453-0.308,0.69-0.441
				c0.023-0.017,0.038-0.033,0.063-0.042c0.221-0.125,0.435-0.241,0.665-0.358c0.079-0.042,0.167-0.083,0.247-0.117
				c0.263-0.125,0.544-0.241,0.825-0.35c0.257-0.1,0.524-0.191,0.791-0.275c7.736-2.38,28.942-0.458,31.363-0.458
				c0.134,0,0.273-0.033,0.417-0.091c1.51-0.599,3.79-4.103,5.388-6.857c0.093-0.15,0.177-0.3,0.262-0.449
				c0.925-1.606,1.577-2.871,1.64-2.988h-2.362c0,0-0.001-0.008,0.007-0.008c0.665-1.215,1.245-2.455,1.749-3.687
				c0.279-0.674,0.542-1.348,0.772-2.014c0.097-0.266,0.186-0.533,0.274-0.799c0.31-0.94,0.58-1.856,0.822-2.721
				c0.121-0.433,0.226-0.857,0.325-1.265c0.099-0.408,0.19-0.807,0.274-1.19c0.073-0.333,0.147-0.657,0.206-0.965
				c0.051-0.233,0.093-0.466,0.128-0.682c0.092-0.466,0.165-0.882,0.225-1.257c0.024-0.166,0.049-0.325,0.066-0.474
				c0.028-0.133,0.047-0.266,0.06-0.383c0.021-0.117,0.034-0.225,0.04-0.325c0.014-0.1,0.03-0.191,0.038-0.266
				c0.029-0.275,0.046-0.424,0.046-0.424h-1.776c-0.054-0.508-0.092-1.015-0.122-1.531c-0.017-0.233-0.026-0.474-0.034-0.707
				c-0.012-0.191-0.016-0.383-0.02-0.574c-0.02-0.574-0.014-1.148-0.01-1.731c0.009-0.383,0.027-0.766,0.044-1.157
				c0.014-0.333,0.03-0.657,0.053-0.99c0.006-0.183,0.02-0.358,0.034-0.541l-0.001-0.008c0.068-0.932,0.16-1.864,0.279-2.788
				c0.034-0.308,0.076-0.616,0.119-0.924c0.043-0.308,0.086-0.607,0.128-0.915c0.095-0.599,0.19-1.198,0.294-1.789
				c0.104-0.591,0.209-1.173,0.324-1.739c0.168-0.857,0.347-1.689,0.529-2.488c0.065-0.258,0.12-0.524,0.184-0.782
				c0.12-0.516,0.243-1.015,0.367-1.498c0.012-0.042,0.025-0.083,0.028-0.125c0.112-0.441,0.226-0.866,0.333-1.265
				c0.008-0.008,0.007-0.017,0.006-0.025c0.121-0.433,0.236-0.849,0.344-1.24c0.395-1.398,0.744-2.513,0.992-3.246
				c0.03-0.108,0.062-0.2,0.095-0.291c0.057-0.166,0.102-0.3,0.132-0.408c0.046-0.117,0.072-0.191,0.084-0.233
				c0.008-0.008,0.008-0.008,0.007-0.017c0.007-0.017,0.006-0.025,0.006-0.025h-1.918l7.702-31.907c0,0,28.366-9.188,40.998-8.48
				c0.463,0.025,0.911,0.058,1.328,0.116c0.212,0.025,0.417,0.058,0.613,0.092c0.35,0.058,0.684,0.133,0.996,0.225
				c0.447,0.108,0.857,0.258,1.212,0.441c0.229,0.108,0.444,0.233,0.625,0.366c0.118,0.083,0.228,0.175,0.322,0.266
				c0.102,0.091,0.187,0.183,0.273,0.283c0.165,0.208,0.297,0.424,0.39,0.666c0.055,0.125,0.094,0.25,0.125,0.383
				c0.19,0.832,0.48,1.748,0.852,2.713c0.08,0.2,0.16,0.399,0.249,0.607c0.174,0.449,0.383,0.915,0.601,1.39
				c0.122,0.283,0.262,0.566,0.402,0.857c0.389,0.816,0.822,1.648,1.281,2.497c2.05,3.811,4.67,7.848,6.944,11.168
				c0.854,1.24,1.654,2.38,2.363,3.37c0.187,0.258,0.364,0.499,0.531,0.732c0.296,0.416,0.571,0.791,0.825,1.132
				c0.254,0.341,0.488,0.649,0.684,0.915c0.001,0.008,0.001,0.008,0.001,0.008c0.089,0.125,0.178,0.25,0.264,0.349
				c0.04,0.058,0.079,0.108,0.118,0.158c0.128,0.175,0.235,0.316,0.323,0.433c0.087,0.108,0.145,0.183,0.175,0.225
				c0.01,0.008,0.019,0.017,0.02,0.033l-3.841-0.042c6.402,4.868,26.66,13.648,26.66,13.648l-1.878,1.39
				c18.759,7.224,86.494,4.519,87.395,4.486l-1.012,0.408l-2.652,1.049l-0.016,0.008c0.662,0.083,1.325,0.175,1.982,0.283
				c2.942,0.483,5.731,1.265,8.329,2.214c0.576,0.216,1.135,0.433,1.695,0.649c0.832,0.341,1.649,0.691,2.433,1.057
				c9.251,4.253,15.17,10.003,15.17,10.003h-4.925c3.738,1.972,11.037,12.308,17.775,22.811c3.028,4.727,5.95,9.479,8.378,13.523
				C372.637,412.152,375.246,416.721,375.246,416.721z"/>
			<path style="opacity:0.3;fill:#FFFFFF;" d="M375.246,416.721H94.996c-1.057-1.656-1.68-3.479-1.876-5.309
				c-0.021-0.191-0.034-0.391-0.046-0.583c-0.012-0.191-0.017-0.391-0.021-0.583c-0.004-0.191,0-0.391,0.013-0.583
				c0.013-0.424,0.052-0.841,0.118-1.248c0.025-0.158,0.05-0.316,0.084-0.466c0.039-0.183,0.078-0.366,0.118-0.541
				c0.045-0.2,0.1-0.391,0.164-0.583c0.111-0.366,0.241-0.724,0.396-1.074c0.073-0.175,0.155-0.349,0.237-0.524
				c0.083-0.167,0.173-0.341,0.272-0.508c0,0-0.009-0.008-0.001-0.008c0.099-0.166,0.191-0.325,0.299-0.491
				c0.2-0.324,0.434-0.641,0.678-0.94c0.117-0.158,0.244-0.3,0.379-0.449c0.105-0.117,0.21-0.233,0.323-0.35
				c0.227-0.225,0.464-0.441,0.709-0.649c0.246-0.208,0.501-0.408,0.774-0.591c0.226-0.158,0.453-0.308,0.69-0.441
				c0.023-0.017,0.038-0.033,0.063-0.042c0.221-0.125,0.435-0.241,0.665-0.358c0.079-0.042,0.167-0.083,0.247-0.117
				c0.263-0.125,0.544-0.241,0.825-0.35c0.257-0.1,0.524-0.191,0.791-0.275c7.736-2.38,28.942-0.458,31.363-0.458
				c0.134,0,0.273-0.033,0.417-0.091c1.51-0.599,3.79-4.103,5.388-6.857c0.093-0.15,0.177-0.3,0.262-0.449
				c0.925-1.606,1.577-2.871,1.64-2.988c-0.001-0.008-0.001-0.008-0.001-0.008h-2.371c0.665-1.215,1.253-2.455,1.766-3.687
				c0.185-0.466,0.369-0.932,0.538-1.39c0.087-0.208,0.157-0.416,0.235-0.624c0.097-0.266,0.186-0.533,0.274-0.799
				c0.31-0.94,0.58-1.856,0.822-2.721c0.121-0.433,0.226-0.857,0.325-1.265c0.099-0.408,0.19-0.807,0.274-1.19
				c0.073-0.333,0.147-0.657,0.206-0.965c0.051-0.233,0.093-0.466,0.128-0.682c0.092-0.466,0.165-0.882,0.225-1.257
				c0.024-0.166,0.049-0.325,0.066-0.474c0.028-0.133,0.047-0.266,0.06-0.383c0.021-0.117,0.034-0.225,0.04-0.325
				c0.014-0.1,0.03-0.191,0.038-0.266c0.029-0.275,0.046-0.424,0.046-0.424h-1.776c-0.054-0.508-0.092-1.015-0.122-1.531
				c-0.017-0.233-0.026-0.474-0.034-0.707c-0.012-0.191-0.016-0.383-0.02-0.574c-0.02-0.574-0.014-1.148-0.01-1.731
				c0.009-0.383,0.027-0.766,0.044-1.157c0.014-0.333,0.03-0.657,0.053-0.99c0.006-0.183,0.02-0.358,0.034-0.541l-0.001-0.008
				c0.068-0.932,0.16-1.864,0.279-2.788c0.034-0.308,0.076-0.616,0.119-0.924c0.043-0.308,0.086-0.607,0.128-0.915
				c0.095-0.599,0.19-1.198,0.294-1.789c0.104-0.591,0.209-1.173,0.324-1.739c0.168-0.857,0.347-1.689,0.529-2.488
				c0.065-0.258,0.12-0.524,0.184-0.782c0.12-0.516,0.243-1.015,0.367-1.498c0.012-0.042,0.025-0.083,0.028-0.125
				c0.112-0.441,0.226-0.866,0.333-1.265c0.008-0.008,0.007-0.017,0.006-0.025c0.121-0.433,0.236-0.849,0.344-1.24
				c0.403-1.398,0.752-2.513,0.992-3.246c0.03-0.108,0.062-0.2,0.095-0.291c0.057-0.166,0.102-0.3,0.132-0.408
				c0.046-0.117,0.072-0.191,0.084-0.233c0.008-0.008,0.008-0.008,0.007-0.017c0.007-0.017,0.014-0.025,0.014-0.025h-1.927
				l7.702-31.907c0,0,28.366-9.188,40.998-8.48c0.463,0.025,0.911,0.058,1.328,0.116c0.212,0.025,0.417,0.058,0.613,0.092
				c0.35,0.058,0.684,0.133,0.996,0.225c0.447,0.108,0.857,0.258,1.212,0.441c0.229,0.108,0.444,0.233,0.625,0.366
				c0.118,0.083,0.228,0.175,0.322,0.266c0.102,0.091,0.187,0.183,0.273,0.283c0.165,0.208,0.297,0.424,0.39,0.666
				c0.046,0.117,0.084,0.241,0.115,0.375c0.191,0.841,0.481,1.748,0.862,2.721c0.072,0.2,0.152,0.399,0.249,0.607
				c0.174,0.449,0.383,0.915,0.601,1.39c0.122,0.283,0.262,0.566,0.402,0.857c0.389,0.816,0.822,1.648,1.281,2.497
				c2.05,3.811,4.67,7.848,6.944,11.168c0.854,1.24,1.654,2.38,2.363,3.37c0.187,0.258,0.364,0.499,0.531,0.732
				c0.296,0.416,0.579,0.791,0.825,1.132c0.254,0.341,0.488,0.649,0.684,0.915c0.001,0.008,0.001,0.008,0.001,0.008
				c0.089,0.125,0.178,0.25,0.264,0.349c0.04,0.058,0.079,0.108,0.118,0.158c0.128,0.175,0.243,0.316,0.323,0.433
				c0.087,0.108,0.145,0.183,0.175,0.225c0.01,0.008,0.019,0.017,0.02,0.033l-3.841-0.042c6.402,4.868,26.66,13.648,26.66,13.648
				l-1.878,1.39c18.759,7.224,86.494,4.519,87.395,4.486l-1.012,0.408l-2.668,1.049c0.008,0,0.008,0,0.017,0
				c0.662,0.083,1.317,0.175,1.966,0.291c2.942,0.483,5.731,1.265,8.329,2.214c0.575,0.208,1.143,0.424,1.695,0.649
				c0.832,0.341,1.649,0.691,2.433,1.057c9.251,4.253,15.17,10.003,15.17,10.003h-4.925c3.738,1.972,11.037,12.308,17.775,22.811
				c3.028,4.727,5.95,9.479,8.378,13.523C372.637,412.152,375.246,416.721,375.246,416.721z"/>
			<path style="opacity:0.6;fill:#FFFFFF;" d="M192.397,323.381l0.006,11.369h-2.755c0,0-3.455,15.738-2.265,21.107
				c0,0-1.506-0.663-2.579-4.583c0,0-6.731,16.89-12.017,21.419l-0.324-3.02c0,0-7.714,22.967,10.886,47.048h-9.103
				c-4.847-3.835-10.273-10.348-15.043-21.404c-12.228-28.358-9.32-39.461-9.32-39.461l-2.73,1.449l4.043-16.12h-2.886
				c0,0,0.232-16.234,8.57-20.573C165.226,316.282,192.397,323.381,192.397,323.381z"/>
			<path style="opacity:0.1;" d="M208.059,330.792c-1.486,2.246-3.02,3.4-3.02,3.4l-1.168-1.46
				c-0.606,4.216-4.824,10.495-4.824,10.495l-1.275-1.348l-0.843,2.695c-9.089,0.265-27.994-6.462-27.994-6.462l0.173,2.154
				c-16.612-8.264-18.942-24.035-18.942-24.035s33.676-0.803,50.947-0.395C203.163,320.94,205.783,326.341,208.059,330.792z"/>
			<path style="opacity:0.1;" d="M234.104,416.721H94.996c-3.955-6.183-1.835-14.688,5.902-17.06
				c7.736-2.38,28.942-0.458,31.363-0.458c2.404,0,7.706-10.394,7.706-10.394h-2.371c4.215-7.64,5.046-16.453,5.046-16.453h-1.776
				c-0.249-2.322-0.237-4.785-0.056-7.24c0.517,2.397,1.04,3.995,1.04,3.995l0.858-2.855c-0.124,4.386,3.168,13.607,3.168,13.607
				l1.165-3.512c2.144,13.823,12.161,18.966,12.161,18.966l0.209-2.505c3.841,2.854,12.17,4.286,12.17,4.286
				c-0.203-6.033,2.879-13.066,2.879-13.066h-1.851c3.861-11.41,11.412-16.062,11.412-16.062s43.752,7.207,49.284,22.786
				C236.832,400.685,235.523,410.738,234.104,416.721z"/>
			<path style="opacity:0.1;" d="M308.048,381.751c0,0-13.597-0.744-21.912,0c-8.315,0.744-22.222,9.085-21.911,16.108
				c0.311,7.023,16.956,11.852,16.956,11.852s-20.147-4.531-26.069-4.131c-5.922,0.4-7.706,11.141-7.706,11.141h-6.307
				c0,0-2.431-12.043,2.435-16.111s15.906,0,15.906,0s-1.834-15.042,9.366-21.846l-0.121,2.987c0,0,7.059-6.279,22.105-6.06
				c0,0-3.276,2.414-2.637,2.195C288.791,377.667,294.063,376.617,308.048,381.751z"/>
			<path style="opacity:0.1;" d="M368.853,405.844c-0.668,4.078-3.52,7.873-7.637,10.877h-40.894
				c-10.905-7.648-11.304-16.286-11.304-16.286l3.308,1.481c-2.39-8.389-0.638-20.164-0.638-20.164
				c5.365,5.584,27.727,10.478,28.422,10.627c-0.627-0.458-16.278-11.892-4.704-5.276c1.044,0.599,2.106,1.132,3.188,1.606
				c8.683,3.795,18.131,3.795,21.881,3.612C363.504,397.048,366.426,401.8,368.853,405.844z"/>
		</g>
		<g>
			<path style="fill:#407BFF;" d="M173.185,273.211c0,0,7.822-21.764,20.821-27.736c2.225-1.022,8.387,29.662-1.884,43.04
				C191.354,289.515,173.185,273.211,173.185,273.211z"/>
			<path style="opacity:0.3;fill:#FFFFFF;" d="M197.673,271.289c-0.21,2.665-0.613,5.293-1.259,7.786
				c-0.9,3.549-2.284,6.814-4.298,9.435c-0.758,1.003-18.935-15.297-18.935-15.297s7.827-21.765,20.819-27.736
				C195.482,244.793,198.746,258.306,197.673,271.289z"/>
			<path style="opacity:0.6;fill:#FFFFFF;" d="M193.815,248.038c0,0-9.22,17.624-1.833,27.193
				C199.227,284.616,198.665,254.676,193.815,248.038z"/>
			<path style="opacity:0.1;" d="M197.673,271.289c-0.21,2.665-0.613,5.293-1.259,7.786c-4.557-1.093-10.349-3.943-15.957-9.419
				C180.457,269.656,187.648,266.866,197.673,271.289z"/>
			<path style="fill:#407BFF;" d="M223.185,299.184c-1.555-3.085-13.302-5.021-13.302-5.021s-0.21-7.057-3.275-11.527
				c-3.094-4.522-16.197-12.473-24.072-12.922c-7.875-0.448-24.598,2.145-24.598,2.145l-11.632,24.074c0,0-0.013,0.141-0.034,0.397
				c0,0-1.981,5.825-1.83,10.989l0.884-0.826c0,0-0.656,7.072,1.951,11.691l0.908-1.011c0,0,2.061,3.213,4.665,5.213
				c3.131,2.846,8.03,5.439,16.544,6.407c9.965,1.132,22.105,4.589,29.488,4.318c16.569-0.602,17.426-17.121,17.426-17.121
				C225.206,316.461,224.73,302.248,223.185,299.184z"/>
			<path style="opacity:0.3;fill:#FFFFFF;" d="M216.31,315.99c0,0-0.86,16.52-17.43,17.12c-7.38,0.27-19.52-3.19-29.48-4.32
				c-8.52-0.97-13.42-3.56-16.55-6.4c-2.6-2.01-4.67-5.22-4.67-5.22l-0.9,1.02c-2.61-4.63-1.96-11.7-1.96-11.7l-0.88,0.83
				c-0.15-5.16,1.83-10.99,1.83-10.99c0.02-0.26,0.04-0.4,0.04-0.4l11.63-24.07c0,0,0.31-0.05,0.86-0.13
				c0.84-0.12,2.29-0.33,4.07-0.56c5.55-0.74,14.52-1.75,19.67-1.46c7.87,0.45,20.97,8.4,24.07,12.93c2.16,3.15,2.9,7.6,3.15,9.94
				c0.1,0.97,0.12,1.58,0.12,1.58s11.75,1.94,13.31,5.02C224.73,302.25,225.21,316.46,216.31,315.99z"/>
			<path style="opacity:0.6;fill:#FFFFFF;" d="M221.03,314.34c-1.15,1.1-2.69,1.76-4.72,1.65c0,0-0.57,10.95-9.73,15.34
				c-2.09,1.01-4.62,1.67-7.7,1.78c-7.38,0.27-19.52-3.19-29.48-4.32c-8.52-0.97-13.42-3.56-16.55-6.4
				c0.47-2.23,1.45-6.05,3.06-8.51l-2.46,0.1c0,0-1.15-5.09,10.91-7.61c12.18-2.56,21.28-8.13,24.12-11.08
				c2.86-2.97,1.45-13.98-0.26-15.84c-1.72-1.86-5.26-2.95-4.38-4.14c0.9-1.2,6.28,2.2,8.22,5.79c1.91,3.56,5.73,11.87,7.18,12.84
				c0,0,6.59-0.19,10.64,0.22c0,0,11.75,1.94,13.31,5.02C224.38,301.55,224.94,310.56,221.03,314.34z"/>
			<path style="fill:#263238;" d="M180.202,292.276c-0.398,2.193-2.133,3.678-3.876,3.326c-1.742-0.351-2.845-2.406-2.464-4.6
				c0.383-2.205,2.121-3.716,3.879-3.364C179.501,287.991,180.602,290.072,180.202,292.276z"/>
			<path style="fill:#263238;" d="M206.063,288.484c0.523,2.185-0.317,4.266-1.872,4.657c-1.554,0.391-3.247-1.049-3.783-3.227
				c-0.539-2.189,0.292-4.294,1.86-4.693C203.836,284.823,205.538,286.288,206.063,288.484z"/>
			<path style="fill:#263238;" d="M222.187,299.022c-3.343-2.525-10.286-1.558-12.56,2.073c-1.883,3.006,8.234,7.026,8.234,7.026
				S224.577,300.828,222.187,299.022z"/>
			<path style="opacity:0.1;" d="M221.03,314.34c-1.15,1.1-2.69,1.76-4.72,1.65c0,0-0.57,10.95-9.73,15.34
				c-11.36-1.19-17.38-10.97-17.38-10.97c12.274,2.2,27.13-6.03,27.13-6.03c2.514,1.338,4.69,0,4.69,0S221.02,314.33,221.03,314.34z
				"/>
			
				<path style="fill:none;stroke:#263238;stroke-width:0.6858;stroke-linecap:round;stroke-linejoin:round;stroke-miterlimit:10;" d="
				M216.334,314.332c0,0,1.255,0.959,2.51,0.731"/>
			<path style="fill:#263238;" d="M213.712,315.996c0,0-0.136,10.671-9.773,10.68c-5.535,0.005-11.921-5.456-11.921-5.456
				S202.779,320.508,213.712,315.996z"/>
			<path style="fill:#407BFF;" d="M196.964,321.211c0,0,3.625,5.824,7.85,10.011c4.188,4.151,9.215-2.178,3.878-13.181
				C208.692,318.04,203.216,320.02,196.964,321.211z"/>
			
				<path style="fill:none;stroke:#263238;stroke-width:0.6858;stroke-linecap:round;stroke-linejoin:round;stroke-miterlimit:10;" d="
				M217.249,304.569c0,0,1.863,6.865-0.915,9.763c-2.757,2.877-21.213,8.485-26.516,6.271c-1.48-0.618-4.287-1.391-5.807-4.504"/>
			
				<path style="fill:none;stroke:#263238;stroke-width:0.6858;stroke-linecap:round;stroke-linejoin:round;stroke-miterlimit:10;" d="
				M203.713,319.603c0,0,1.934,2.385,2.824,5.516"/>
			<path style="opacity:0.1;" d="M162.87,271.167c-0.059,2.01-1.055,3.522-1.055,3.522l-3.019-2.961
				C159.643,271.61,161.085,271.396,162.87,271.167z"/>
			<path style="fill:#407BFF;" d="M161.82,274.69c0,0-5.364-20.999-18.437-28.382c-5.53-3.124-5.311,45.632,6.628,55.32
				C161.725,311.134,161.82,274.69,161.82,274.69z"/>
			<path style="opacity:0.3;fill:#FFFFFF;" d="M161.82,274.69c0,0-5.364-20.999-18.437-28.382c-5.53-3.124-5.311,45.632,6.628,55.32
				C161.725,311.134,161.82,274.69,161.82,274.69z"/>
			<path style="opacity:0.6;fill:#FFFFFF;" d="M143.742,248.701c0.404-1.594,10.006,17.664,11.332,28.893
				c1.293,10.952-6.718,18.21-6.718,18.21S136.39,277.715,143.742,248.701z"/>
			<g>
				<path style="opacity:0.2;" d="M209.127,311.002c0,0.28-0.227,0.508-0.508,0.508s-0.507-0.227-0.507-0.508
					c0-0.28,0.227-0.508,0.507-0.508S209.127,310.722,209.127,311.002z"/>
				<path style="opacity:0.2;" d="M221.435,313.117c-0.14,0.243-0.328,0.397-0.419,0.344c-0.091-0.052-0.051-0.292,0.089-0.535
					c0.14-0.243,0.328-0.397,0.419-0.344C221.615,312.634,221.575,312.874,221.435,313.117z"/>
				<path style="opacity:0.2;" d="M223.548,308.379c-0.034,0.278-0.146,0.493-0.25,0.481c-0.104-0.013-0.161-0.249-0.127-0.527
					c0.034-0.278,0.146-0.493,0.251-0.481C223.525,307.865,223.583,308.1,223.548,308.379z"/>
				<path style="opacity:0.2;" d="M221.076,310.023c-0.034,0.278-0.146,0.493-0.251,0.481c-0.104-0.013-0.161-0.249-0.127-0.527
					c0.034-0.278,0.146-0.494,0.251-0.481C221.053,309.509,221.11,309.745,221.076,310.023z"/>
				<path style="opacity:0.2;" d="M206.409,314.332c0,0.28-0.227,0.508-0.507,0.508c-0.28,0-0.508-0.227-0.508-0.508
					s0.227-0.508,0.508-0.508C206.182,313.825,206.409,314.052,206.409,314.332z"/>
				<path style="opacity:0.2;" d="M204.245,309.987c0,0.28-0.227,0.508-0.508,0.508s-0.508-0.227-0.508-0.508
					s0.227-0.508,0.508-0.508S204.245,309.707,204.245,309.987z"/>
				<circle style="opacity:0.2;" cx="200.967" cy="313.649" r="0.507"/>
				<path style="opacity:0.2;" d="M198.299,315.996c0,0.28-0.227,0.508-0.507,0.508c-0.28,0-0.508-0.227-0.508-0.508
					s0.227-0.508,0.508-0.508C198.071,315.489,198.299,315.716,198.299,315.996z"/>
				<circle style="opacity:0.2;" cx="193.068" cy="313.825" r="0.507"/>
				<path style="opacity:0.2;" d="M197.791,311.002c0,0.28-0.227,0.508-0.508,0.508s-0.508-0.227-0.508-0.508
					c0-0.28,0.227-0.508,0.508-0.508S197.791,310.722,197.791,311.002z"/>
			</g>
			<path style="opacity:0.1;" d="M209.88,294.16c0,0-12.39-0.84-17.86,0.98c0,0,4.94-4.02,17.74-2.56
				C209.86,293.55,209.88,294.16,209.88,294.16z"/>
		</g>
		<g>
			<path style="fill:#407BFF;" d="M185.826,363.666c0,0-8.789,11.188-9.613,18.959h1.988c0,0-3.019,7.547-2.094,16.77
				c0,0-6.985,0.322-16.455-0.22c-16.015-0.915-21.245,5.347-16.214,17.544h74.242c0,0,6.394-5.809,6.269-9.646l0.542,5.052
				c0,0,9.232-10.206,9.058-19.095C233.372,384.141,218.521,340.557,185.826,363.666z"/>
			<path style="opacity:0.3;fill:#FFFFFF;" d="M233.548,393.028c0.174,8.888-9.059,19.099-9.059,19.099l-0.542-5.052
				c0.127,3.837-6.27,9.645-6.27,9.645h-74.24c-5.027-12.2,0.199-18.458,16.212-17.543c9.473,0.541,16.458,0.216,16.458,0.216
				c-0.922-9.221,2.097-16.769,2.097-16.769h-1.993c0.825-7.773,9.619-18.958,9.619-18.958
				C218.523,340.557,233.374,384.14,233.548,393.028z"/>
			<path style="opacity:0.1;" d="M176.107,399.396c9.497-0.274,15.519,3.347,16.238,6.969c0,0-1.775-5.736-3.566-6.983h2.817
				c0,0-3.31-3.054-9.106-3.027C178.169,396.374,176.107,399.396,176.107,399.396z"/>
			<path style="opacity:0.1;" d="M151.043,416.721h-2.437c0,0-4.325-7.523-0.484-11.701
				C148.102,405.461,147.743,412.976,151.043,416.721z"/>
			<path style="opacity:0.1;" d="M159.88,416.721h-3.434c-0.202-0.4-3.496-6.899-0.55-10.361
				C155.896,406.36,155.955,413.084,159.88,416.721z"/>
			<path style="opacity:0.1;" d="M170.15,416.721h-3.2c0,0,2.39-2.397,1.314-4.153C168.264,412.569,171.309,413.084,170.15,416.721z
				"/>
		</g>
		<path style="opacity:0.1;" d="M360.151,394.759c0.458-0.025,0.922-0.075,1.376-0.133c-0.609,0.183-1.258,0.225-1.918,0.158
			C359.784,394.776,359.967,394.767,360.151,394.759z"/>
		<g>
			<path style="fill:#407BFF;" d="M399.376,404.588l-3.469-2.355c0,0,3.777,10.852-7.066,14.489h-61.709
				c-0.803-0.383-10.318-5.143-11.94-15.504c0,0,1.13,1.473,4.343,1.839c0,0-7.857-10.777-4.197-25.008
				c0,0,9.012,7.798,19.762,10.719l-1.322-4.677c0,0,1.35,1.182,3.629,2.755c0.209,0.15,0.426,0.3,0.65,0.441
				c1.011,0.682,2.171,1.423,3.456,2.155c0.242,0.15,0.492,0.291,0.749,0.424c0.151,0.083,0.312,0.175,0.472,0.258
				c0.24,0.133,0.489,0.266,0.737,0.391c0.418,0.225,0.851,0.441,1.292,0.641c0.345,0.175,0.689,0.333,1.041,0.491
				c0.265,0.125,0.538,0.25,0.809,0.358c0.518,0.225,1.044,0.441,1.586,0.649c0.314,0.117,0.628,0.233,0.949,0.341
				c0.27,0.1,0.54,0.191,0.808,0.275c0.061,0.025,0.122,0.042,0.183,0.067c0.234,0.075,0.468,0.15,0.702,0.216
				c0.018,0.008,0.043,0.008,0.06,0.017c1.125,0.333,2.278,0.616,3.447,0.824c0.239,0.042,0.478,0.083,0.716,0.116
				c0.112,0.025,0.231,0.042,0.34,0.05c0.221,0.033,0.45,0.058,0.671,0.083c0.162,0.025,0.323,0.042,0.483,0.05
				c0.288,0.033,0.567,0.05,0.853,0.067c0.734,0.05,1.464,0.058,2.197,0.025c0.175-0.008,0.358-0.017,0.542-0.025
				c0.458-0.025,0.922-0.075,1.376-0.133l-4.182-7.049c2.823-3.279,7.335-6.583,14.283-7.332l-1.219,4.103
				c0,0,12.611-2.929,21.5,4.585C400.808,396.457,399.376,404.588,399.376,404.588z"/>
			<path style="opacity:0.3;fill:#FFFFFF;" d="M399.376,404.588l-3.469-2.355c0,0,3.777,10.852-7.066,14.489h-61.709
				c-0.803-0.383-10.318-5.143-11.94-15.504c0,0,1.13,1.473,4.343,1.839c0,0-7.857-10.777-4.197-25.008
				c0,0,9.012,7.798,19.762,10.719l-1.322-4.677c0,0,1.35,1.182,3.629,2.755c0.208,0.141,0.425,0.291,0.65,0.441
				c1.011,0.682,2.171,1.423,3.456,2.155c0.241,0.141,0.491,0.283,0.749,0.424c0.151,0.083,0.312,0.175,0.472,0.258
				c0.24,0.133,0.488,0.258,0.737,0.391c0.418,0.225,0.851,0.441,1.292,0.641c0.345,0.175,0.689,0.333,1.041,0.491
				c0.265,0.125,0.537,0.241,0.809,0.358c0.518,0.225,1.052,0.441,1.586,0.649c0.314,0.117,0.628,0.233,0.949,0.341
				c0.27,0.1,0.54,0.191,0.808,0.275c0.061,0.025,0.122,0.042,0.183,0.067c0.234,0.075,0.467,0.142,0.702,0.216
				c0.018,0.008,0.043,0.008,0.06,0.017c1.125,0.333,2.278,0.616,3.447,0.824c0.239,0.042,0.478,0.083,0.716,0.116
				c0.112,0.025,0.231,0.042,0.34,0.05c0.221,0.033,0.451,0.067,0.671,0.083c0.162,0.025,0.323,0.042,0.483,0.05
				c0.28,0.033,0.567,0.05,0.853,0.067c0.734,0.05,1.464,0.058,2.197,0.025c0.175-0.008,0.358-0.017,0.542-0.025
				c0.458-0.025,0.922-0.075,1.376-0.133l-4.182-7.049c2.823-3.279,7.335-6.583,14.283-7.332l-1.219,4.103
				c0,0,12.611-2.929,21.5,4.585C400.808,396.457,399.376,404.588,399.376,404.588z"/>
			<path style="opacity:0.1;" d="M369.86,389.924c-2.705,4.144-8.333,4.702-8.333,4.702l-4.182-7.049
				c6.844-2.655,10.987,0.516,10.987,0.516c0.908-0.824,1.103-2.139,1.103-2.139S372.558,385.788,369.86,389.924z"/>
			<path style="opacity:0.6;fill:#FFFFFF;" d="M359.427,408.557c0,0-2.547,4.061-17.633,2.413c0,0,2.18,1.814,5.753,2.638
				c0,0-1.664,1.897-5.94,3.112h-14.474c-0.803-0.383-10.318-5.143-11.94-15.504c0,0,1.13,1.473,4.343,1.839
				c0,0-7.857-10.777-4.197-25.008c0,0,9.012,7.798,19.762,10.719l-1.322-4.677c0,0,7.651,6.666,17.124,9.479
				c1.144,1.298,2.761,2.705,5.008,3.82c0,0-6.589,0.341-9.902-1.182C346.008,396.207,347.409,404.671,359.427,408.557z"/>
		</g>
	</g>
</g>
<g id="Cat">
	<g>
		<path style="fill:#263238;" d="M282.717,308.717c0,0,14.485,8.589,14.829,14.304c0,0,51.102,28.752,34.501,93.7h-75.355
			c0,0-10.251-23.373-3.032-38.315l-0.655,0.118c2.414-3.666,4.388-3.106,4.388-3.106s2.334-27.646,1.416-35.647
			c-0.918-8.001-5.153-25.452-5.153-25.452L282.717,308.717z"/>
		<path style="opacity:0.2;fill:#FFFFFF;" d="M335.365,392.12c-0.008,0.612-0.017,1.223-0.034,1.851
			c-0.092,3.594-0.402,7.329-0.972,11.216c-0.075,0.536-0.159,1.072-0.243,1.617c-0.511,3.208-1.198,6.517-2.069,9.918h-75.354
			c0,0-0.938-2.136-2.044-5.529c-1.056-3.25-2.279-7.656-2.974-12.439c-0.997-6.743-0.963-14.248,1.985-20.346l-0.653,0.117
			c1.566-2.371,2.94-2.982,3.719-3.108c0.427-0.067,0.67,0,0.67,0s0.126-1.508,0.31-3.929c0.603-7.924,1.809-25.59,1.105-31.721
			c-0.243-2.094-0.712-4.85-1.281-7.765c-1.566-8.192-3.87-17.683-3.87-17.683l29.058-5.604c0,0,1.198,0.712,2.915,1.86
			c3.92,2.63,10.546,7.539,11.727,11.484c0.109,0.327,0.168,0.653,0.185,0.963c0,0,0.519,0.293,1.432,0.879
			c1.441,0.93,3.87,2.605,6.802,5.043c0.812,0.687,1.667,1.424,2.555,2.22c2.287,2.069,4.775,4.54,7.288,7.43
			c0.812,0.938,1.633,1.927,2.446,2.957c0,0,0.008,0,0.017,0.008c2.077,2.63,4.129,5.545,6.056,8.762v0.008
			c0.779,1.298,1.533,2.639,2.262,4.037c1.834,3.501,3.484,7.296,4.858,11.417v0.008c0.327,0.972,0.636,1.96,0.921,2.965
			c0.93,3.191,1.692,6.559,2.228,10.11c0.134,0.829,0.243,1.659,0.344,2.504C335.173,384.799,335.39,388.375,335.365,392.12z"/>
		<path style="opacity:0.2;fill:#FFFFFF;" d="M268.094,320.116c0,0-5.286,4.431-5.729,7.229l-1.215-0.67
			c0,0,0.377,7.882-0.31,12.297l-0.821-2.186c0,0,0.092,4.85-0.846,9.784c-0.05-2.647-0.159-5.034-0.36-6.802
			c-0.921-8-5.151-25.448-5.151-25.448l3.468-0.67C263.286,316.866,268.094,320.116,268.094,320.116z"/>
		<path style="opacity:0.2;" d="M285.634,310.575c-1.148,3.593-4.297,11.409-10.68,14.257v-1.03c0,0-4.917,1.918-9.314,5.453
			l0.452-2.58c0,0-4.691,1.659-8.561,5.327c-1.566-8.192-3.87-17.683-3.87-17.683l29.058-5.604
			C282.719,308.716,283.917,309.427,285.634,310.575z"/>
		<path style="opacity:0.2;" d="M257.397,375.417h-0.67C257.154,375.35,257.397,375.417,257.397,375.417z"/>
		<path style="opacity:0.2;" d="M273.145,388.677c0,0-6.802-11.049-15.748-13.26c0,0,0.126-1.508,0.31-3.929
			c1.926-0.26,3.443-0.042,3.443-0.042l2.337-8.728c2.446-1.441,6.157-8.804,6.157-8.804v2.119
			c3.082-2.379,1.759-10.873,1.759-10.873c1.96,2.865,0.712,10.873,0.712,10.873l-0.712-2.102c0,0,0.243,3.158-3.309,5.88
			c-3.552,2.731-2.823,9.867-2.823,9.867C270.163,375.425,273.145,388.677,273.145,388.677z"/>
		<g style="opacity:0.4;">
			<path d="M260.842,346.569c0.908,0.305,1.765,0.105,2.524-0.296c0.765-0.405,1.489-0.95,2.248-1.471
				c0.766-0.511,1.57-1.02,2.467-1.356c0.886-0.344,1.875-0.506,2.797-0.327c-1.851,0.332-3.285,1.339-4.794,2.376
				c-0.763,0.501-1.538,1.046-2.462,1.377c-0.233,0.076-0.46,0.164-0.712,0.189c-0.242,0.052-0.493,0.056-0.742,0.035
				c-0.248,0.007-0.486-0.105-0.714-0.166C261.231,346.839,261.035,346.689,260.842,346.569z"/>
			<path d="M262.089,340.353c0.888-0.223,1.48-0.851,2.081-1.473c0.587-0.641,1.165-1.316,1.802-1.96
				c0.645-0.631,1.349-1.249,2.194-1.671c0.829-0.431,1.833-0.617,2.714-0.364c-0.908,0.105-1.69,0.447-2.384,0.929
				c-0.691,0.486-1.317,1.077-1.932,1.699c-0.627,0.611-1.236,1.268-1.95,1.844C263.927,339.916,263.023,340.493,262.089,340.353z"
				/>
			<path d="M269.648,347.469c-1.146,1.403-2.327,2.73-3.672,3.945c-0.679,0.595-1.386,1.174-2.185,1.639
				c-0.779,0.453-1.721,0.862-2.643,0.704c0.89-0.201,1.584-0.717,2.275-1.245c0.68-0.545,1.339-1.128,1.995-1.722
				c0.665-0.584,1.324-1.185,2.02-1.752C268.131,348.469,268.85,347.913,269.648,347.469z"/>
			<path d="M260.02,379.455c-1.31,0.842-1.966,2.278-2.636,3.617c-0.64,1.373-1.181,2.797-1.652,4.243
				c-0.484,1.442-0.899,2.908-1.266,4.388c-0.349,1.484-0.664,2.977-0.804,4.518c-0.187-1.539-0.085-3.114,0.163-4.645
				c0.243-1.536,0.632-3.046,1.113-4.525c0.497-1.473,1.086-2.922,1.869-4.279c0.194-0.339,0.409-0.669,0.62-0.998
				c0.227-0.321,0.471-0.632,0.713-0.939C258.684,380.275,259.258,379.678,260.02,379.455z"/>
			<path d="M257.397,404.926c0.177-1.672,0.488-3.33,0.914-4.957c0.416-1.631,0.949-3.235,1.594-4.799
				c0.667-1.553,1.438-3.082,2.479-4.444c1.007-1.342,2.396-2.624,4.099-2.887c-1.597,0.587-2.671,1.917-3.565,3.264
				c-0.888,1.375-1.603,2.867-2.241,4.391c-0.646,1.522-1.203,3.087-1.742,4.661C258.409,401.733,257.891,403.32,257.397,404.926z"
				/>
			<path d="M263.581,411.101c0.49-2.538,1.545-4.956,2.979-7.131c0.745-1.07,1.581-2.089,2.576-2.948c1-0.85,2.157-1.524,3.392-1.9
				c-1.105,0.677-2.061,1.489-2.943,2.376c-0.858,0.912-1.626,1.903-2.331,2.941c-0.714,1.034-1.335,2.134-1.947,3.243
				C264.714,408.802,264.124,409.932,263.581,411.101z"/>
			<path d="M283.201,313.649c5.677,6.07,10.751,12.705,15.314,19.677c2.26,3.502,4.377,7.099,6.321,10.796
				c1.9,3.717,3.685,7.506,5.13,11.439c2.985,7.843,4.57,16.17,5.101,24.498c0.29,4.168,0.234,8.35-0.017,12.507
				c-0.306,4.153-0.76,8.303-1.68,12.359c0.544-4.117,0.832-8.254,0.859-12.392c0.054-4.134-0.068-8.269-0.466-12.374
				c-0.432-4.098-0.942-8.194-1.877-12.202c-0.19-1.011-0.463-2.002-0.715-2.998c-0.27-0.991-0.475-2.001-0.798-2.976
				c-0.623-1.957-1.203-3.927-1.976-5.835c-2.844-7.724-6.741-15.042-10.985-22.128
				C293.071,326.986,288.384,320.138,283.201,313.649z"/>
			<path d="M285.634,321.833c-1.679,0.794-3.126,1.799-4.295,3.063c-1.163,1.265-2.089,2.732-2.855,4.305
				c-0.794,1.562-1.431,3.229-2.116,4.904c-0.677,1.673-1.355,3.4-2.339,4.976c0.33-1.818,0.641-3.598,1.096-5.38
				c0.44-1.782,1.033-3.55,1.861-5.247c0.851-1.675,1.961-3.295,3.466-4.512C281.935,322.713,283.786,321.947,285.634,321.833z"/>
			<path d="M289.115,328.302c-1.107,0.272-2.003,0.912-2.809,1.631c-0.807,0.724-1.517,1.554-2.197,2.405
				c-1.337,1.724-2.533,3.571-3.623,5.481c-1.106,1.902-2.106,3.871-3.054,5.871c-0.934,2.009-1.797,4.051-2.599,6.171
				c0.12-2.27,0.658-4.505,1.386-6.659c0.725-2.16,1.694-4.231,2.816-6.22c1.161-1.964,2.473-3.861,4.098-5.507
				c0.806-0.825,1.697-1.581,2.687-2.201C286.815,328.689,287.963,328.199,289.115,328.302z"/>
			<path d="M294.857,336.732c-0.913,0.195-1.634,0.8-2.316,1.387c-0.686,0.592-1.311,1.258-1.913,1.939
				c-1.208,1.361-2.296,2.829-3.34,4.32c-1.03,1.502-2.023,3.03-2.917,4.616c-0.92,1.569-1.775,3.177-2.537,4.824l-1.218,2.515
				c-0.454,0.833-0.92,1.655-1.434,2.443c-1.038,1.567-2.143,3.063-3.262,4.519c-1.099,1.47-2.199,2.922-3.041,4.513
				c-0.86,1.577-1.426,3.324-1.479,5.185c-0.325-1.835,0.036-3.777,0.733-5.531c0.708-1.761,1.702-3.371,2.717-4.918
				c1.002-1.56,2.066-3.052,2.988-4.611l0.686-1.167l0.639-1.185l1.159-2.481c1.621-3.376,3.584-6.583,5.922-9.501
				c1.162-1.463,2.42-2.854,3.803-4.118c0.707-0.616,1.418-1.229,2.218-1.733C293.041,337.247,293.91,336.75,294.857,336.732z"/>
			<path d="M300.201,346.569c-1.866,0.499-3.54,1.458-5.049,2.581c-1.518,1.119-2.85,2.46-4.053,3.896
				c-1.21,1.435-2.22,3.03-3.168,4.649l-1.331,2.513c-0.446,0.864-0.886,1.731-1.367,2.576c-0.955,1.694-1.988,3.34-3.052,4.957
				l-3.264,4.756c-1.059,1.583-2.082,3.176-2.814,4.908c-0.761,1.721-1.156,3.598-1.256,5.53c-0.274-1.915-0.098-3.919,0.482-5.809
				c0.584-1.892,1.498-3.653,2.481-5.325c1.981-3.345,4.131-6.493,5.963-9.838c0.483-0.821,0.925-1.664,1.373-2.504
				c0.443-0.833,0.938-1.717,1.419-2.563c1.071-1.649,2.163-3.302,3.557-4.712c1.352-1.437,2.884-2.712,4.579-3.716
				C296.397,347.49,298.258,346.704,300.201,346.569z"/>
			<path d="M305.5,360.441c-3.419,0.825-6.658,2.19-9.497,4.08c-1.396,0.972-2.745,2.017-3.848,3.293
				c-0.302,0.294-0.54,0.642-0.814,0.961c-0.264,0.322-0.529,0.646-0.809,1.011c-0.542,0.717-1.113,1.404-1.696,2.079
				c-2.367,2.669-4.973,5.047-7.475,7.466c-1.232,1.224-2.457,2.453-3.486,3.823c-1.027,1.355-1.884,2.9-1.937,4.684
				c-0.335-1.768,0.361-3.601,1.25-5.137c0.919-1.552,2.052-2.945,3.226-4.271c2.354-2.649,4.893-5.064,7.164-7.67
				c0.574-0.645,1.135-1.299,1.661-1.975c0.259-0.328,0.553-0.68,0.851-1.033c0.302-0.343,0.569-0.72,0.914-1.023
				c1.269-1.319,2.745-2.417,4.311-3.313C298.451,361.629,301.97,360.581,305.5,360.441z"/>
			<path d="M307.653,372.993c-2.99,0.881-5.891,1.964-8.558,3.411c-1.32,0.741-2.6,1.536-3.728,2.498
				c-0.539,0.504-1.101,0.98-1.562,1.544c-0.237,0.255-0.496,0.561-0.763,0.881c-0.271,0.302-0.543,0.605-0.83,0.888
				c-2.314,2.266-4.998,3.952-7.64,5.569c-1.316,0.819-2.643,1.603-3.873,2.501c-0.62,0.443-1.206,0.925-1.725,1.472
				c-0.519,0.545-0.951,1.184-1.145,1.946c0.013-0.785,0.328-1.571,0.779-2.232c0.443-0.673,0.995-1.26,1.563-1.816
				c1.158-1.09,2.414-2.041,3.673-2.957c2.505-1.841,5.074-3.556,7.187-5.67c0.27-0.258,0.521-0.529,0.774-0.8
				c0.235-0.273,0.483-0.555,0.777-0.867c0.543-0.626,1.16-1.164,1.787-1.686c1.298-0.983,2.691-1.801,4.151-2.44
				C301.43,373.944,304.532,373.194,307.653,372.993z"/>
			<path d="M308.482,387.838c-2.687-0.046-5.302,0.365-7.839,0.982c-2.544,0.631-4.941,1.604-7.401,2.654
				c-2.454,1.008-4.886,2.063-7.277,3.186c-1.189,0.572-2.374,1.155-3.5,1.828c-0.568,0.329-1.113,0.691-1.619,1.099
				c-0.256,0.202-0.49,0.426-0.697,0.674c-0.21,0.244-0.392,0.526-0.444,0.862c-0.051-0.699,0.39-1.339,0.811-1.863
				c0.44-0.537,0.952-0.999,1.473-1.443c1.061-0.864,2.193-1.623,3.359-2.31c2.326-1.39,4.773-2.529,7.25-3.579
				c1.255-0.499,2.48-1.003,3.795-1.434c1.311-0.395,2.634-0.764,3.992-0.951C303.078,387.141,305.874,387.1,308.482,387.838z"/>
			<path d="M308.482,399.122c-2.314,0.21-4.604,0.353-6.888,0.502c-2.282,0.167-4.557,0.303-6.815,0.541
				c-1.132,0.093-2.257,0.228-3.377,0.384c-1.125,0.13-2.234,0.334-3.341,0.541c-2.2,0.461-4.401,0.997-6.361,2.249
				c0.736-0.912,1.734-1.6,2.764-2.175c1.046-0.553,2.148-0.992,3.271-1.34c2.247-0.716,4.567-1.082,6.882-1.325
				c2.32-0.21,4.644-0.277,6.96-0.177C303.892,398.419,306.205,398.64,308.482,399.122z"/>
			<path d="M298.978,323.902c-0.293-0.126-0.595-0.251-0.896-0.368c-1.583-0.611-3.175-1.206-4.858-1.7
				c1.382-0.159,2.773-0.025,4.138,0.226c0.109,0.327,0.168,0.653,0.185,0.963C297.546,323.022,298.065,323.316,298.978,323.902z"/>
			<path d="M308.335,331.164c-0.569-0.234-1.148-0.452-1.726-0.67c-2.605-0.947-5.269-1.767-8.066-2.195
				c2.421-0.226,4.858,0.092,7.237,0.645C306.592,329.631,307.447,330.369,308.335,331.164z"/>
			<path d="M318.068,341.551c-1.064-0.662-2.153-1.298-3.25-1.901c-2.965-1.583-6.031-3.032-9.315-3.979
				c1.709,0.1,3.401,0.503,5.051,0.988c1.659,0.486,3.267,1.114,4.842,1.826c0.075,0.034,0.151,0.067,0.226,0.109
				C316.434,339.532,317.255,340.521,318.068,341.551z"/>
			<path d="M326.402,354.367c-0.184-0.184-0.377-0.36-0.569-0.536c-2.371-2.22-5.059-4.054-8.008-5.428
				c-2.949-1.391-6.123-2.337-9.34-3.242c3.325,0.218,6.668,0.829,9.851,2.044c1.6,0.57,3.099,1.407,4.573,2.27
				c0.411,0.285,0.829,0.561,1.232,0.846v0.008C324.92,351.628,325.674,352.968,326.402,354.367z"/>
			<path d="M332.182,368.758l-1.617-1.449c-0.628-0.544-1.332-0.997-1.985-1.516c-0.645-0.536-1.382-0.93-2.077-1.399
				c-0.687-0.469-1.432-0.846-2.169-1.248c-2.957-1.566-6.132-2.773-9.499-3.426c3.443-0.042,6.885,0.846,10.069,2.253
				c2.253,0.997,4.398,2.278,6.358,3.811v0.008C331.587,366.764,331.897,367.753,332.182,368.758z"/>
			<path d="M334.754,381.373c-0.36-0.36-0.754-0.687-1.139-1.022c-0.478-0.41-0.93-0.846-1.457-1.189
				c-1.96-1.566-4.163-2.798-6.467-3.845c-2.312-1.022-4.741-1.818-7.296-2.32c2.605-0.193,5.26,0.268,7.765,1.106
				c2.513,0.838,4.909,2.094,7.02,3.728c0.419,0.335,0.829,0.678,1.231,1.039C334.544,379.697,334.653,380.527,334.754,381.373z"/>
			<path d="M335.365,392.12c-0.008,0.612-0.017,1.223-0.034,1.851l-0.293-0.176c-0.477-0.302-0.972-0.586-1.474-0.854
				c-0.503-0.26-0.989-0.561-1.499-0.796l-1.525-0.754l-1.566-0.678c-1.039-0.444-2.111-0.838-3.191-1.198
				c-2.17-0.72-4.381-1.315-6.693-1.675c2.329-0.335,4.724-0.092,7.036,0.419c2.32,0.503,4.573,1.324,6.693,2.396
				C333.682,391.114,334.536,391.6,335.365,392.12z"/>
			<path d="M334.36,405.187c-0.075,0.536-0.159,1.072-0.243,1.617l-0.779-0.369c-0.896-0.444-1.818-0.846-2.747-1.215
				c-1.851-0.796-3.761-1.441-5.679-2.119l-5.822-1.952c2.077-0.017,4.138,0.268,6.173,0.695c2.027,0.436,4.029,1.039,5.964,1.826
				C332.291,404.131,333.346,404.626,334.36,405.187z"/>
			<path d="M325.322,416.721h-2.245l-1.7-1.885c-1.014-1.131-2.027-2.278-2.982-3.51c1.399,0.704,2.672,1.592,3.878,2.563
				C323.353,414.753,324.384,415.699,325.322,416.721z"/>
		</g>
		<g>
			<path style="fill:#263238;" d="M288.46,295.182c4.731-11.649-1.526-24.429-1.526-24.429c-7.145,2.395-11.913,6.536-14.826,9.915
				c-2.581-0.337-6.604-0.78-9.999-0.797c-1.549-3.258-5.92-10.776-13.872-12.378c0,0-4.711,14.427-0.817,22.391
				c-1.793,2.378-3.374,4.759-4.391,6.569c-2.814,5.009,0.486,11.978,2.978,15.868c2.492,3.89,9.834,8.757,17.092,9.535
				c10.603,1.136,22.386-6.486,24.818-10.785C289.203,308.796,290.29,301.901,288.46,295.182z"/>
			<path style="opacity:0.2;fill:#FFFFFF;" d="M287.92,311.068c-0.162,0.294-0.371,0.6-0.628,0.918
				c-0.14,0.186-0.299,0.376-0.479,0.578c-3.649,4.115-13.132,9.657-22.15,9.391c-0.52-0.009-1.049-0.047-1.566-0.099
				c-4.971-0.531-9.977-2.979-13.436-5.726c-1.601-1.258-2.868-2.587-3.658-3.815c-1.4-2.177-3.046-5.321-3.725-8.555
				c-0.052-0.215-0.093-0.436-0.127-0.655c-0.393-2.316-0.251-4.645,0.881-6.656c0,0,0.002-0.008,0.015-0.022
				c0.138-0.239,0.281-0.495,0.441-0.754c0.104-0.18,0.209-0.367,0.331-0.55c0.963-1.572,2.219-3.408,3.597-5.245
				c-0.375-0.76-0.663-1.583-0.889-2.44c-2.151-8.149,1.706-19.949,1.706-19.949c7.437,1.505,11.744,8.17,13.542,11.698
				c0.122,0.244,0.238,0.477,0.335,0.688c0.026-0.001,0.053-0.002,0.077,0.005c0.13,0.002,0.26,0.005,0.39,0.007
				c0.297-0.002,0.6,0.006,0.908,0.024c0.313,0.002,0.632,0.015,0.948,0.035c0.061,0,0.128,0.01,0.189,0.01
				c0.704,0.036,1.404,0.087,2.095,0.137c0.059,0.008,0.12,0.008,0.178,0.016c0.921,0.071,1.81,0.16,2.646,0.25
				c0.035,0.001,0.067,0.01,0.101,0.012c0.269,0.033,0.541,0.059,0.792,0.095c0.607,0.069,1.172,0.134,1.676,0.2
				c2.907-3.378,7.678-7.521,14.818-9.917c0,0,6.264,12.782,1.526,24.435c0.908,3.317,1.1,6.673,0.913,9.495
				c-0.038,0.529-0.087,1.038-0.146,1.518C288.954,308.393,288.451,310.122,287.92,311.068z"/>
			<path style="opacity:0.2;fill:#FFFFFF;" d="M264.7,321.826c-0.528,0.018-1.063,0.001-1.585-0.032
				c-5.019-0.361-9.97-3.004-13.332-6.087c-1.948-3.489-0.813-6.948-0.813-6.948l0.222,0.841c-0.099-1.027,0.068-2.283,1.102-3.249
				l0.014,1.781c0,0,0.953-5.656,5.544-3.978l3.22,0.53c5.007-0.725,7.315,6.261,7.315,6.261l0.444-1.555
				c0,0,3.09,2.448,3.383,5.664l1.186-0.555C271.4,314.5,270.288,320.468,264.7,321.826z"/>
			<path style="fill:#263238;" d="M272.739,299.802c-0.177,2.013-1.404,3.549-2.741,3.432c-1.337-0.118-2.277-1.845-2.1-3.858
				c0.177-2.013,1.404-3.549,2.741-3.432C271.975,296.062,272.916,297.789,272.739,299.802z"/>
			<path style="fill:#263238;" d="M254.752,297.353c-0.48,1.963-1.926,3.295-3.23,2.976c-1.304-0.319-1.971-2.169-1.491-4.132
				c0.48-1.963,1.926-3.295,3.23-2.976C254.565,293.54,255.232,295.39,254.752,297.353z"/>
			<path style="fill:#263238;" d="M254.496,304.055c0,0,1.75-1.302,3.89,0.458c0.686,0.564-1.987,2.534-1.987,2.534
				S253.914,304.886,254.496,304.055z"/>
			
				<path style="fill:none;stroke:#263238;stroke-width:0.7962;stroke-linecap:round;stroke-linejoin:round;stroke-miterlimit:10;" d="
				M256.407,305.258c0,0-0.614,4.46-0.096,5.465c0.517,1.004,8.219,4.205,7.416-0.629"/>
			
				<path style="fill:none;stroke:#263238;stroke-width:0.7962;stroke-linecap:round;stroke-linejoin:round;stroke-miterlimit:10;" d="
				M256.31,310.722c0,0-1.431,1.202-3.51-0.272c-2.08-1.474-0.933-2.773-0.933-2.773"/>
			<path style="opacity:0.4;" d="M289.224,306.197c-1.563-1.666-5.513-4.518-15.194-6.646c0,0,10.865,0.663,15.34,5.129
				C289.332,305.208,289.282,305.717,289.224,306.197z"/>
			<path style="opacity:0.4;" d="M259.72,296.493c-0.035,0.243,0.524-10.408,4.904-16.536c0.704,0.036,1.404,0.087,2.095,0.137
				c0.059,0.008,0.12,0.008,0.178,0.016C264.672,283.08,261.004,288.941,259.72,296.493z"/>
			<path style="opacity:0.2;fill:#FFFFFF;" d="M273.143,284.562c0,0,6.359-9.298,13.118-12.452c0,0,5.805,10.449,0.857,22.345
				c0,0-4.62-1.02-6.043-2.977c0,0,1.058-2.8,2.981-3.801c0,0-2.458,0.763-3.425,2.038c0,0,0.716-4.62,2.536-6.771
				c0,0-3.529,2.525-4.443,5.968C278.725,288.913,273.996,287.304,273.143,284.562z"/>
			<path style="opacity:0.2;" d="M272.113,280.666c-0.519,0.871-1.121,2.676-1.121,2.676s-1.227-1.378-1.347-2.972
				C270.548,280.472,271.39,280.573,272.113,280.666z"/>
			<path style="opacity:0.2;fill:#FFFFFF;" d="M248.178,289.324c0,0,3.383-3.463,5.27-4.458c0,0-1.471-2.815-2.085-3.076
				c0,0,1.474,0.507,2.513,1.579c0,0-0.294-3.013-1.512-4.481c0,0,2.322,2.128,3.153,4.346l3.015-1.81c0,0-2.425-8.102-9.971-12.754
				C248.561,268.67,244.273,281.575,248.178,289.324z"/>
			<path style="opacity:0.2;" d="M243.048,296.428c1.013-1.81,2.594-4.173,4.37-6.549c-0.375-0.76-0.663-1.583-0.889-2.44
				c4.04-3.777,10.238-4.952,10.238-4.952C248.153,288.643,243.341,295.981,243.048,296.428z"/>
			<path style="opacity:0.4;" d="M270.436,280.466c-0.703,0.784-1.347,1.637-1.921,2.518c-0.447,0.682-0.837,1.407-1.147,2.155
				c-0.305,0.732-0.498,1.591-0.905,2.346c-0.806,1.512-1.945,2.755-3.022,4.024c-1.041,1.236-2.144,2.506-2.599,4.101
				c0.383-1.616,1.443-2.95,2.437-4.235c1.027-1.31,2.101-2.597,2.81-4.076c0.355-0.726,0.496-1.522,0.791-2.344
				c0.291-0.806,0.666-1.57,1.093-2.302c0.48-0.795,0.995-1.563,1.57-2.296c0.035,0.001,0.067,0.01,0.101,0.012
				C269.914,280.404,270.185,280.43,270.436,280.466z"/>
			<path style="opacity:0.4;" d="M259.05,289.96c0.008,1.527,0.049,3.063-0.233,4.568c0.212-1.507,0.092-3.04,0.021-4.559
				c-0.023-0.773-0.059-1.533,0.024-2.31c0.067-0.782,0.397-1.542,0.728-2.214c0.352-0.684,0.598-1.362,0.879-2.101
				c0.302-0.724,0.694-1.396,1.117-2.051c0.313-0.486,0.645-0.948,0.994-1.406c0.297-0.002,0.6,0.006,0.908,0.024
				c-0.49,0.557-0.942,1.134-1.385,1.739c-0.435,0.608-0.842,1.241-1.147,1.911c-0.297,0.673-0.622,1.416-0.986,2.079
				c-0.382,0.666-0.698,1.316-0.798,2.063C259.065,288.44,259.056,289.204,259.05,289.96z"/>
			<path style="opacity:0.4;" d="M287.292,311.987c-0.14,0.186-0.299,0.376-0.479,0.578c-2.119-0.936-4.111-2.106-5.941-3.508
				c-1.274-1-2.527-2.133-3.278-3.593c-0.751-1.399-2.215-2.401-3.819-2.58c1.606,0.11,3.156,1.058,3.998,2.474
				c0.795,1.394,2.05,2.432,3.344,3.359C283.034,310.057,285.118,311.148,287.292,311.987z"/>
			<path style="opacity:0.4;" d="M248.962,294.72c-0.924-0.029-1.857-0.025-2.761,0.152c-0.908,0.159-1.79,0.412-2.631,0.765
				c-0.029,0.009-0.049,0.021-0.081,0.038c0.104-0.18,0.209-0.367,0.331-0.55c0.772-0.232,1.555-0.383,2.353-0.461
				C247.102,294.554,248.041,294.622,248.962,294.72z"/>
			<path style="opacity:0.4;" d="M248.164,298.429c-1.065,0.253-1.986,0.853-2.768,1.579c-0.79,0.724-1.458,1.57-2.111,2.42
				c-0.344,0.442-0.672,0.888-1.007,1.333c-0.052-0.215-0.093-0.436-0.127-0.655c0.264-0.317,0.537-0.631,0.81-0.945
				c0.712-0.816,1.448-1.625,2.299-2.314C246.099,299.164,247.085,298.609,248.164,298.429z"/>
		</g>
		<path style="opacity:0.2;" d="M300.201,403.126c0,0-32.207,13.277-45.551,8.066c-1.056-3.25-2.279-7.656-2.974-12.439
			C260.463,401.568,283.088,406.594,300.201,403.126z"/>
		<g>
			<path style="fill:#263238;" d="M304.008,400.735c0,0-44.004,15.467-64.579-1.8c-24.686-20.717-3.021-47.642-8.323-52.366
				c-5.302-4.725-12.716-4.619-15.968,11.234c-3.252,15.853-1.451,58.918,41.556,58.918s52.616-0.002,52.616-0.002L304.008,400.735z
				"/>
			<path style="opacity:0.2;fill:#FFFFFF;" d="M309.306,416.721c0,0-2.052,0-8.511,0h-44.102c-1.324,0-2.605-0.042-3.853-0.126
				c-0.561-0.034-1.122-0.076-1.667-0.134c-6.316-0.586-11.61-2.203-16.032-4.557c-0.511-0.268-1.005-0.553-1.483-0.846
				c-4.205-2.496-7.564-5.688-10.236-9.289c-0.352-0.477-0.687-0.955-1.022-1.441c-2.639-3.937-4.523-8.293-5.822-12.732
				c-0.167-0.561-0.326-1.122-0.46-1.684c-1.039-3.979-1.617-7.983-1.876-11.777c-0.042-0.578-0.067-1.156-0.092-1.725
				c-0.151-3.393-0.042-6.584,0.226-9.382c0.193-1.943,0.452-3.711,0.762-5.227c3.25-15.848,10.663-15.957,15.965-11.233
				c2.387,2.128-0.695,8.762-2.546,17.306c-0.545,2.479-0.98,5.135-1.139,7.882c-0.034,0.553-0.059,1.114-0.067,1.675
				c-0.05,2.798,0.209,5.688,0.938,8.594c0.142,0.553,0.293,1.106,0.469,1.659c0.913,2.873,2.312,5.755,4.381,8.586
				c0.335,0.469,0.695,0.938,1.072,1.399c1.449,1.792,3.175,3.552,5.218,5.269c0.938,0.787,1.927,1.508,2.957,2.17
				c0.503,0.31,1.014,0.62,1.533,0.905c2.605,1.449,5.445,2.538,8.427,3.325c0.536,0.142,1.08,0.276,1.633,0.402
				c4.331,0.972,8.921,1.365,13.486,1.365h0.008c0.578,0,1.164-0.008,1.742-0.017c4.532-0.1,9.013-0.561,13.176-1.189
				c0.612-0.092,1.215-0.184,1.809-0.285c11.291-1.885,19.81-4.875,19.81-4.875L309.306,416.721z"/>
			<path style="opacity:0.4;" d="M228.557,363.874c-4.9-2.077-10.429-1.608-14.181-0.846c0.193-1.943,0.452-3.711,0.762-5.227
				c3.25-15.848,10.663-15.957,15.965-11.233C233.491,348.696,230.408,355.33,228.557,363.874z"/>
			<g style="opacity:0.4;">
				<path d="M227.418,371.757c-0.034,0.553-0.059,1.114-0.067,1.675c-5.034-0.603-9.415-0.369-13.109,0.704
					c-0.042-0.578-0.067-1.156-0.092-1.725C217.945,371.388,222.376,371.162,227.418,371.757z"/>
				<path d="M228.758,383.685c-4.448,0.318-8.829,2.119-12.179,3.912c-0.167-0.561-0.326-1.122-0.46-1.684
					c3.376-1.767,7.698-3.493,12.171-3.887C228.432,382.579,228.583,383.132,228.758,383.685z"/>
				<path d="M234.212,393.669c-3.485,1.566-7.765,4.129-10.789,8.1c-0.352-0.477-0.687-0.955-1.022-1.441
					c3.091-3.903,7.254-6.458,10.738-8.058C233.474,392.739,233.835,393.208,234.212,393.669z"/>
				<path d="M242.387,401.108c0.503,0.31,1.014,0.62,1.533,0.905c-3.476,2.798-6.484,6.525-8.779,9.892
					c-0.511-0.268-1.005-0.553-1.483-0.846C235.929,407.725,238.894,404.014,242.387,401.108z"/>
				<path d="M253.98,405.74c-0.419,2.672-1.022,7.07-1.139,10.856c-0.561-0.034-1.122-0.076-1.667-0.134
					c0.126-3.962,0.745-8.452,1.173-11.124C252.883,405.48,253.427,405.614,253.98,405.74z"/>
				<path d="M269.217,407.088c-0.854,2.873-1.005,6.509-0.905,9.633h-1.684c-0.092-3.066,0.05-6.617,0.838-9.616h0.008
					C268.052,407.105,268.638,407.097,269.217,407.088z"/>
				<path d="M288.549,416.721h-1.7c-0.662-4.146-2.957-8.385-4.456-10.822c0.612-0.092,1.215-0.184,1.809-0.285
					C285.794,408.278,287.938,412.491,288.549,416.721z"/>
				<path d="M300.796,416.721h-1.65c1.055-5.62-0.93-12.029-0.93-12.029C300.871,409.266,301.24,413.446,300.796,416.721z"/>
			</g>
		</g>
	</g>
</g>
<g id="Pet_bowl">
	<g>
		<path style="fill:#407BFF;" d="M87.248,395.11c0-0.61,0.22-2.67,1.78-3.67c0.52-0.33,1.19-0.55,2.05-0.55c0,0-0.8-1.6,1.97-1.74
			c2.77-0.13,1.72-0.34,2.64-1.55c0.92-1.22,3.56-0.75,3.56-0.75s-0.66-1.11,3.03-2.04c3.7-0.93,4.55,0.92,4.55,0.92
			s1.24-1.7,2.83-0.92c1.59,0.78,1.99,2.79,1.99,2.79s1.71-1.69,3.43,0c1.71,1.69,1.71,1.69,1.71,1.69s1.58,0.06,2.9,0.96
			c1.32,0.89,1.05,0.89,2.04,0.89c0.6,0,1.69-0.34,2.84,0.08c0.77,0.28,1.56,0.89,2.24,2.15
			C128.528,396.54,87.248,395.11,87.248,395.11z"/>
		<path style="fill:#263238;" d="M137.098,416.72h-60.53l4.43-22.81c0.11-0.56,0.44-1.03,0.9-1.32c0.32-0.2,0.69-0.32,1.09-0.32
			h47.69c0.26,0,0.51,0.05,0.73,0.14c0.64,0.24,1.12,0.8,1.26,1.5l1.03,5.3l0.98,5.05l0.58,3.01l0.7,3.56L137.098,416.72z"/>
		<g>
			<path style="opacity:0.4;fill:#FFFFFF;" d="M135.958,410.83h-26.92c-3.21,0-6.01-2.6-6.25-5.81c-0.01-0.15-0.02-0.31-0.02-0.46
				c0-2.99,2.32-5.35,5.38-5.35h25.55l0.98,5.05l0.58,3.01L135.958,410.83z"/>
			<g style="opacity:0.4;">
				<path d="M112.488,402.54l-0.98,2.8l-1.4-2.8h-0.92l1.94,3.79l-0.05,0.15c-0.14,0.38-0.32,0.52-0.63,0.52
					c-0.24,0-0.49-0.09-0.67-0.26l-0.3,0.65c0.26,0.22,0.66,0.35,1.04,0.35c0.62,0,1.09-0.26,1.37-1.12l1.45-4.08H112.488z"/>
				<path d="M117.538,402.54h-0.88l0.15,1.91c0.06,0.76-0.33,1.14-0.95,1.14c-0.56,0-0.91-0.32-0.96-1.01l-0.15-2.04h-0.89
					l0.17,2.16c0.08,1.14,0.78,1.67,1.75,1.67c0.49,0,0.92-0.19,1.18-0.53l0.03,0.48h0.84L117.538,402.54z"/>
				<path d="M125.138,404.16c-0.09-1.14-0.77-1.66-1.68-1.66c-0.6,0-1.09,0.24-1.36,0.63c-0.3-0.42-0.77-0.63-1.32-0.63
					c-0.52,0-0.94,0.19-1.2,0.53l-0.04-0.49h-0.84l0.29,3.78h0.88l-0.14-1.92c-0.06-0.75,0.31-1.13,0.89-1.13
					c0.54,0,0.88,0.33,0.93,1l0.15,2.05h0.89l-0.15-1.92c-0.06-0.75,0.32-1.13,0.9-1.13c0.53,0,0.87,0.33,0.92,1l0.16,2.05h0.88
					L125.138,404.16z"/>
				<path d="M132.579,404.16c-0.09-1.14-0.77-1.66-1.68-1.66c-0.6,0-1.09,0.24-1.36,0.63c-0.3-0.42-0.77-0.63-1.32-0.63
					c-0.52,0-0.94,0.19-1.2,0.53l-0.04-0.49h-0.84l0.29,3.78h0.88l-0.14-1.92c-0.06-0.75,0.31-1.13,0.89-1.13
					c0.54,0,0.88,0.33,0.93,1l0.15,2.05h0.89l-0.15-1.92c-0.06-0.75,0.32-1.13,0.9-1.13c0.53,0,0.87,0.33,0.92,1l0.16,2.05h0.88
					L132.579,404.16z"/>
				<path d="M134.678,404.26l-0.86-1.72h-0.92l1.93,3.79l-0.05,0.15c-0.14,0.38-0.31,0.52-0.62,0.52c-0.24,0-0.49-0.09-0.67-0.26
					l-0.31,0.65c0.26,0.22,0.67,0.35,1.04,0.35c0.43,0,0.78-0.12,1.04-0.47L134.678,404.26z"/>
			</g>
		</g>
		<path style="opacity:0.2;fill:#FFFFFF;" d="M124.568,391.22c-0.12,0.15-0.26,0.28-0.43,0.38c-0.34,0.19-0.74,0.24-1.12,0.26
			c-1.68,0.08-3.33-0.34-4.95-0.76c-0.37-0.1-0.75-0.2-1.12-0.29c-0.11-0.03-0.22-0.06-0.32-0.04c-0.21,0.03-0.39,0.22-0.6,0.19
			c-0.18-0.02-0.3-0.19-0.47-0.26c-0.43-0.16-0.85,0.42-1.3,0.34c-0.14-0.02-0.26-0.11-0.39-0.15c-0.19-0.05-0.39-0.02-0.59-0.02
			c-0.8,0.03-1.6-0.43-1.98-1.14c-0.61,0.8-1.45,1.49-2.44,1.67c-0.99,0.18-2.14-0.27-2.54-1.19c-0.07-0.16-0.13-0.35-0.29-0.43
			c-0.22-0.1-0.46,0.08-0.59,0.29c-0.12,0.2-0.18,0.45-0.35,0.61c-0.22,0.21-0.55,0.23-0.86,0.24c-1.35,0.03-2.81,0.03-3.89-0.79
			c-0.15-0.12-0.32-0.26-0.52-0.22c-0.18,0.02-0.29,0.2-0.4,0.34c-1.19,1.67-3.88,1.98-5.42,0.63c-0.28,0.4-0.89,0.53-1.31,0.27
			c-0.11-0.07-0.21-0.17-0.34-0.17c-0.16-0.01-0.29,0.13-0.42,0.24c-0.59,0.52-2.05,0.59-2.9,0.22c0.52-0.33,1.19-0.55,2.05-0.55
			c0,0-0.8-1.6,1.97-1.74c2.77-0.13,1.72-0.34,2.64-1.55c0.92-1.22,3.56-0.75,3.56-0.75s-0.66-1.11,3.03-2.04
			c3.7-0.93,4.55,0.92,4.55,0.92s1.24-1.7,2.83-0.92c1.59,0.78,1.99,2.79,1.99,2.79s1.71-1.69,3.43,0c1.71,1.69,1.71,1.69,1.71,1.69
			s1.58,0.06,2.9,0.96c1.32,0.89,1.05,0.89,2.04,0.89C122.328,391.14,123.419,390.8,124.568,391.22z"/>
		<path style="opacity:0.1;fill:#FFFFFF;" d="M131.428,392.59c0,0.94-0.77,1.71-1.71,1.71h-46.11c-0.94,0-1.71-0.77-1.71-1.71
			c0.32-0.2,0.69-0.32,1.09-0.32h47.69c0.26,0,0.51,0.05,0.73,0.14C131.428,392.47,131.428,392.53,131.428,392.59z"/>
	</g>
</g>
</svg>
