<?xml version="1.0" standalone="no"?>
<!DOCTYPE svg PUBLIC "-//W3C//DTD SVG 20010904//EN"
 "http://www.w3.org/TR/2001/REC-SVG-20010904/DTD/svg10.dtd">
<svg version="1.0" xmlns="http://www.w3.org/2000/svg"
 width="1380.000000pt" height="920.000000pt" viewBox="0 0 1380.000000 920.000000"
 preserveAspectRatio="xMidYMid meet">

<g transform="translate(0.000000,920.000000) scale(0.100000,-0.100000)">
<path fill="#f0f0f0" d="M13413 8988 c-5 -7 -16 -29 -23 -48 -19 -51 -22 -52 -70 -20 -24 16
-47 27 -52 24 -18 -11 -6 -30 37 -57 25 -16 45 -32 45 -37 0 -4 -7 -24 -15
-43 -19 -45 -19 -67 -1 -67 8 0 22 20 32 45 9 25 20 45 23 45 4 0 23 -11 43
-25 42 -28 58 -31 58 -10 0 8 -20 28 -45 45 l-44 30 21 56 c14 36 18 58 11 65
-7 7 -13 6 -20 -3z"/>
<path fill="#f0f0f0" d="M7632 8804 c-95 -86 -171 -161 -169 -167 4 -13 444 -43 455 -32 3 3
-14 74 -38 158 -44 156 -59 197 -69 197 -3 0 -84 -70 -179 -156z m212 -39 c19
-65 33 -121 31 -123 -7 -7 -311 9 -324 18 -9 5 4 23 41 57 117 110 203 182
210 175 3 -4 22 -61 42 -127z"/>
<path fill="#f0f0f0" d="M4446 8849 c-72 -56 -75 -179 -5 -179 11 0 36 15 55 33 31 28 37 41
42 85 7 80 -33 107 -92 61z"/>
<path fill="#f0f0f0" d="M9076 8835 c-4 -15 -1 -38 6 -53 20 -42 60 -41 123 2 51 36 75 44 75
27 0 -5 13 -23 29 -40 38 -40 75 -41 129 -1 23 17 45 30 48 30 4 0 26 -18 50
-40 24 -22 48 -40 54 -40 19 0 64 27 89 54 21 22 22 26 8 32 -10 4 -29 -4 -48
-20 -17 -14 -36 -26 -43 -26 -6 0 -30 18 -51 40 -21 22 -46 40 -54 40 -9 0
-39 -16 -67 -35 -58 -40 -74 -39 -105 11 -28 46 -67 46 -136 -2 -29 -20 -57
-33 -63 -29 -5 3 -10 22 -10 41 0 41 -25 47 -34 9z"/>
<path fill="#f0f0f0" d="M4251 8811 c-44 -44 -35 -157 14 -179 21 -10 29 -8 52 12 25 22 28
31 28 86 0 53 -3 65 -24 81 -29 24 -46 24 -70 0z"/>
<path fill="#f0f0f0" d="M10660 8808 c-48 -33 -80 -99 -80 -165 0 -89 41 -143 123 -163 91
-23 184 18 219 98 26 59 18 101 -28 141 -46 41 -108 43 -152 6 -47 -40 -51
-109 -8 -137 17 -12 61 -9 74 4 17 17 15 58 -3 58 -8 0 -15 -6 -15 -14 0 -22
-19 -30 -35 -16 -37 31 6 100 62 100 34 0 83 -51 83 -87 0 -130 -214 -170
-276 -52 -34 67 8 179 80 213 37 17 40 36 7 36 -10 0 -33 -10 -51 -22z"/>
<path fill="#f0f0f0" d="M6152 8754 c-41 -28 -36 -113 10 -161 48 -51 106 -10 95 69 -10 74
-64 121 -105 92z"/>
<path fill="#f0f0f0" d="M12076 8720 c-24 -22 -50 -40 -59 -40 -9 0 -32 16 -51 35 -20 19 -40
35 -46 35 -17 0 -51 -20 -96 -57 -23 -18 -46 -33 -51 -33 -13 0 -23 24 -23 57
0 34 -24 25 -28 -11 -2 -15 4 -38 13 -52 24 -37 63 -32 118 16 50 45 71 49 87
20 12 -22 60 -50 85 -50 8 0 35 18 59 40 24 22 48 40 53 40 5 0 18 -9 29 -21
20 -22 66 -49 83 -49 17 0 91 71 91 86 0 23 -24 16 -55 -16 -16 -16 -35 -30
-42 -30 -7 0 -30 16 -52 35 -21 19 -46 35 -55 35 -9 0 -36 -18 -60 -40z"/>
<path fill="#f0f0f0" d="M4561 8714 c-65 -58 -65 -134 0 -134 64 0 129 58 129 114 0 68 -66
78 -129 20z"/>
<path fill="#f0f0f0" d="M5932 8738 c-46 -46 33 -168 109 -168 33 0 49 17 49 55 0 79 -112
159 -158 113z"/>
<path fill="#f0f0f0" d="M2731 8715 c-62 -53 -81 -190 -35 -252 39 -53 71 -68 137 -68 77 0
132 29 171 88 23 35 27 50 23 91 -4 40 -11 55 -35 77 -63 56 -154 43 -187 -27
-28 -60 3 -124 61 -124 45 0 73 70 31 78 -12 2 -17 -3 -17 -18 0 -16 -5 -21
-22 -18 -33 4 -37 52 -7 84 29 31 79 32 114 1 74 -63 -10 -197 -124 -197 -49
0 -103 26 -119 57 -33 63 -19 148 34 201 19 19 34 38 34 43 0 17 -28 9 -59
-16z"/>
<path fill="#f0f0f0" d="M308 8642 c-76 -42 -144 -84 -153 -93 -14 -14 0 -26 151 -135 92 -65
182 -127 201 -137 33 -17 33 -17 33 5 0 13 -16 115 -35 227 -19 112 -35 206
-35 207 0 13 -41 -6 -162 -74z m164 -143 c14 -90 25 -166 23 -167 -5 -6 -280
192 -283 203 -4 11 207 134 223 131 6 -2 22 -77 37 -167z"/>
<path fill="#f0f0f0" d="M4280 8590 c-66 -14 -89 -24 -107 -45 -28 -32 -28 -36 -3 -67 13 -17
34 -28 62 -32 59 -10 82 -27 114 -87 31 -56 63 -76 95 -58 32 17 39 53 32 160
-10 156 -22 164 -193 129z"/>
<path fill="#f0f0f0" d="M5817 8582 c-22 -25 -21 -44 4 -76 28 -36 70 -56 117 -56 45 0 62 14
62 50 0 68 -139 130 -183 82z"/>
<path fill="#f0f0f0" d="M4580 8539 c-59 -24 -89 -81 -56 -108 62 -52 210 15 176 79 -19 36
-71 48 -120 29z"/>
<path fill="#f0f0f0" d="M6172 8531 c-61 -5 -77 -10 -93 -30 -10 -13 -19 -29 -19 -35 0 -31
43 -204 55 -223 36 -54 98 -32 110 39 11 67 31 94 87 125 65 35 83 72 51 105
-25 24 -77 29 -191 19z"/>
<path fill="#f0f0f0" d="M1568 8472 c-81 -21 -152 -41 -157 -47 -6 -6 33 -63 111 -160 138
-173 179 -218 189 -208 8 8 49 361 49 419 0 43 -1 43 -192 -4z m156 -39 c-3
-21 -11 -96 -19 -167 -13 -117 -19 -147 -28 -135 -2 2 -52 64 -111 138 -59 73
-105 135 -103 137 6 6 227 62 249 63 13 1 15 -6 12 -36z"/>
<path fill="#f0f0f0" d="M5890 8393 c-75 -38 -35 -113 60 -113 52 0 100 28 100 59 0 52 -99
85 -160 54z"/>
<path fill="#f0f0f0" d="M13146 8075 c-61 -61 -59 -155 2 -155 56 0 112 67 112 133 0 67 -58
79 -114 22z"/>
<path fill="#f0f0f0" d="M12968 8073 c-39 -45 -47 -85 -27 -142 15 -44 53 -52 86 -18 34 33
44 114 19 152 -19 29 -56 33 -78 8z"/>
<path fill="#f0f0f0" d="M13284 7961 c-65 -40 -92 -102 -58 -135 46 -46 174 31 174 104 0 50
-59 66 -116 31z"/>
<path fill="#f0f0f0" d="M8801 7931 c-52 -52 10 -181 86 -181 27 0 35 5 44 27 15 41 2 90 -34
128 -42 44 -70 52 -96 26z"/>
<path fill="#f0f0f0" d="M8996 7878 c-25 -36 -21 -121 7 -154 47 -54 97 -10 97 84 0 60 -21
92 -60 92 -18 0 -34 -8 -44 -22z"/>
<path fill="#f0f0f0" d="M12950 7851 c-68 -8 -98 -24 -106 -57 -9 -34 16 -59 77 -79 55 -19
78 -43 103 -109 18 -48 45 -64 84 -52 29 9 40 48 47 161 6 93 5 102 -15 123
-22 24 -68 27 -190 13z"/>
<path fill="#f0f0f0" d="M8646 7814 c-20 -20 -20 -37 0 -80 27 -58 103 -96 144 -74 46 24 12
123 -53 153 -44 21 -71 21 -91 1z"/>
<path fill="#f0f0f0" d="M13275 7770 c-66 -15 -94 -46 -80 -90 14 -45 124 -45 173 0 54 50 -8
110 -93 90z"/>
<path fill="#f0f0f0" d="M7420 7748 c-44 -47 -19 -168 38 -189 18 -7 28 -4 48 16 42 42 27
157 -25 185 -28 15 -38 13 -61 -12z"/>
<path fill="#f0f0f0" d="M7236 7688 c-20 -28 -20 -48 0 -98 30 -76 103 -102 133 -49 13 23 13
33 2 70 -25 83 -101 126 -135 77z"/>
<path fill="#f0f0f0" d="M8887 7670 c-22 -18 -25 -29 -32 -119 -8 -114 -2 -157 27 -172 35
-19 66 -2 92 49 32 63 50 77 120 96 61 16 76 27 76 61 0 44 -27 60 -144 84
-120 25 -108 25 -139 1z"/>
<path fill="#f0f0f0" d="M7611 7647 c-38 -19 -63 -75 -58 -126 7 -63 42 -79 90 -40 49 37 59
146 17 169 -23 12 -20 12 -49 -3z"/>
<path fill="#f0f0f0" d="M10004 7568 c3 -35 11 -133 16 -218 12 -171 16 -193 35 -188 13 3
295 327 295 339 0 10 -305 129 -331 129 -20 0 -21 -4 -15 -62z m239 -54 c26
-10 46 -24 45 -30 -4 -14 -210 -254 -219 -254 -3 0 -9 46 -13 103 -3 56 -9
137 -13 180 l-6 78 79 -30 c43 -16 101 -37 127 -47z"/>
<path fill="#f0f0f0" d="M8635 7600 c-41 -45 22 -110 107 -110 57 0 87 27 72 67 -20 55 -141
85 -179 43z"/>
<path fill="#f0f0f0" d="M7156 7504 c-20 -19 -20 -37 -1 -75 29 -55 121 -89 153 -57 32 32 -2
103 -62 132 -43 20 -70 20 -90 0z"/>
<path fill="#f0f0f0" d="M11328 7509 c-51 -29 -17 -158 48 -185 41 -17 59 -11 74 26 17 41 -2
101 -45 139 -38 33 -50 36 -77 20z"/>
<path fill="#f0f0f0" d="M3600 7477 c-101 -67 -118 -223 -34 -297 57 -49 158 -52 225 -7 79
53 103 146 53 206 -69 82 -204 44 -204 -59 0 -57 53 -93 96 -65 31 20 33 65 4
65 -13 0 -20 -7 -20 -20 0 -22 -20 -26 -38 -8 -19 19 -14 47 13 73 31 32 75
32 112 1 22 -19 28 -32 28 -66 0 -35 -6 -47 -37 -75 -65 -60 -152 -65 -214
-12 -65 57 -33 210 52 249 24 11 28 28 8 35 -6 2 -26 -7 -44 -20z"/>
<path fill="#f0f0f0" d="M7402 7473 c-23 -21 -92 -178 -92 -212 0 -73 58 -82 128 -20 l47 41
71 -6 c54 -4 75 -2 92 10 45 31 21 86 -56 131 -26 15 -62 38 -81 50 -40 27
-81 29 -109 6z"/>
<path fill="#f0f0f0" d="M11531 7454 c-47 -33 -48 -137 -1 -179 17 -15 24 -16 45 -7 30 14 45
48 45 100 0 72 -46 116 -89 86z"/>
<path fill="#f0f0f0" d="M11172 7394 c-64 -44 23 -171 111 -162 24 2 34 10 41 29 24 70 -94
174 -152 133z"/>
<path fill="#f0f0f0" d="M4935 7284 c-38 -14 -109 -39 -157 -56 -49 -17 -88 -36 -88 -42 0
-16 309 -336 324 -336 10 0 15 53 20 220 4 121 4 225 1 230 -9 14 -20 12 -100
-16z m65 -188 c0 -91 -4 -167 -8 -170 -5 -3 -64 53 -130 124 l-122 128 68 23
c37 13 90 31 117 40 28 10 56 18 63 18 9 1 12 -38 12 -163z"/>
<path fill="#f0f0f0" d="M11384 7225 c-11 -16 -20 -63 -26 -125 -12 -124 -2 -155 52 -155 31
0 39 6 67 49 45 69 52 74 112 86 64 12 93 34 89 68 -4 36 -42 59 -132 82 -109
27 -141 26 -162 -5z"/>
<path fill="#f0f0f0" d="M653 7188 c-31 -40 -16 -125 29 -163 36 -30 42 -31 68 -5 34 34 24
116 -20 160 -22 22 -62 27 -77 8z"/>
<path fill="#f0f0f0" d="M11152 7184 c-69 -48 45 -147 135 -117 53 18 41 87 -21 117 -43 20
-85 20 -114 0z"/>
<path fill="#f0f0f0" d="M442 7168 c-34 -34 7 -120 70 -151 97 -48 130 55 42 133 -37 32 -89
41 -112 18z"/>
<path fill="#f0f0f0" d="M12460 7056 c0 -7 7 -30 15 -49 17 -42 14 -48 -55 -81 -53 -25 -59
-46 -34 -116 21 -58 14 -71 -46 -89 -57 -17 -66 -42 -46 -120 22 -86 23 -84
-29 -77 -45 7 -58 -2 -32 -21 24 -20 63 -23 86 -6 24 17 25 25 5 144 -6 36 -5
37 33 49 74 24 89 62 59 148 l-14 40 56 29 c66 32 73 51 47 119 -16 41 -45 61
-45 30z"/>
<path fill="#f0f0f0" d="M5933 7029 c-48 -18 -36 -97 23 -149 56 -49 114 -38 114 22 0 74 -80
148 -137 127z"/>
<path fill="#f0f0f0" d="M6130 7020 c-13 -13 -20 -33 -20 -59 0 -74 31 -121 79 -121 68 0 67
136 -1 184 -29 20 -34 20 -58 -4z"/>
<path fill="#f0f0f0" d="M327 7010 c-35 -50 27 -119 113 -128 43 -4 50 -2 65 21 14 22 15 30
3 53 -20 41 -61 66 -116 72 -43 4 -51 1 -65 -18z"/>
<path fill="#f0f0f0" d="M701 6970 c-71 -6 -88 -11 -103 -30 -21 -26 -23 -60 -6 -127 6 -27
15 -64 19 -83 17 -72 82 -105 113 -57 8 12 18 40 21 62 10 57 27 80 85 111 52
28 68 54 55 93 -6 19 -62 43 -90 40 -5 -1 -48 -5 -94 -9z"/>
<path fill="#f0f0f0" d="M2600 6973 c0 -5 -14 -102 -30 -218 -34 -240 -35 -245 -17 -245 13 0
105 67 285 207 45 36 82 67 82 69 0 3 -65 47 -144 99 -131 86 -176 108 -176
88z m151 -114 c60 -39 107 -75 104 -79 -8 -13 -242 -189 -260 -196 -13 -5 -15
-2 -11 17 3 13 12 78 21 144 19 154 25 185 31 185 3 0 55 -32 115 -71z"/>
<path fill="#f0f0f0" d="M5792 6878 c-24 -24 -14 -69 23 -104 89 -83 206 -31 134 60 -39 50
-127 74 -157 44z"/>
<path fill="#f0f0f0" d="M398 6825 c-54 -30 -44 -85 18 -105 95 -32 186 39 124 95 -27 24
-107 30 -142 10z"/>
<path fill="#f0f0f0" d="M6051 6774 c-25 -32 -25 -26 -6 -150 12 -84 18 -102 40 -121 32 -28
36 -28 67 -4 14 12 29 39 37 69 14 57 26 70 98 106 67 33 80 68 39 103 -25 21
-36 23 -141 23 -111 0 -114 -1 -134 -26z"/>
<path fill="#f0f0f0" d="M5832 6674 c-74 -52 40 -139 132 -100 41 17 50 30 42 61 -12 49 -124
74 -174 39z"/>
<path fill="#f0f0f0" d="M13507 6518 l-35 -43 -41 40 c-31 29 -44 36 -53 27 -8 -8 -2 -21 25
-52 21 -22 37 -45 37 -51 0 -6 -11 -24 -25 -41 -14 -16 -25 -36 -25 -43 0 -30
20 -23 51 16 l33 42 30 -37 c28 -32 66 -49 66 -28 0 5 -16 27 -35 49 -19 23
-35 44 -35 48 0 3 16 27 35 52 32 41 37 63 16 63 -5 0 -24 -19 -44 -42z"/>
<path fill="#f0f0f0" d="M8815 6515 c-64 -32 -98 -131 -59 -170 44 -43 144 43 144 122 0 53
-35 72 -85 48z"/>
<path fill="#f0f0f0" d="M8600 6485 c-31 -33 -39 -114 -16 -150 51 -78 149 53 105 138 -24 44
-55 49 -89 12z"/>
<path fill="#f0f0f0" d="M8914 6371 c-42 -26 -64 -59 -64 -97 0 -35 13 -44 63 -44 54 0 127
65 127 112 0 47 -70 63 -126 29z"/>
<path fill="#f0f0f0" d="M7445 6285 c-149 -32 -185 -44 -185 -58 0 -7 16 -32 36 -57 20 -25
81 -105 136 -177 54 -73 105 -133 112 -133 16 0 18 12 46 220 11 85 22 172 25
193 5 36 5 37 -27 36 -18 0 -82 -11 -143 -24z m128 -67 c-15 -133 -39 -283
-45 -283 -8 0 -219 277 -214 282 5 6 217 51 243 52 21 1 22 -2 16 -51z"/>
<path fill="#f0f0f0" d="M8588 6270 c-77 -7 -108 -28 -108 -70 0 -33 13 -45 71 -65 58 -21 85
-48 105 -107 18 -55 50 -76 86 -57 33 18 48 70 48 174 0 140 -8 145 -202 125z"/>
<path fill="#f0f0f0" d="M10165 6191 c-129 -32 -190 -144 -135 -251 58 -114 225 -143 287 -51
27 40 29 80 7 126 -32 67 -130 83 -174 28 -24 -31 -25 -51 -4 -81 27 -39 104
-22 79 18 -5 8 -11 8 -20 0 -28 -24 -49 22 -23 48 33 33 112 -2 119 -53 10
-67 -37 -110 -112 -103 -63 6 -112 44 -134 102 -20 52 -15 82 20 125 47 55
125 71 213 45 13 -4 22 -2 22 5 0 29 -90 55 -145 42z"/>
<path fill="#f0f0f0" d="M8873 6175 c-30 -13 -53 -41 -53 -64 0 -23 45 -51 80 -51 75 0 120
29 120 79 0 45 -80 65 -147 36z"/>
<path fill="#f0f0f0" d="M1694 6169 c-51 -15 -110 -87 -124 -152 -12 -52 -11 -59 11 -104 32
-64 82 -93 164 -93 40 0 72 6 95 19 126 66 94 241 -44 241 -94 0 -142 -129
-60 -160 46 -18 91 27 59 59 -14 14 -16 14 -22 -7 -8 -31 -37 -24 -41 9 -3 29
36 69 68 69 24 0 70 -38 81 -67 20 -54 -36 -120 -111 -130 -82 -11 -170 52
-170 123 0 76 64 156 135 170 20 3 34 11 32 18 -5 15 -34 17 -73 5z"/>
<path fill="#f0f0f0" d="M4535 5810 c-14 -27 -29 -50 -34 -50 -5 0 -28 7 -52 15 -26 10 -46
12 -52 6 -15 -15 1 -30 43 -41 43 -12 47 -21 25 -60 -8 -14 -14 -33 -15 -42 0
-33 25 -18 49 28 23 42 27 45 55 40 97 -18 109 -19 104 -6 -2 8 -25 21 -50 29
-26 9 -49 19 -53 23 -4 3 3 24 14 47 25 48 26 61 6 61 -8 0 -26 -22 -40 -50z"/>
<path fill="#f0f0f0" d="M12514 5760 c-40 -16 -74 -68 -74 -115 0 -51 18 -70 56 -61 65 17
112 112 80 161 -17 26 -28 29 -62 15z"/>
<path fill="#f0f0f0" d="M11123 5678 c-11 -13 -23 -30 -26 -39 -9 -27 20 -57 66 -70 96 -26
97 -27 90 -74 -9 -71 1 -93 50 -105 100 -26 92 -19 92 -89 0 -77 16 -93 88
-89 57 4 63 21 10 28 -59 9 -63 15 -63 85 0 72 -5 78 -80 89 -65 10 -72 19
-64 87 l6 58 -33 15 c-19 8 -54 21 -78 28 -52 15 -60 30 -32 55 12 9 21 23 21
30 0 20 -25 15 -47 -9z"/>
<path fill="#f0f0f0" d="M12659 5679 c-37 -22 -69 -65 -69 -92 0 -69 136 -56 181 17 24 39 24
51 -1 76 -26 26 -65 25 -111 -1z"/>
<path fill="#f0f0f0" d="M6377 5556 c-65 -61 -64 -176 2 -176 37 0 87 55 97 107 14 77 -45
119 -99 69z"/>
<path fill="#f0f0f0" d="M12296 5564 c-26 -25 -19 -57 20 -95 52 -50 65 -80 63 -149 -1 -36 3
-65 11 -75 19 -23 63 -18 89 9 32 34 101 174 101 205 0 38 -22 55 -119 90 -94
34 -142 39 -165 15z"/>
<path fill="#f0f0f0" d="M6179 5498 c-38 -62 -10 -168 46 -168 63 0 87 128 34 181 -28 28 -56
24 -80 -13z"/>
<path fill="#f0f0f0" d="M12704 5511 c-87 -40 -67 -121 31 -121 52 0 107 30 120 64 21 59 -72
94 -151 57z"/>
<path fill="#f0f0f0" d="M6525 5451 c-58 -35 -86 -109 -55 -146 42 -50 160 32 160 112 0 54
-47 70 -105 34z"/>
<path fill="#f0f0f0" d="M343 5404 c-21 -32 -23 -112 -4 -147 30 -55 82 -46 107 18 18 49 13
108 -13 138 -24 26 -69 22 -90 -9z"/>
<path fill="#f0f0f0" d="M543 5384 c-43 -18 -73 -143 -43 -179 27 -32 87 -9 115 45 18 35 20
111 3 128 -12 12 -52 15 -75 6z"/>
<path fill="#f0f0f0" d="M3222 5335 c-74 -84 -32 -206 52 -152 46 31 75 144 44 175 -23 23
-64 14 -96 -23z"/>
<path fill="#f0f0f0" d="M12575 5340 c-57 -63 96 -148 165 -92 52 42 -12 112 -101 112 -33 0
-51 -5 -64 -20z"/>
<path fill="#f0f0f0" d="M3040 5298 c-20 -22 -25 -47 -21 -102 6 -75 75 -105 106 -46 22 43
19 112 -6 144 -25 32 -51 33 -79 4z"/>
<path fill="#f0f0f0" d="M6235 5294 c-90 -23 -135 -53 -135 -90 0 -26 37 -51 85 -58 60 -10
81 -22 107 -66 49 -82 81 -97 119 -59 20 20 21 28 15 123 -8 117 -18 149 -52
165 -30 13 -28 14 -139 -15z"/>
<path fill="#f0f0f0" d="M186 5284 c-31 -80 43 -197 104 -164 64 34 12 180 -65 180 -21 0 -35
-6 -39 -16z"/>
<path fill="#f0f0f0" d="M3376 5241 c-85 -56 -87 -174 -3 -157 106 21 162 176 64 176 -18 0
-45 -9 -61 -19z"/>
<path fill="#f0f0f0" d="M6503 5240 c-35 -21 -52 -63 -36 -89 17 -27 102 -26 143 1 38 25 51
68 29 94 -17 21 -98 18 -136 -6z"/>
<path fill="#f0f0f0" d="M624 5191 c-43 -26 -64 -59 -64 -98 0 -67 85 -62 143 6 65 77 6 144
-79 92z"/>
<path fill="#f0f0f0" d="M9140 5159 c0 -5 5 -30 11 -55 6 -25 9 -47 6 -50 -3 -3 -26 -8 -53
-12 -75 -11 -69 -32 10 -32 l66 0 11 -46 c11 -42 31 -65 46 -51 3 3 -2 26 -10
51 -8 24 -13 47 -9 50 3 3 20 6 38 6 43 0 64 9 64 27 0 12 -12 14 -57 11 l-58
-3 -19 58 c-10 33 -24 57 -32 57 -8 0 -14 -5 -14 -11z"/>
<path fill="#f0f0f0" d="M329 5104 c-91 -68 -109 -88 -109 -124 0 -43 21 -54 88 -45 87 12 99
10 155 -29 58 -40 78 -44 101 -20 29 28 19 83 -28 164 -25 41 -51 83 -60 93
-29 31 -67 21 -147 -39z"/>
<path fill="#f0f0f0" d="M3093 5085 c-104 -28 -133 -46 -133 -85 0 -35 26 -55 87 -65 52 -8
87 -35 113 -86 25 -48 54 -65 86 -50 40 18 47 53 33 169 -11 90 -16 106 -37
123 -30 23 -44 23 -149 -6z"/>
<path fill="#f0f0f0" d="M3400 5050 c-35 -9 -90 -59 -90 -84 0 -54 117 -62 170 -11 63 61 16
116 -80 95z"/>
<path fill="#f0f0f0" d="M7785 4858 c-81 -64 -54 -198 41 -198 36 0 74 31 74 60 0 19 -30 50
-48 50 -20 0 -25 -23 -7 -36 15 -11 16 -16 5 -29 -17 -21 -33 -19 -58 8 -62
65 25 165 106 123 95 -49 73 -231 -33 -266 -48 -16 -90 -4 -138 39 -43 38 -67
84 -67 126 0 30 -16 33 -25 5 -18 -58 36 -154 107 -189 93 -44 179 -18 227 68
46 83 20 210 -49 246 -43 22 -102 19 -135 -7z"/>
<path fill="#f0f0f0" d="M13380 4845 c0 -8 9 -33 20 -55 11 -22 20 -44 20 -49 0 -6 -18 -23
-40 -37 -39 -26 -53 -54 -27 -54 7 0 28 11 47 25 19 14 37 25 40 25 3 0 16
-20 28 -45 21 -43 35 -54 46 -37 3 5 -6 32 -19 60 l-24 52 44 33 c24 17 44 40
45 50 0 24 -12 21 -55 -13 -21 -16 -41 -30 -46 -30 -4 0 -18 19 -31 42 -24 44
-48 60 -48 33z"/>
<path fill="#f0f0f0" d="M5405 4628 c-5 -19 -25 -333 -25 -407 0 -38 4 -61 10 -59 23 7 340
292 337 302 -4 13 -286 176 -305 176 -7 0 -14 -6 -17 -12z m151 -98 c60 -33
112 -64 116 -68 8 -8 -226 -215 -250 -220 -11 -3 -13 2 -9 20 3 12 9 88 13
168 6 134 9 160 19 160 2 0 52 -27 111 -60z"/>
<path fill="#f0f0f0" d="M1772 4578 c-40 -43 -52 -105 -30 -152 34 -77 128 -8 128 95 0 73
-53 104 -98 57z"/>
<path fill="#f0f0f0" d="M1924 4487 c-60 -54 -60 -157 0 -157 55 0 116 72 116 137 0 62 -59
72 -116 20z"/>
<path fill="#f0f0f0" d="M1586 4488 c-47 -67 21 -202 83 -168 44 23 42 128 -4 173 -23 24 -61
21 -79 -5z"/>
<path fill="#f0f0f0" d="M10268 4360 c-23 -22 -48 -40 -56 -40 -8 0 -32 16 -53 35 -34 30 -42
33 -65 25 -15 -6 -47 -28 -72 -50 -24 -22 -49 -40 -53 -40 -5 0 -11 12 -15 28
-10 45 -13 52 -24 52 -18 0 -11 -76 8 -93 30 -27 58 -20 112 28 28 25 53 45
57 45 3 0 23 -16 44 -35 55 -49 76 -46 142 20 l36 36 47 -35 c26 -20 56 -36
67 -36 20 0 97 72 97 90 0 21 -38 8 -58 -20 -28 -38 -49 -38 -92 0 -48 40 -73
38 -122 -10z"/>
<path fill="#f0f0f0" d="M1673 4285 c-93 -44 -113 -64 -113 -109 0 -34 26 -46 101 -46 62 0
63 0 109 -49 50 -53 79 -67 109 -52 34 19 35 61 1 170 -32 103 -53 132 -95
130 -11 0 -61 -20 -112 -44z"/>
<path fill="#f0f0f0" d="M1974 4301 c-64 -39 -81 -89 -39 -117 70 -46 210 67 153 124 -18 18
-79 14 -114 -7z"/>
<path fill="#f0f0f0" d="M12453 4101 c7 -58 0 -66 -63 -76 -65 -10 -70 -18 -70 -96 0 -77 -10
-89 -74 -89 -52 0 -66 -20 -66 -99 0 -82 -12 -98 -52 -69 -16 11 -32 17 -36
14 -10 -11 12 -40 41 -54 54 -26 93 25 81 105 -8 55 6 73 56 73 22 0 47 8 61
19 21 17 24 28 24 87 0 53 3 69 15 71 102 13 120 26 120 81 0 53 -10 82 -28
82 -12 0 -14 -9 -9 -49z"/>
<path fill="#f0f0f0" d="M4392 4108 c-26 -33 -17 -102 19 -143 38 -43 75 -45 98 -4 29 52 -26
159 -82 159 -14 0 -29 -6 -35 -12z"/>
<path fill="#f0f0f0" d="M4182 4068 c-20 -20 -14 -65 14 -98 53 -62 122 -78 150 -35 15 23 15
27 -3 62 -32 65 -125 107 -161 71z"/>
<path fill="#f0f0f0" d="M11205 4020 c-4 -6 1 -33 10 -61 19 -56 14 -69 -35 -89 -16 -6 -31
-18 -34 -26 -9 -24 14 -26 51 -4 20 11 41 19 47 17 7 -3 18 -23 26 -46 13 -42
40 -56 40 -22 0 10 -7 35 -15 54 -8 20 -15 38 -15 41 0 2 23 18 50 35 28 17
50 38 50 46 0 20 -8 19 -59 -10 -23 -14 -46 -25 -50 -25 -4 0 -15 23 -25 50
-18 49 -29 60 -41 40z"/>
<path fill="#f0f0f0" d="M4089 3899 c-57 -57 69 -151 156 -115 40 17 46 46 19 85 -35 50 -137
68 -175 30z"/>
<path fill="#f0f0f0" d="M4500 3900 c-19 -5 -55 -12 -79 -17 -30 -5 -50 -17 -64 -36 l-21 -27
34 -102 c19 -57 43 -112 56 -125 42 -42 89 -22 99 42 3 19 7 51 10 70 5 28 17
43 60 75 48 36 55 45 55 75 0 24 -6 37 -19 45 -23 12 -80 12 -131 0z"/>
<path fill="#f0f0f0" d="M8745 3875 c-51 -50 -23 -100 61 -111 77 -10 84 -17 77 -72 -8 -68
14 -92 92 -101 l60 -6 5 -63 c4 -48 10 -67 24 -78 23 -16 112 -19 121 -3 10
15 2 20 -47 26 -54 7 -69 25 -62 72 9 55 -16 80 -91 89 l-60 7 -3 63 c-3 72
-17 86 -92 97 -87 13 -99 25 -60 60 21 19 27 45 10 45 -6 0 -22 -11 -35 -25z"/>
<path fill="#f0f0f0" d="M4200 3729 c-63 -25 -76 -65 -34 -98 57 -45 174 -12 174 49 0 49 -74
75 -140 49z"/>
<path fill="#f0f0f0" d="M6829 3720 c-109 -58 -149 -191 -81 -271 67 -81 208 -94 280 -26 69
65 31 200 -59 207 -52 5 -72 -1 -100 -29 -33 -34 -37 -69 -11 -101 21 -25 69
-30 83 -9 23 37 -1 67 -26 32 -15 -21 -35 -9 -35 22 0 28 34 55 68 55 13 0 37
-13 53 -29 91 -91 -47 -204 -172 -141 -92 47 -105 156 -27 226 34 32 83 54
118 54 47 0 32 24 -16 27 -23 2 -53 -5 -75 -17z"/>
<path fill="#f0f0f0" d="M480 3618 c-99 -50 -138 -186 -78 -270 48 -68 174 -90 252 -45 88 50
100 168 24 221 -33 23 -109 21 -141 -4 -34 -27 -45 -81 -23 -115 32 -48 120
-23 100 29 -9 22 -25 20 -31 -4 -7 -25 -29 -26 -42 -2 -13 25 7 64 40 76 80
28 142 -64 94 -137 -18 -27 -80 -57 -120 -57 -65 0 -133 50 -148 108 -17 70
76 192 148 192 23 0 13 24 -11 28 -10 1 -39 -8 -64 -20z"/>
<path fill="#f0f0f0" d="M3236 3440 c-30 -45 -42 -48 -88 -20 -55 33 -81 27 -122 -30 -20 -27
-43 -50 -53 -50 -9 0 -31 12 -50 26 -45 34 -71 27 -120 -34 -60 -74 -67 -77
-83 -27 -6 19 -15 35 -20 35 -17 0 -18 -29 -2 -61 12 -24 25 -35 45 -37 27 -3
43 10 105 88 21 26 15 27 95 -16 40 -22 75 -5 111 51 15 25 31 45 34 45 4 0
30 -12 58 -27 28 -15 58 -24 67 -20 20 8 79 87 74 101 -8 23 -25 14 -51 -24z"/>
<path fill="#f0f0f0" d="M13227 3442 c-44 -48 9 -172 73 -172 36 0 50 17 50 62 0 51 -23 94
-60 113 -37 19 -43 19 -63 -3z"/>
<path fill="#f0f0f0" d="M13011 3388 c-17 -46 24 -109 86 -135 55 -23 93 -3 93 48 0 54 -68
109 -135 109 -28 0 -37 -5 -44 -22z"/>
<path fill="#f0f0f0" d="M12930 3232 c-21 -17 -23 -24 -15 -48 15 -42 69 -74 125 -74 124 0
91 125 -37 137 -38 4 -53 1 -73 -15z"/>
<path fill="#f0f0f0" d="M13368 3245 c-2 -3 -31 -10 -64 -16 -113 -21 -142 -57 -109 -135 9
-22 23 -60 31 -85 20 -65 49 -99 84 -99 38 0 60 32 60 87 0 59 16 88 72 128
39 28 48 41 48 64 0 37 -31 61 -81 61 -19 0 -38 -2 -41 -5z"/>
<path fill="#f0f0f0" d="M13033 3060 c-12 -5 -29 -20 -39 -34 -15 -24 -15 -28 0 -51 20 -30
69 -40 123 -26 66 18 86 59 48 97 -18 18 -34 24 -67 23 -24 0 -53 -4 -65 -9z"/>
<path fill="#f0f0f0" d="M8146 2869 c-47 -40 -64 -120 -34 -156 26 -32 94 0 123 57 22 43 20
107 -4 120 -31 16 -48 12 -85 -21z"/>
<path fill="#f0f0f0" d="M7960 2841 c-25 -25 -30 -37 -30 -80 0 -91 64 -130 106 -65 20 29 22
118 3 140 -29 35 -48 37 -79 5z"/>
<path fill="#f0f0f0" d="M5591 2841 c-44 -44 -45 -148 -1 -183 48 -39 104 28 97 115 -7 77
-54 110 -96 68z"/>
<path fill="#f0f0f0" d="M5400 2820 c-48 -48 1 -190 65 -190 72 0 74 145 3 194 -30 21 -44 20
-68 -4z"/>
<path fill="#f0f0f0" d="M10080 2822 c0 -9 4 -31 8 -47 13 -43 7 -52 -49 -70 -64 -22 -74 -40
-56 -109 18 -66 9 -84 -44 -92 -62 -10 -75 -38 -60 -121 14 -78 7 -92 -39 -73
-39 16 -52 4 -21 -21 26 -21 71 -25 89 -7 14 14 15 67 2 123 -11 48 -2 60 50
69 52 8 75 42 65 94 -19 97 -20 89 22 102 85 27 101 58 69 135 -16 37 -36 47
-36 17z"/>
<path fill="#f0f0f0" d="M8295 2761 c-69 -31 -103 -103 -65 -141 17 -17 28 -20 53 -14 62 13
117 71 117 123 0 19 -34 51 -55 51 -5 0 -28 -9 -50 -19z"/>
<path fill="#f0f0f0" d="M5734 2695 c-27 -18 -54 -75 -54 -112 0 -79 92 -69 134 14 41 82 -12
146 -80 98z"/>
<path fill="#f0f0f0" d="M5274 2635 c-14 -55 33 -126 91 -141 39 -10 59 7 63 50 3 32 -2 43
-36 77 -32 31 -47 39 -76 39 -30 0 -37 -4 -42 -25z"/>
<path fill="#f0f0f0" d="M7975 2626 c-84 -14 -113 -29 -121 -61 -9 -38 10 -58 77 -80 65 -21
64 -20 124 -117 17 -27 27 -33 55 -33 49 0 60 27 60 148 0 93 -9 133 -34 149
-15 11 -78 8 -161 -6z"/>
<path fill="#f0f0f0" d="M5525 2579 c-11 -6 -46 -49 -77 -95 -65 -97 -73 -134 -33 -160 27
-18 54 -13 97 18 40 28 87 33 132 14 50 -21 79 -20 99 2 33 36 21 62 -66 149
-85 85 -106 95 -152 72z"/>
<path fill="#f0f0f0" d="M8264 2560 c-22 -9 -64 -56 -64 -71 0 -5 10 -19 21 -30 18 -18 30
-21 75 -17 88 7 136 74 82 112 -24 17 -80 20 -114 6z"/>
<path fill="#f0f0f0" d="M2035 2496 c-58 -58 -55 -156 4 -156 59 0 114 87 97 155 -5 21 -12
25 -42 25 -23 0 -43 -8 -59 -24z"/>
<path fill="#f0f0f0" d="M11450 2488 c-85 -11 -159 -23 -164 -28 -5 -5 37 -82 104 -187 124
-194 145 -222 159 -208 11 13 101 427 95 437 -6 10 -7 10 -194 -14z m150 -35
c0 -42 -65 -313 -74 -310 -13 4 -184 268 -185 285 -1 6 7 12 17 13 9 0 58 7
107 14 127 18 135 18 135 -2z"/>
<path fill="#f0f0f0" d="M2214 2441 c-41 -25 -64 -59 -64 -93 0 -60 93 -62 155 -4 37 35 47
80 23 104 -18 18 -79 14 -114 -7z"/>
<path fill="#f0f0f0" d="M1880 2329 c-56 -23 -53 -60 11 -125 49 -50 51 -54 51 -105 -1 -96
27 -133 83 -107 33 15 115 173 115 222 0 46 -23 63 -136 97 -53 16 -98 29 -98
28 -1 0 -12 -5 -26 -10z"/>
<path fill="#f0f0f0" d="M2283 2284 c-86 -30 -99 -102 -23 -124 90 -26 201 61 143 112 -25 22
-76 27 -120 12z"/>
<path fill="#f0f0f0" d="M3974 2243 l-9 -58 -53 -6 c-29 -4 -56 -9 -59 -12 -14 -15 13 -27 58
-27 l50 0 -6 -55 c-6 -46 -5 -55 8 -55 15 0 22 20 29 90 3 23 9 26 59 31 31 3
61 9 68 13 25 16 -4 28 -58 24 l-56 -3 3 58 c3 45 1 57 -11 57 -10 0 -17 -17
-23 -57z"/>
<path fill="#f0f0f0" d="M455 2184 c-38 -38 -45 -99 -17 -153 24 -47 54 -57 89 -27 23 20 27
31 27 79 1 87 -55 145 -99 101z"/>
<path fill="#f0f0f0" d="M642 2154 c-52 -36 -70 -136 -32 -174 24 -24 38 -25 68 -4 32 22 52
67 52 118 0 69 -38 95 -88 60z"/>
<path fill="#f0f0f0" d="M2163 2115 c-58 -25 -40 -83 32 -111 38 -14 52 -15 85 -5 75 22 57
97 -29 121 -45 12 -49 12 -88 -5z"/>
<path fill="#f0f0f0" d="M13227 2093 c-4 -3 -7 -23 -7 -43 0 -49 -14 -60 -81 -60 -66 0 -78
-10 -86 -72 -10 -75 -16 -81 -83 -73 -54 6 -60 5 -74 -17 -8 -13 -20 -46 -26
-73 -17 -78 -24 -85 -58 -52 -33 32 -42 34 -42 8 0 -23 45 -61 71 -61 26 0 56
44 63 94 10 63 24 78 62 67 37 -11 79 -4 95 15 6 8 16 40 23 71 l11 58 63 0
c74 0 86 10 96 81 7 56 -4 80 -27 57z"/>
<path fill="#f0f0f0" d="M296 2044 c-33 -32 -12 -112 40 -153 35 -28 60 -27 79 3 23 35 10 93
-31 134 -35 35 -64 41 -88 16z"/>
<path fill="#f0f0f0" d="M732 1970 c-38 -23 -66 -81 -58 -116 13 -52 107 -32 146 31 51 83 -4
136 -88 85z"/>
<path fill="#f0f0f0" d="M458 1879 c-120 -98 -147 -150 -93 -185 22 -14 29 -14 79 0 73 22 82
21 137 -15 93 -59 154 -19 109 73 -35 73 -89 152 -113 165 -37 20 -53 15 -119
-38z"/>
<path fill="#f0f0f0" d="M6750 1833 c0 -69 -8 -77 -60 -63 -43 12 -76 7 -65 -9 3 -5 30 -17
60 -25 l54 -16 3 -55 c4 -68 21 -73 28 -8 5 53 7 53 83 38 30 -6 37 -4 37 9 0
10 -15 19 -42 26 -24 6 -49 13 -55 15 -9 3 -13 26 -13 70 0 51 -3 65 -15 65
-11 0 -15 -12 -15 -47z"/>
<path fill="#f0f0f0" d="M8247 1643 c-4 -3 -9 -32 -13 -63 l-6 -58 -54 -7 c-39 -5 -54 -11
-54 -22 0 -12 11 -14 53 -11 l52 3 0 -55 c0 -42 3 -55 15 -55 11 0 16 14 18
56 3 62 11 68 77 69 37 0 60 14 50 29 -5 9 -24 10 -61 5 l-54 -6 0 55 c0 52
-9 75 -23 60z"/>
<path fill="#f0f0f0" d="M10666 1081 c-39 -43 -43 -134 -8 -173 8 -10 27 -18 42 -18 36 0 62
39 67 100 7 84 -56 141 -101 91z"/>
<path fill="#f0f0f0" d="M10477 1062 c-21 -23 -22 -93 -2 -132 16 -31 51 -60 72 -60 25 0 53
39 53 74 0 97 -76 170 -123 118z"/>
<path fill="#f0f0f0" d="M3287 995 c-34 -33 -14 -101 44 -149 61 -52 124 -17 105 58 -17 69
-113 127 -149 91z"/>
<path fill="#f0f0f0" d="M3484 965 c-11 -27 -12 -44 -5 -73 21 -76 63 -105 104 -72 18 15 22
28 21 69 -1 65 -27 105 -73 109 -28 3 -33 -1 -47 -33z"/>
<path fill="#f0f0f0" d="M4939 957 c-112 -59 -135 -192 -48 -277 86 -83 226 -78 271 11 22 42
23 71 3 113 -21 45 -67 70 -116 63 -67 -9 -100 -55 -78 -109 18 -43 78 -50 93
-11 9 23 -10 39 -28 24 -18 -15 -36 -6 -36 18 0 26 26 44 62 44 65 0 104 -97
59 -142 -44 -44 -123 -46 -187 -4 -37 24 -68 94 -60 136 14 75 113 137 198
123 29 -5 38 -3 38 8 0 34 -107 36 -171 3z"/>
<path fill="#f0f0f0" d="M9197 788 c6 -211 14 -290 29 -295 12 -4 304 312 304 330 0 11 -303
147 -328 147 -7 0 -8 -61 -5 -182z m164 81 c65 -28 119 -54 119 -58 -1 -11
-228 -246 -233 -241 -8 8 -20 350 -12 350 3 0 60 -23 126 -51z"/>
<path fill="#f0f0f0" d="M10812 934 c-45 -31 -69 -123 -40 -152 52 -52 162 71 129 145 -13 28
-55 31 -89 7z"/>
<path fill="#f0f0f0" d="M10360 895 c-33 -40 5 -125 67 -152 60 -24 92 3 78 66 -10 47 -74
101 -119 101 -8 0 -19 -7 -26 -15z"/>
<path fill="#f0f0f0" d="M3162 854 c-26 -18 -27 -34 -7 -75 33 -63 150 -96 175 -49 22 42 -26
112 -89 130 -47 13 -53 13 -79 -6z"/>
<path fill="#f0f0f0" d="M13167 618 c-42 -252 -42 -248 -24 -248 19 0 361 247 365 263 2 8
-21 30 -50 49 -29 20 -93 64 -141 97 -49 34 -94 61 -101 61 -8 0 -24 -71 -49
-222z m191 89 c56 -39 102 -71 102 -73 0 -5 -271 -194 -278 -194 -5 0 4 75 19
168 16 92 28 171 29 175 0 10 4 8 128 -76z"/>
<path fill="#f0f0f0" d="M1820 813 c-45 -23 -75 -81 -66 -128 8 -42 57 -85 96 -85 52 0 90 66
58 98 -17 17 -58 15 -58 -3 0 -8 7 -15 15 -15 21 0 19 -27 -4 -39 -30 -17 -71
21 -71 65 0 69 80 109 138 68 55 -38 70 -144 29 -205 -55 -83 -146 -84 -224
-4 -28 30 -43 55 -45 76 -4 47 -28 50 -28 4 0 -116 157 -213 259 -160 67 34
108 121 97 200 -17 109 -112 171 -196 128z"/>
<path fill="#f0f0f0" d="M10602 823 c-11 -4 -59 -68 -114 -152 -25 -36 -23 -86 3 -104 24 -17
47 -13 103 20 48 27 81 29 136 7 46 -19 85 -13 100 16 17 32 -10 78 -89 153
-70 66 -96 77 -139 60z"/>
<path fill="#f0f0f0" d="M11934 766 c-28 -28 -34 -41 -34 -78 0 -73 62 -118 115 -84 37 24 32
86 -7 86 -17 0 -19 -5 -13 -30 6 -26 4 -30 -13 -30 -49 0 -67 58 -32 103 39
49 110 43 143 -12 62 -106 -75 -259 -185 -207 -18 9 -46 35 -62 59 -26 39 -27
47 -23 115 6 77 -3 90 -28 42 -33 -64 -8 -156 59 -219 31 -30 44 -35 93 -39
51 -3 64 0 104 26 56 36 89 97 89 166 0 87 -46 136 -131 136 -33 0 -47 -6 -75
-34z"/>
<path fill="#f0f0f0" d="M3410 743 c-17 -22 -20 -36 -16 -63 3 -19 9 -62 12 -95 8 -69 25
-110 55 -126 30 -16 68 15 84 66 19 65 32 81 82 105 26 12 56 29 66 38 23 21
22 55 -4 78 -18 16 -40 20 -139 22 l-117 4 -23 -29z"/>
<path fill="#f0f0f0" d="M8069 678 c0 -2 -6 -23 -12 -48 l-12 -45 -75 0 -75 0 -20 -57 c-27
-76 -35 -83 -76 -69 -17 6 -45 11 -61 11 -25 0 -32 -7 -53 -52 -14 -29 -25
-58 -25 -64 0 -6 -7 -18 -16 -25 -14 -11 -20 -8 -45 21 l-28 35 -1 -28 c0 -54
69 -89 101 -51 8 10 24 42 35 73 23 60 20 59 102 45 54 -9 76 9 97 82 17 59
17 59 81 43 59 -15 87 3 103 66 11 46 9 65 -10 65 -5 0 -9 -1 -10 -2z"/>
<path fill="#f0f0f0" d="M3220 663 c-90 -36 -48 -123 60 -123 85 0 119 58 59 102 -27 20 -93
32 -119 21z"/>
<path fill="#f0f0f0" d="M6349 605 l-24 -55 -37 25 c-20 14 -44 25 -52 25 -33 0 -23 -20 24
-50 54 -35 57 -42 35 -80 -8 -14 -14 -35 -15 -47 0 -43 33 -21 45 30 10 39 20
41 69 12 32 -19 46 -23 52 -14 7 12 1 19 -60 64 l-27 20 21 53 c19 50 19 72 1
72 -5 0 -19 -25 -32 -55z"/>
<path fill="#f0f0f0" d="M350 619 c0 -6 12 -33 28 -61 l27 -49 -37 -31 c-39 -30 -50 -58 -24
-58 8 0 29 12 47 27 l32 27 16 -22 c9 -12 23 -31 32 -43 9 -13 20 -19 28 -15
8 6 4 22 -18 59 l-29 52 44 38 c44 38 57 67 30 67 -7 0 -19 -7 -26 -15 -7 -9
-26 -25 -41 -36 l-28 -20 -26 46 c-25 41 -55 60 -55 34z"/>
</g>
</svg>
