<?xml version="1.0" encoding="utf-8"?>
<!-- Generator: Adobe Illustrator 27.5.0, SVG Export Plug-In . SVG Version: 6.00 Build 0)  -->
<svg version="1.1" xmlns="http://www.w3.org/2000/svg" xmlns:xlink="http://www.w3.org/1999/xlink" x="0px" y="0px"
	 viewBox="0 0 500 500" style="enable-background:new 0 0 500 500;" xml:space="preserve">
<g id="Background_complete">
	<g>
		<g>
			<polygon style="fill:#E0E0E0;" points="75.46,111.338 128.496,80.483 169.358,80.483 223.274,109.876 223.274,309.842
				75.46,309.842 			"/>
		</g>
		<g>
			<g>
				<g>
					<path style="fill:#FAFAFA;" d="M224.795,309.842H75.46V111.338l1.521-1.461c19.721-18.953,45.7-29.393,73.146-29.393
						c0.001,0-0.001,0,0.001,0c27.446,0,53.424,10.438,73.146,29.392l1.521,1.462V309.842z M85.367,299.936h129.523V115.588
						c-17.672-16.266-40.587-25.198-64.762-25.199c-24.175,0-47.089,8.933-64.761,25.198V299.936z"/>
				</g>
			</g>
			<polygon style="fill:#F0F0F0;" points="146.413,301.128 153.843,301.128 153.843,234.765 216.766,234.765 216.766,227.335
				153.843,227.335 153.843,159.459 216.766,159.459 216.766,152.03 153.843,152.03 153.843,89.107 146.413,89.107 146.413,152.03
				83.49,152.03 83.49,159.459 146.413,159.459 146.413,227.335 83.49,227.335 83.49,234.765 146.413,234.765 			"/>
			<g>
				<path style="fill:#F0F0F0;" d="M229.748,314.795H70.507V109.316l1.451-1.451c43.103-43.102,113.237-43.102,156.34,0l1.45,1.451
					V314.795z M80.413,304.889h139.429V113.447c-38.861-37.347-100.567-37.348-139.429,0V304.889z"/>
			</g>
		</g>
	</g>
	<g>
		<g>
			<g>
				<g>
					<g>
						<g>
							<g>
								<g>
									<g>
										<g>
											<g>
												<path style="fill:#F0F0F0;" d="M341.544,345.326c0,0-17.016,3.77-14.488-8.102c2.528-11.873,2.343-16.251-4.573-21.647
													c-6.916-5.396-13.876-8.062-8.58-16.606c5.296-8.545-4.752-15.187-9.946-19.786c-5.193-4.599,0.669-8.067,2.045-16.761
													c1.376-8.694-7.977-7.388-8.711-18.339c-0.735-10.951,10.39-23.749,0.825-38.822c0,0,12.847,6.662,17.067,18.365
													c4.22,11.702,0.813,20.743,8.402,25.191c7.589,4.448,12.34,12.142,9.762,20.039c-2.579,7.897,1.085,12.084,7.307,17.843
													c6.221,5.759,4.565,8.047,3.791,15.089c-0.774,7.041,0.78,5.376,7.902,14.996
													C359.47,326.405,359.651,342.17,341.544,345.326z"/>
											</g>
										</g>
									</g>
								</g>
							</g>
						</g>
						<g>
							<g>
								<path style="fill:#E0E0E0;" d="M343.968,344.8c-0.035-0.057-0.065-0.116-0.087-0.183l-34.049-103.347
									c-0.146-0.442,0.096-0.922,0.538-1.069c0.006-0.001,0.011-0.003,0.016-0.005c0.44-0.136,0.911,0.105,1.056,0.545
									l34.048,103.345c0.029,0.083,0.04,0.168,0.043,0.253L343.968,344.8z"/>
							</g>
						</g>
					</g>
					<g>
						<g>
							<g>
								<g>
									<path style="fill:#F0F0F0;" d="M372.25,345.111c0,0,16.926,3.75,14.411-8.059c-2.515-11.81-2.33-16.164,4.549-21.531
										c6.88-5.367,13.803-8.02,8.535-16.519c-5.268-8.499,4.727-15.106,9.893-19.681c5.166-4.575-0.666-8.025-2.034-16.672
										c-1.368-8.648,7.935-7.349,8.665-18.242c0.73-10.893-10.335-23.624-0.821-38.617c0,0-12.779,6.627-16.977,18.268
										s-0.809,20.633-8.358,25.058c-7.549,4.425-12.275,12.078-9.71,19.933c2.565,7.855-1.08,12.019-7.268,17.748
										c-6.189,5.729-4.542,8.005-3.771,15.009c0.77,7.004-0.776,5.348-7.861,14.917
										C354.419,326.291,354.238,341.973,372.25,345.111z"/>
								</g>
							</g>
						</g>
						<g>
							<g>
								<g>
									<g>
										<g>
											<path style="fill:#E0E0E0;" d="M368.281,344.128c0.003-0.084,0.014-0.169,0.043-0.251l33.868-102.796
												c0.145-0.438,0.613-0.678,1.051-0.542c0.006,0.002,0.011,0.004,0.016,0.005c0.44,0.145,0.681,0.623,0.535,1.063
												l-33.869,102.799c-0.021,0.067-0.051,0.125-0.086,0.182L368.281,344.128z"/>
										</g>
									</g>
								</g>
							</g>
						</g>
					</g>
					<g>
						<g>
							<g>
								<path style="fill:#F5F5F5;" d="M353.454,342.961c0,0-19.478-1.613-12.827-13.489c6.651-11.877,7.906-16.627,2.29-24.703
									c-5.616-8.076-12.185-13.243-3.674-20.636c8.51-7.393-0.047-17.844-4.082-24.495c-4.035-6.651,3.396-8.418,7.757-17.273
									c4.361-8.855-6.091-10.562-3.241-22.535c2.85-11.973,19.016-21.987,13.777-41.307c0,0,11.548,11.402,12.181,25.338
									c0.634,13.936-6.018,22.488,0.634,29.772c6.651,7.285,9.185,17.103,3.801,24.704c-5.384,7.602-2.85,13.303,1.9,21.538
									c4.751,8.235,2.217,10.135-0.95,17.42c-3.167,7.285-0.95,6.018,3.484,18.687
									C378.937,328.649,373.896,345.595,353.454,342.961z"/>
							</g>
						</g>
						<g>
							<g>
								<g>
									<g>
										<g>
											<path style="fill:#E0E0E0;" d="M356.225,343.203c-0.019-0.073-0.031-0.146-0.031-0.225l-2.148-122
												c-0.009-0.522,0.409-0.956,0.931-0.966c0.006,0,0.013,0,0.019,0c0.516,0,0.941,0.415,0.95,0.934l2.147,121.996
												c0.003,0.099-0.013,0.193-0.038,0.285L356.225,343.203z"/>
										</g>
									</g>
								</g>
							</g>
						</g>
					</g>
					<g>
						<g>
							<path style="fill:#E6E6E6;" d="M406.491,333.538h-95.265c-2.74,0-4.634,2.736-3.667,5.3l1.41,3.74l0.89,2.37l2.557,6.788
								l0.894,2.37l2.626,6.971l0.89,2.366l10.479,27.824h63.105l10.479-27.824l0.89-2.366l2.626-6.971l0.894-2.37l2.557-6.788
								l0.89-2.37l1.41-3.74C411.121,336.274,409.227,333.538,406.491,333.538z"/>
						</g>
					</g>
				</g>
			</g>
		</g>
	</g>
<!--	<g>-->
<!--		<g>-->
<!--			<g>-->
<!--				<g>-->
<!--					<g>-->
<!--						<path style="fill:#E0E0E0;" d="M444.166,330.198H263.419c-3.232,0-5.862-2.63-5.862-5.862V61.062-->
<!--							c0-3.232,2.63-5.862,5.862-5.862h180.746c3.232,0,5.862,2.629,5.862,5.862v263.273-->
<!--							C450.028,327.568,447.398,330.198,444.166,330.198z M263.419,55.45c-3.095,0-5.612,2.518-5.612,5.612v263.273-->
<!--							c0,3.095,2.518,5.612,5.612,5.612h180.746c3.095,0,5.612-2.518,5.612-5.612V61.062c0-3.094-2.518-5.612-5.612-5.612H263.419z"-->
<!--							/>-->
<!--					</g>-->
<!--				</g>-->
<!--				<g>-->
<!--					<g>-->
<!--						<path style="fill:#E0E0E0;" d="M235.738,330.198H54.991c-3.232,0-5.862-2.63-5.862-5.862V61.062-->
<!--							c0-3.232,2.629-5.862,5.862-5.862h180.746c3.232,0,5.862,2.629,5.862,5.862v263.273-->
<!--							C241.6,327.568,238.97,330.198,235.738,330.198z M54.991,55.45c-3.094,0-5.612,2.518-5.612,5.612v263.273-->
<!--							c0,3.095,2.518,5.612,5.612,5.612h180.746c3.095,0,5.612-2.518,5.612-5.612V61.062c0-3.094-2.518-5.612-5.612-5.612H54.991z"-->
<!--							/>-->
<!--					</g>-->
<!--				</g>-->
<!--			</g>-->
<!--			<g>-->
<!--				<g>-->
<!--					<polygon style="fill:#E0E0E0;" points="499.755,391.642 -0.245,391.642 0.245,391.267 500.245,391.267 					"/>-->
<!--				</g>-->
<!--			</g>-->
<!--		</g>-->
<!--		<rect x="51.918" y="405.531" style="fill:#E0E0E0;" width="16.06" height="0.25"/>-->
<!--		<rect x="170.598" y="402.821" style="fill:#E0E0E0;" width="53.53" height="0.25"/>-->
<!--		<rect x="68.978" y="414.821" style="fill:#E0E0E0;" width="36.25" height="0.25"/>-->
<!--		<rect x="378.598" y="402.691" style="fill:#E0E0E0;" width="43.19" height="0.25"/>-->
<!--		<rect x="430.697" y="402.691" style="fill:#E0E0E0;" width="6.33" height="0.25"/>-->
<!--		<rect x="316.458" y="408.921" style="fill:#E0E0E0;" width="53.89" height="0.25"/>-->
<!--	</g>-->
	<g>
		<g>
			<path style="fill:#F5F5F5;" d="M132.723,362.921h59.224c0.828,0,1.5-0.672,1.5-1.5v-15.227c0-0.828-0.672-1.5-1.5-1.5h-59.224
				c-0.828,0-1.5,0.672-1.5,1.5v15.227C131.223,362.249,131.895,362.921,132.723,362.921z"/>
		</g>
		<path style="fill:#F5F5F5;" d="M98.783,386.167h59.224c0.828,0,1.5-0.672,1.5-1.5V369.44c0-0.828-0.672-1.5-1.5-1.5H98.783
			c-0.828,0-1.5,0.672-1.5,1.5v15.227C97.283,385.496,97.954,386.167,98.783,386.167z"/>
	</g>
<!--	<g>-->
<!--		<g>-->
<!--			<path style="fill:#F5F5F5;" d="M38.366,61.676H97.59c0.828,0,1.5-0.672,1.5-1.5V44.949c0-0.828-0.672-1.5-1.5-1.5H38.366-->
<!--				c-0.828,0-1.5,0.672-1.5,1.5v15.227C36.866,61.005,37.537,61.676,38.366,61.676z"/>-->
<!--		</g>-->
<!--		<path style="fill:#F5F5F5;" d="M357.357,90.01h59.224c0.828,0,1.5-0.672,1.5-1.5V73.283c0-0.828-0.672-1.5-1.5-1.5h-59.224-->
<!--			c-0.828,0-1.5,0.672-1.5,1.5V88.51C355.857,89.338,356.528,90.01,357.357,90.01z"/>-->
<!--	</g>-->
</g>
<g id="Background_simple" style="display:none;">
	<g style="display:inline;">
		<g>
			<path style="fill:#407BFF;" d="M457.076,213.884c-13.547-36.143-54.654-57.566-93.129-54.475
				c-21.135,1.698-42.432,9.614-63.026,4.568c-29.924-7.331-46.534-38.359-69.671-58.703c-33.526-29.48-85.524-35.755-125.1-15.096
				c-39.576,20.658-64.158,66.906-59.141,111.267c0,0-7.333,159.278,219.608,164.609c31.652,0.743,63.404-4.844,93.816-13.648
				c30.412-8.804,59.691-24.552,79.381-49.345C459.503,278.265,468.188,243.531,457.076,213.884z"/>
		</g>
		<g style="opacity:0.9;">
			<path style="fill:#FFFFFF;" d="M457.076,213.884c-13.547-36.143-54.654-57.566-93.129-54.475
				c-21.135,1.698-42.432,9.614-63.026,4.568c-29.924-7.331-46.534-38.359-69.671-58.703c-33.526-29.48-85.524-35.755-125.1-15.096
				c-39.576,20.658-64.158,66.906-59.141,111.267c0,0-7.333,159.278,219.608,164.609c31.652,0.743,63.404-4.844,93.816-13.648
				c30.412-8.804,59.691-24.552,79.381-49.345C459.503,278.265,468.188,243.531,457.076,213.884z"/>
		</g>
	</g>
</g>
<g id="Shadow">
	<g>
		<g>
			<path style="fill:#F5F5F5;" d="M468.488,446.098c0,3.387-93.516,6.132-208.875,6.132s-208.875-2.745-208.875-6.132
				c0-3.387,93.516-6.132,208.875-6.132S468.488,442.711,468.488,446.098z"/>
		</g>
	</g>
</g>
<g id="Shelf">
	<g>
		<g>
			<g>
				<g>
					<rect x="283.089" y="146.096" style="fill:#407BFF;" width="153.676" height="15.996"/>
					<g>
						<g>
							<polygon style="fill:#407BFF;" points="295.358,162.092 302.389,177.964 312.768,177.964 312.768,162.092 							"/>
							<polygon style="fill:#407BFF;" points="295.358,162.092 302.389,177.964 312.768,177.964 312.768,162.092 							"/>
							<polygon style="opacity:0.3;" points="295.358,162.092 302.389,177.964 312.768,177.964 312.768,162.092 							"/>
						</g>
						<g>
							<polygon style="fill:#407BFF;" points="424.496,162.092 417.465,177.964 407.086,177.964 407.086,162.092 							"/>
							<polygon style="opacity:0.3;" points="424.496,162.092 417.465,177.964 407.086,177.964 407.086,162.092 							"/>
						</g>
					</g>
				</g>
			</g>
		</g>
		<g>
			<g>
				<g>
					<path style="fill:#407BFF;" d="M330.726,106.254V76.41c0-0.398-0.322-0.72-0.721-0.72c-0.398,0-0.721,0.322-0.721,0.72v29.844
						H330.726z"/>
				</g>
			</g>
			<g style="opacity:0.3;">
				<g>
					<path d="M330.726,106.254V76.41c0-0.398-0.322-0.72-0.721-0.72c-0.398,0-0.721,0.322-0.721,0.72v29.844H330.726z"/>
				</g>
			</g>
			<g>
				<g>
					<g>
						<g>
							<polygon style="fill:#263238;" points="317.924,140.553 318.654,143.259 318.808,143.835 319.414,146.083 340.598,146.083 
								341.205,143.835 341.359,143.259 342.089,140.553 342.245,139.977 349.493,113.108 349.648,112.532 350.377,109.825 
								350.533,109.249 351.341,106.254 308.672,106.254 309.48,109.249 309.635,109.825 310.365,112.532 310.52,113.108 
								317.768,139.977 							"/>
						</g>
					</g>
				</g>
			</g>
			<g>
				<g>
					<g>
						<path style="fill:#407BFF;" d="M327.43,86.695c0.868,0.211,1.714-0.151,2.183-0.813c0.163-0.225,0.285-0.484,0.344-0.768
							c0.033-0.144,0.048-0.292,0.048-0.447c0-0.488-0.17-0.957-0.48-1.33c-2.756-3.336-16.705-19.472-23.243-12.723
							C298.379,78.764,319.805,84.84,327.43,86.695z"/>
					</g>
				</g>
				<g style="opacity:0.3;">
					<g>
						<path d="M315.091,77.29l14.522,8.592c0.163-0.225,0.285-0.484,0.344-0.768L315.52,76.57c-0.203-0.118-0.458-0.052-0.576,0.148
							C314.826,76.917,314.892,77.172,315.091,77.29z"/>
					</g>
				</g>
			</g>
			<g>
				<g>
					<g>
						<path style="fill:#407BFF;" d="M330.004,92.65c0,0.155,0.015,0.303,0.048,0.447c0.063,0.284,0.181,0.543,0.344,0.768
							c0.473,0.661,1.319,1.023,2.187,0.813c7.621-1.854,29.047-7.927,21.145-16.08c-6.535-6.745-20.484,9.387-23.243,12.723
							C330.174,91.693,330.004,92.166,330.004,92.65z"/>
					</g>
				</g>
				<g>
					<g>
						<path style="opacity:0.3;" d="M330.052,93.097c0.063,0.284,0.181,0.543,0.344,0.768l14.525-8.593
							c0.196-0.115,0.262-0.373,0.144-0.573c-0.115-0.199-0.373-0.266-0.573-0.148L330.052,93.097z"/>
					</g>
				</g>
			</g>
			<g>
				<g>
					<g>
						<path style="fill:#407BFF;" d="M328.416,76.291c0.059,0.484,0.281,0.931,0.632,1.267c0.111,0.103,0.229,0.196,0.355,0.273
							c0.247,0.151,0.521,0.244,0.798,0.28c0.805,0.111,1.647-0.251,2.095-1.023c3.916-6.793,14.293-26.498,2.94-26.402
							C325.841,50.769,327.902,71.995,328.416,76.291z"/>
					</g>
				</g>
				<g style="opacity:0.3;">
					<g>
						<path d="M329.402,77.832c0.247,0.151,0.521,0.244,0.798,0.28l3.794-16.442c0.052-0.222-0.089-0.447-0.314-0.502
							c-0.225-0.048-0.451,0.089-0.502,0.318L329.402,77.832z"/>
					</g>
				</g>
			</g>
			<g>
				<g>
					<g>
						<path style="fill:#407BFF;" d="M327.43,103.828c0.868,0.211,1.714-0.151,2.183-0.813c0.163-0.225,0.285-0.484,0.344-0.768
							c0.033-0.144,0.048-0.292,0.048-0.447c0-0.484-0.17-0.957-0.48-1.33c-2.756-3.336-16.705-19.468-23.243-12.722
							C298.379,95.901,319.805,101.974,327.43,103.828z"/>
					</g>
				</g>
				<g style="opacity:0.3;">
					<g>
						<path d="M315.091,94.427l14.522,8.589c0.163-0.225,0.285-0.484,0.344-0.768l-14.436-8.544
							c-0.203-0.118-0.458-0.052-0.576,0.148C314.826,94.05,314.892,94.309,315.091,94.427z"/>
					</g>
				</g>
			</g>
		</g>
		<g>
			<g>
				<g>
					<path style="fill:#407BFF;" d="M359.759,134.431h-1.537v-2.295h58.134c1.926,0,3.675,0.779,4.936,2.044
						c1.261,1.261,2.044,3.005,2.044,4.936c0,3.857-3.123,6.98-6.98,6.98h-58.134v-1.987h1.537V134.431z"/>
				</g>
			</g>
			<g>
				<g>
					<path style="fill:#FFFFFF;" d="M359.36,134.431v9.675h53.345c2.604,0,4.712-2.167,4.712-4.835c0-1.339-0.528-2.545-1.38-3.424
						c-0.856-0.874-2.031-1.416-3.333-1.416H359.36z"/>
				</g>
			</g>
			<g>
				<g>
					<path style="fill:#E6E6E6;" d="M359.36,136.88v1.48h51.965c0.405,0,0.737-0.332,0.737-0.738v-0.004
						c0-0.405-0.332-0.738-0.737-0.738H359.36z"/>
				</g>
			</g>
			<g>
				<g>
					<path style="fill:#E6E6E6;" d="M359.36,140.523v1.48h51.965c0.405,0,0.737-0.332,0.737-0.738v-0.004
						c0-0.405-0.332-0.738-0.737-0.738H359.36z"/>
				</g>
			</g>
		</g>
		<g>
			<g>
				<g>
					<path style="fill:#407BFF;" d="M359.759,120.471h-1.537v-2.295h58.134c1.926,0,3.675,0.779,4.936,2.044
						c1.261,1.261,2.044,3.005,2.044,4.936c0,3.856-3.123,6.98-6.98,6.98h-58.134v-1.987h1.537V120.471z"/>
				</g>
			</g>
			<g style="opacity:0.3;">
				<g>
					<path d="M359.759,120.471h-1.537v-2.295h58.134c1.926,0,3.675,0.779,4.936,2.044c1.261,1.261,2.044,3.005,2.044,4.936
						c0,3.856-3.123,6.98-6.98,6.98h-58.134v-1.987h1.537V120.471z"/>
				</g>
			</g>
			<g>
				<g>
					<path style="fill:#FFFFFF;" d="M359.36,120.471v9.675h53.345c2.604,0,4.712-2.167,4.712-4.835c0-1.339-0.528-2.545-1.38-3.424
						c-0.856-0.874-2.031-1.416-3.333-1.416H359.36z"/>
				</g>
			</g>
			<g>
				<g>
					<path style="fill:#E6E6E6;" d="M359.36,122.921v1.48h51.965c0.405,0,0.737-0.332,0.737-0.738v-0.005
						c0-0.405-0.332-0.737-0.737-0.737H359.36z"/>
				</g>
			</g>
			<g>
				<g>
					<path style="fill:#E6E6E6;" d="M359.36,126.563v1.48h51.965c0.405,0,0.737-0.332,0.737-0.738v-0.005
						c0-0.405-0.332-0.737-0.737-0.737H359.36z"/>
				</g>
			</g>
		</g>
	</g>
</g>
<g id="Cat_3">
	<g>
		<g>
			<g>
				<path style="fill:#263238;" d="M375.898,416.714c6.186-2.182,11.355-6.143,14.332-10.982c3.173-5.157,3.832-11.079,3.512-16.816
					c-0.319-5.737-1.559-11.421-1.965-17.155c-0.142-2.006-0.076-4.246,1.667-5.698c2.392-1.992,6.859-1.317,9.235,0.688
					c2.376,2.004,3.175,4.859,3.752,7.577c1.923,9.058,2.442,18.408,0.071,27.398c-2.371,8.991-7.791,17.628-16.403,23.738
					c-8.612,6.111-20.576,9.452-31.943,7.901l-2.1-15.577C362.557,419.284,369.712,418.897,375.898,416.714z"/>
			</g>
			<g style="opacity:0.3;">
				<path style="fill:#FFFFFF;" d="M375.898,416.714c6.186-2.182,11.355-6.143,14.332-10.982c3.173-5.157,3.832-11.079,3.512-16.816
					c-0.319-5.737-1.559-11.421-1.965-17.155c-0.142-2.006-0.076-4.246,1.667-5.698c2.392-1.992,6.859-1.317,9.235,0.688
					c2.376,2.004,3.175,4.859,3.752,7.577c1.923,9.058,2.442,18.408,0.071,27.398c-2.371,8.991-7.791,17.628-16.403,23.738
					c-8.612,6.111-20.576,9.452-31.943,7.901l-2.1-15.577C362.557,419.284,369.712,418.897,375.898,416.714z"/>
			</g>
			<path style="opacity:0.3;" d="M367.674,418.507c0,0-5.244,7.62-4.823,7.901c0.421,0.281,4.896,7.719,4.896,7.719l3.044-0.623
				v-15.436L367.674,418.507z"/>
			<path style="fill:#263238;" d="M363.486,426.084c-0.2,0.561,5.436,3.741,4.262,8.044c-1.174,4.302-0.584,4.115-2.053,4.49
				c-1.469,0.374-28.571,3.836-30.215,2.527c-1.644-1.309-33.816-5.238-34.05-4.676c-0.235,0.561-11.976,3.367-15.968,3.367
				s-9.393,0.935-10.567-2.993c-1.174-3.928,0.235-6.11,4.227-9.041c3.992-2.931,5.401-3.866,5.401-3.866s-8.105-0.561-7.458-6.921
				c0.648-6.36,2.532-11.553,3.231-13.281c0.698-1.728,11.507-26.563,11.507-26.563l-11.272-31.8c0,0,1.409-8.418,0.235-13.656
				c-1.174-5.238-1.879-7.857-1.879-7.857h56.124c0,0,10.103,22.556,15.317,35.237s20.465,18.671,20.465,46.816
				C370.792,415.707,363.486,426.084,363.486,426.084z"/>
			<path style="opacity:0.3;fill:#FFFFFF;" d="M363.486,426.084c-0.2,0.561,5.436,3.741,4.262,8.044
				c-1.174,4.302-0.584,4.115-2.053,4.49c-1.469,0.374-28.571,3.836-30.215,2.527c-1.644-1.309-33.816-5.238-34.05-4.676
				c-0.235,0.561-11.976,3.367-15.968,3.367s-9.393,0.935-10.567-2.993c-1.174-3.928,0.235-6.11,4.227-9.041
				c3.992-2.931,5.401-3.866,5.401-3.866s-8.105-0.561-7.458-6.921c0.648-6.36,2.532-11.553,3.231-13.281
				c0.698-1.728,11.507-26.563,11.507-26.563l-11.272-31.8c0,0,1.409-8.418,0.235-13.656c-1.174-5.238-1.879-7.857-1.879-7.857
				h56.124c0,0,10.103,22.556,15.317,35.237s20.465,18.671,20.465,46.816C370.792,415.707,363.486,426.084,363.486,426.084z"/>
			<path style="opacity:0.3;" d="M307.903,436.91c-0.149-0.016,1.322-52.08,1.379-52.661c0.547-5.625,7.295-2.713,6.262,3.079
				l-0.979,49.948L307.903,436.91z"/>
			<path style="fill:#263238;" d="M279.887,346.262c0,0-2.236,4.64-2.731,16.068c-0.495,11.428,0.99,34.286,4.947,42.561
				c3.958,8.276,11.873,20.887,11.379,27.98c0,0-3.478,6.289-0.948,9.537c2.531,3.248,10.545,0.784,10.545,0.784
				s3.277-3.707,4.824-6.283c1.547-2.576,1.925-31.126,1.925-31.126l-1.968-32.48L279.887,346.262z"/>
			<path style="opacity:0.3;fill:#FFFFFF;" d="M279.887,346.262c0,0-2.236,4.64-2.731,16.068
				c-0.495,11.428,0.99,34.286,4.947,42.561c3.958,8.276,11.873,20.887,11.379,27.98c0,0-3.478,6.289-0.948,9.537
				c2.531,3.248,10.545,0.784,10.545,0.784s3.277-3.707,4.824-6.283c1.547-2.576,1.925-31.126,1.925-31.126l-1.968-32.48
				L279.887,346.262z"/>
			<path style="fill:none;" d="M337.227,333.236c0,0,18.897,33.966,20.351,46.317c1.454,12.351,0,48.247,0,48.247"/>
			<g style="opacity:0.3;">
				<path d="M331.966,434.681c8.004-20.163,16.528-40.56,19.016-62.11c3.644,11.43,0.707,23.935-3.814,35.047
					c-4.521,11.112-13.059,21.646-16.076,33.257L331.966,434.681z"/>
			</g>
			<path style="fill:#263238;" d="M315.567,386.709c0,0-1.48,40.447-3.759,47.443c-2.279,6.996-4.308,7.215,0,11.369
				c4.308,4.154,20.501,2.161,20.501-1.434s-0.823-10.154,0-10.81c0.823-0.656,10.43-25.58,12.351-34.544
				c1.921-8.964,4.666-11.15,1.647-18.584s-5.764-15.96-6.587-16.179C338.896,363.753,315.567,386.709,315.567,386.709z"/>
			<path style="opacity:0.3;fill:#FFFFFF;" d="M315.567,386.709c0,0-1.48,40.447-3.759,47.443c-2.279,6.996-4.308,7.215,0,11.369
				c4.308,4.154,20.501,2.161,20.501-1.434s-0.823-10.154,0-10.81c0.823-0.656,10.43-25.58,12.351-34.544
				c1.921-8.964,4.666-11.15,1.647-18.584s-5.764-15.96-6.587-16.179C338.896,363.753,315.567,386.709,315.567,386.709z"/>
			<path style="opacity:0.3;" d="M288.771,439.517c0,0,1.408-3.794,1.1-7.954c-0.308-4.16-1.727-10.846-5.142-16.607
				c-5.088-8.583-5.088-18.357-5.088-18.357l1.932,6.506c0.367,1.237,0.837,2.433,1.409,3.59
				c4.056,8.216,10.268,19.581,9.808,26.176l-1.167,6.157L288.771,439.517z"/>
			<g>
				<path style="opacity:0.3;" d="M293.216,293.523c0,0,11.367-7.697,23.806,1.242c7.125,5.12,18.152,12.411,22.115,20.592
					c2.955,6.101,3.333,16.383,1.589,19.547c-3.55,6.441-7.493,16.861-22.225,23.434c-14.731,6.573-28.767-2.516-35.308-8.501
					c-6.541-5.985-4.821-10.811-4.15-14.616c0.672-3.805-5.944-24.249,0.521-32.033C286.03,295.403,293.216,293.523,293.216,293.523
					z"/>
				<g>
					<path style="fill:#263238;" d="M313.262,276.551c0,0,15.947-21.765,20.667-20.857c4.721,0.908,15.156,28.254,8.02,42.443
						l-6.329,4.575l-17.425-14.326L313.262,276.551z"/>
					<path style="opacity:0.3;fill:#FFFFFF;" d="M313.262,276.551c0,0,15.947-21.765,20.667-20.857
						c4.721,0.908,15.156,28.254,8.02,42.443l-6.329,4.575l-17.425-14.326L313.262,276.551z"/>
					<path style="fill:#263238;" d="M288.635,281.983c-0.394-0.43-26.267-23.923-31.684-13.435
						c-5.417,10.488,4.209,41.068,9.633,47.593C272.008,322.667,288.635,281.983,288.635,281.983z"/>
					<path style="opacity:0.3;fill:#FFFFFF;" d="M288.635,281.983c-0.394-0.43-26.267-23.923-31.684-13.435
						c-5.417,10.488,4.209,41.068,9.633,47.593C272.008,322.667,288.635,281.983,288.635,281.983z"/>
					<path style="fill:#263238;" d="M299.034,277.292c0,0,18.177-5.186,30.629,7.662c7.133,7.36,15.712,17.464,17.394,27.247
						c1.254,7.296,0.074,18.978-3.564,21.889c-7.406,5.927-17.033,15.994-39.132,19.086c-22.099,3.092-36.577-10.342-42.575-18.469
						c-5.998-8.127-1.679-12.818,0.831-16.699c2.51-3.881,2.61-27.454,14.407-34.039
						C288.821,277.384,299.034,277.292,299.034,277.292z"/>
					<path style="opacity:0.3;fill:#FFFFFF;" d="M299.034,277.292c0,0,18.177-5.186,30.629,7.662
						c7.133,7.36,15.712,17.464,17.394,27.247c1.254,7.296,0.074,18.978-3.564,21.889c-7.406,5.927-17.033,15.994-39.132,19.086
						c-22.099,3.092-36.577-10.342-42.575-18.469c-5.998-8.127-1.679-12.818,0.831-16.699c2.51-3.881,2.61-27.454,14.407-34.039
						C288.821,277.384,299.034,277.292,299.034,277.292z"/>
					<g style="opacity:0.3;">
						<path d="M290.997,279.873c1.256,5.808,2.414,11.699,2.249,17.64c-0.165,5.94-1.758,12.004-5.488,16.631
							c-3.73,4.626-9.822,7.567-15.681,6.572c-2.966-0.504-5.96-2.218-6.961-5.055c-0.884-2.503-0.058-5.253,0.794-7.767
							c2.238-6.6,4.724-13.247,8.947-18.79c4.223-5.544,10.47-9.918,17.426-10.351"/>
					</g>
					<g>
						<path style="fill:#263238;" d="M318.815,324.086c7.936-2.038,16.106-3.025,24.266-3.641c8.162-0.442,16.44-0.596,24.51,0.871
							l-3.057-0.217C349.25,320.457,333.928,321.846,318.815,324.086L318.815,324.086z"/>
					</g>
					<g>
						<path style="fill:#263238;" d="M319.109,327.898c7.181-0.084,14.356,0.462,21.481,1.341c7.09,0.992,14.298,2.126,20.942,4.894
							C347.737,330.372,333.282,329.448,319.109,327.898L319.109,327.898z"/>
					</g>
					<g>
						<path style="fill:#263238;" d="M266.928,328.123c-8.071,0.177-16.089,1.677-23.594,4.66l-1.613,0.64
							c-0.528,0.236-1.062,0.462-1.603,0.68c0.97-0.645,1.99-1.205,3.013-1.767C250.404,328.638,258.823,327.02,266.928,328.123
							L266.928,328.123z"/>
					</g>
					<g>
						<path style="fill:#263238;" d="M267.461,332.672c-7.922,1.729-15.467,4.201-22.884,7.477
							C251.303,335.651,259.378,333.019,267.461,332.672L267.461,332.672z"/>
					</g>
					<g>
						<path style="fill:#263238;" d="M280.653,301.12c-0.251,0.178-0.565,0.25-0.878,0.173c-4.884-1.202-7.938,1.86-7.974,1.895
							c-0.452,0.455-1.166,0.452-1.594-0.03c-0.426-0.482-0.403-1.248,0.051-1.715c0.159-0.161,3.99-4.009,10.051-2.515
							c0.604,0.149,0.974,0.8,0.828,1.452C281.066,300.695,280.887,300.953,280.653,301.12z"/>
						<g>
							<path style="fill:#263238;" d="M281.358,314.351c0.354,4.115-1.477,7.782-4.09,8.19c-2.612,0.409-5.017-2.595-5.371-6.709
								c-0.355-4.114,1.476-7.782,4.089-8.191C278.597,307.232,281.002,310.236,281.358,314.351z"/>
							<path style="fill:#FFFFFF;" d="M276.012,317.162c0.01,1.396-0.423,2.531-0.967,2.535c-0.544,0.004-0.993-1.125-1.003-2.521
								s0.423-2.531,0.967-2.535C275.553,314.637,276.002,315.766,276.012,317.162z"/>
						</g>
					</g>
					<g>
						<path style="fill:#263238;" d="M312.278,298.998c-0.283,0.12-0.605,0.123-0.894-0.019c-4.512-2.222-8.152,0.113-8.194,0.14
							c-0.539,0.347-1.236,0.191-1.55-0.371c-0.313-0.562-0.126-1.305,0.418-1.664c0.19-0.123,4.757-3.059,10.356-0.299
							c0.558,0.275,0.78,0.99,0.497,1.596C312.773,298.672,312.543,298.886,312.278,298.998z"/>
						<g>
							<path style="fill:#263238;" d="M313.09,311.125c0.354,4.115-1.477,7.782-4.09,8.19c-2.612,0.409-5.017-2.595-5.371-6.709
								c-0.355-4.114,1.476-7.782,4.089-8.191C310.33,304.006,312.734,307.01,313.09,311.125z"/>
							<path style="fill:#FFFFFF;" d="M307.261,313.936c0.01,1.396-0.423,2.531-0.967,2.535c-0.544,0.004-0.993-1.125-1.003-2.521
								c-0.01-1.396,0.423-2.531,0.967-2.535C306.802,311.411,307.251,312.54,307.261,313.936z"/>
						</g>
					</g>
					<g>
						<path style="fill:#263238;" d="M288.106,320.683c0.413-0.313,1.544-0.623,2.041-0.769c2.931-0.862,7.312-1.223,7.521,0.131
							c-0.975,2.439-1.479,2.778-2.194,3.508c-0.715,0.73-1.997,1.111-3.016,1.026c-0.781-0.065-1.496-0.253-2.171-0.65
							c-0.657-0.387-1.008-0.773-1.665-1.161c-0.226-0.133-0.757-0.495-0.893-0.719
							C287.459,321.607,287.694,320.997,288.106,320.683z"/>
					</g>
					<path style="opacity:0.3;" d="M301.738,328.022c0,0-4.105,4.205-6.003,2.513c-1.898-1.693-1.898-1.693-1.898-1.693
						s-1.811,3.627-4.703,2.711c-2.892-0.916-3.715-3.669-3.715-3.669s2.471,2.828,4.789,1.682c2.317-1.146,2.7-6.968,2.7-6.968
						s1.592,5.79,4.72,6.057C300.754,328.923,301.738,328.022,301.738,328.022z"/>
					<g>
						<path style="fill:#263238;" d="M302.724,325.233c-2.196,6.5-7.594,5.236-9.787-0.483c0,0,0.941-0.116,0.941-0.116
							c-0.224,1.143-0.461,2.347-1.032,3.473c-1.175,2.476-4.33,3.558-6.302,1.288c-0.819-0.88-1.447-1.849-2.391-2.556
							c1.075,0.512,1.847,1.485,2.73,2.191c1.767,1.777,4.225,0.696,5.11-1.351c0.671-1.371,0.877-3.229,1.203-4.772
							c0.652,1.4,1.304,3.088,2.226,4.266C298.191,330.563,301.077,328.397,302.724,325.233L302.724,325.233z"/>
					</g>
					<path style="opacity:0.3;" d="M333.986,293.705c0,0-4.793-3.677-5.191-6.256c-0.398-2.579,0.576-4.388,0.576-4.388l-4.1,3.083
						l-4.598-5.893c0,0,9.989-18.408,12.57-15.373c2.581,3.035,5.389,14.187,4.59,21.969
						C337.034,294.629,333.986,293.705,333.986,293.705z"/>
					<g style="opacity:0.3;">
						<path d="M260.886,276.161c-0.047-1.035-0.023-2.191,0.694-2.939c0.888-0.927,2.394-0.785,3.636-0.46
							c4.596,1.203,9.726,5.372,12.547,9.194c-5.341,5.6-8.012,10.303-11.307,17.044
							C263.144,291.844,261.24,284.039,260.886,276.161z"/>
					</g>
				</g>
				<path style="fill:#263238;" d="M301.35,331.2"/>
			</g>
		</g>
	</g>
</g>
<g id="Cat_4">
	<g>
		<g>
			<path style="fill:#407BFF;" d="M369.6,401.655c-0.266,0.628-4.067,14.866-2.349,20.469c1.717,5.603,4.468,7.657,3.715,11.095
				c-0.753,3.438-7.533,15.886-4.732,21.41c2.801,5.523,5.207,0.386,5.207,0.386s3.235-12.138,7.604-15.674
				c4.369-3.536,5.572-6.105,5.572-6.105l3.426-19.149L369.6,401.655z"/>
			<path style="opacity:0.4;" d="M369.6,401.655c-0.266,0.628-4.067,14.866-2.349,20.469c1.717,5.603,4.468,7.657,3.715,11.095
				c-0.753,3.438-7.533,15.886-4.732,21.41c2.801,5.523,5.207,0.386,5.207,0.386s3.235-12.138,7.604-15.674
				c4.369-3.536,5.572-6.105,5.572-6.105l3.426-19.149L369.6,401.655z"/>
			<g>
				<path style="fill:#407BFF;" d="M404.295,421.846c-0.064,0.671-4.066,8.201,1.714,13.308c5.78,5.107,10.992,8.148,10.992,8.148
					s-4.633,6.134-4.193,8.385c0.44,2.25,3.124,0.866,5.175-0.757c2.051-1.623,8.305-4.53,8.912-8.004
					c0.607-3.475-2.995-4.536-3.1-7.695c-0.106-3.159,5.557-4.814,4.15-11.057c-1.407-6.243-5.078-9.013-5.078-9.013
					L404.295,421.846z"/>
				<path style="opacity:0.4;" d="M404.295,421.846c-0.064,0.671-4.066,8.201,1.714,13.308c5.78,5.107,10.992,8.148,10.992,8.148
					s-4.633,6.134-4.193,8.385c0.44,2.25,3.124,0.866,5.175-0.757c2.051-1.623,8.305-4.53,8.912-8.004
					c0.607-3.475-2.995-4.536-3.1-7.695c-0.106-3.159,5.557-4.814,4.15-11.057c-1.407-6.243-5.078-9.013-5.078-9.013
					L404.295,421.846z"/>
			</g>
			<path style="fill:#407BFF;" d="M359.576,387.224c1.613-4.984-1.451,13.827,4.043,26.464c5.494,12.637,11.802,16.819,19.099,19.43
				c7.297,2.611,45.414-3.672,45.414-3.672s24.928-7.608,25.369-13.19c0.441-5.582-1.572-13.21-5.485-19.57
				c-3.913-6.36-13.682-11.156-26.549-9.981c-12.867,1.175-20.299,2.449-25.82-2.355c-5.521-4.803-6.821-7.205-6.821-7.205
				L359.576,387.224z"/>
			<path style="opacity:0.3;fill:#FFFFFF;" d="M389.495,425.724c-11.464-0.907-10.622-7.838-15.155-15.686
				c-4.533-7.848-13.467-7.066-13.467-7.066l-0.03,0.176c0.505,3.58,1.353,7.267,2.776,10.54
				c5.494,12.637,11.802,16.819,19.099,19.43c4.601,1.646,21.457-0.244,33.283-1.865
				C416.559,427.988,400.933,426.629,389.495,425.724z"/>
			<g>
				<path style="fill:#407BFF;" d="M441.301,391.307c2.285-4.605,1.226-10.266,0.315-15.438c-1.184-6.721-2.02-13.577-1.527-20.386
					c0.493-6.809,2.39-13.616,6.217-18.978c1.873-2.624,4.254-4.914,7.126-6.019c2.872-1.105,6.277-0.877,8.743,1.112
					c3.287,2.651,4.193,7.826,3.136,12.121c-1.057,4.295-3.696,7.878-6.433,11.15c-2.736,3.273-5.678,6.437-7.57,10.366
					c-1.982,4.116-2.692,8.844-2.877,13.508c-0.185,4.664,0.126,9.34,0.047,14.009c-0.041,2.415-0.288,5.076-1.892,6.717"/>
			</g>
			<path style="fill:#407BFF;" d="M419.944,421.707c0.359,0.444,13.264,15.257,23.675,15.387
				c10.412,0.131,13.372-2.617,13.372-2.617s6.066,11.845,6.985,12.041c0.919,0.196,4.107,0.391,3.585-3.666
				c-0.523-4.057-2.219-14.888-3.653-16.663c-1.434-1.775-4.203,0.119-5.974-1.937c-1.771-2.056-3.867-13.696-4.922-14.844
				C451.958,408.26,419.944,421.707,419.944,421.707z"/>
			<path style="opacity:0.3;" d="M379.417,431.601c0,0,1.765-1.845,0.937-5.23c-0.828-3.385-2.27-4.68-1.78-9.701
				c0.491-5.021,6.208-14.816,6.208-14.816s0.938,27.219,0.786,27.564c-0.152,0.345-4.237,3.632-4.237,3.632L379.417,431.601z"/>
			<path style="fill:#407BFF;" d="M386.058,399.289c-0.381,0.552-6.84,13.568-6.235,19.432c0.605,5.864,2.903,8.505,1.505,11.685
				s-10.43,13.762-8.749,19.8c1.681,6.037,5.024,1.58,5.024,1.58s5.501-11.098,10.459-13.539c4.958-2.441,6.63-4.67,6.63-4.67
				l7.035-17.896L386.058,399.289z"/>
			<polygon style="opacity:0.3;" points="397.26,433.364 401.323,416.711 394.692,433.577 			"/>
			<path style="opacity:0.3;" d="M428.131,429.446l-8.96-13.744C419.171,415.702,419.899,425.765,428.131,429.446z"/>
			<path style="opacity:0.3;" d="M441.616,390.615c0,0,4.864,3.111,6.669,6.519l0.069-2.173l-6.386-5.306L441.616,390.615z"/>
		</g>
		<g>
			<path style="opacity:0.3;" d="M366.439,366.448c0,0,9.193-4.704,17.416,1.753c4.71,3.698,12.068,8.999,14.123,14.62
				c1.533,4.192,0.724,11.079-0.896,13.126c-3.298,4.168-7.306,10.978-18.86,14.801c-11.553,3.822-20.938-2.797-25.126-7.05
				s-2.41-7.413-1.513-9.93c0.898-2.517-1.817-16.437,3.772-21.389C360.943,367.426,366.439,366.448,366.439,366.448z"/>
			<g>
				<path style="fill:#407BFF;" d="M377.599,357.765c0,0,11.911-13.181,14.941-12.269c3.031,0.913,8.024,19.527,2.395,28.34
					l-4.453,2.571l-10.448-10.557L377.599,357.765z"/>
				<path style="fill:#407BFF;" d="M361.103,359.664c-0.229-0.308-15.593-17.438-19.847-10.933
					c-4.254,6.505-0.009,27.182,3.104,31.821C347.473,385.191,361.103,359.664,361.103,359.664z"/>
				<path style="fill:#407BFF;" d="M368.23,357.292c0,0,12.255-2.173,19.546,7.081c4.176,5.301,10.863,13.08,11.305,19.601
					c0.33,4.863-2.977,11.851-5.556,13.513c-5.25,3.384-12.233,9.329-26.916,9.866s-23.261-9.237-26.642-14.964
					c-3.381-5.727-0.236-8.509,1.669-10.882c1.905-2.373,3.558-17.806,11.729-21.324C361.535,356.665,368.23,357.292,368.23,357.292
					z"/>
				<g>
					<path style="fill:#263238;" d="M378.035,389.273c10.613-1.576,21.768-1.489,32.134,1.47
						C399.547,389.142,388.757,389.062,378.035,389.273L378.035,389.273z"/>
				</g>
				<g>
					<path style="fill:#263238;" d="M377.971,391.79c9.348,0.845,19.007,2.489,27.366,6.941
						C396.752,395.641,386.857,393.917,377.971,391.79L377.971,391.79z"/>
				</g>
				<g>
					<path style="fill:#263238;" d="M343.778,388.423c-6.148-0.267-12.044,0.431-17.963,2.112
						C331.173,387.541,337.872,386.759,343.778,388.423L343.778,388.423z"/>
				</g>
				<g>
					<path style="fill:#263238;" d="M343.821,391.439c-5.3,0.837-10.32,1.93-15.492,3.356
						C332.939,392.083,338.502,390.883,343.821,391.439L343.821,391.439z"/>
				</g>
				<g>
					<path style="fill:#263238;" d="M354.586,371.66c-0.176,0.1-0.387,0.126-0.586,0.055c-3.118-1.116-5.325,0.683-5.35,0.704
						c-0.327,0.268-0.794,0.217-1.042-0.127c-0.247-0.344-0.18-0.845,0.149-1.12c0.115-0.095,2.883-2.357,6.753-0.97
						c0.385,0.138,0.584,0.589,0.444,1.007C354.885,371.41,354.751,371.568,354.586,371.66z"/>
					<g>
						<path style="fill:#263238;" d="M354.157,380.374c-0.045,2.719-1.492,4.997-3.231,5.089c-1.738,0.092-3.111-2.037-3.066-4.756
							c0.045-2.719,1.491-4.997,3.23-5.09C352.828,375.526,354.201,377.655,354.157,380.374z"/>
						<path style="fill:#FFFFFF;" d="M350.806,378.544c-0.088,0.915-0.448,1.629-0.804,1.595c-0.357-0.034-0.574-0.804-0.487-1.719
							c0.088-0.915,0.448-1.629,0.804-1.595C350.676,376.859,350.894,377.629,350.806,378.544z"/>
					</g>
				</g>
				<g>
					<path style="fill:#263238;" d="M375.443,372.401c-0.193,0.059-0.405,0.04-0.584-0.073c-2.806-1.759-5.347-0.475-5.377-0.46
						c-0.376,0.191-0.822,0.042-0.99-0.347c-0.167-0.389,0.005-0.863,0.386-1.062c0.133-0.068,3.322-1.683,6.803,0.501
						c0.347,0.218,0.444,0.701,0.218,1.079C375.789,372.22,375.624,372.345,375.443,372.401z"/>
					<g>
						<path style="fill:#263238;" d="M375.158,380.398c-0.045,2.719-1.491,4.997-3.231,5.089c-1.738,0.092-3.111-2.037-3.066-4.756
							c0.045-2.718,1.491-4.997,3.23-5.089C373.83,375.55,375.202,377.679,375.158,380.398z"/>
						<path style="fill:#FFFFFF;" d="M371.808,378.568c-0.088,0.915-0.448,1.629-0.804,1.595c-0.357-0.034-0.575-0.804-0.487-1.719
							c0.088-0.915,0.448-1.629,0.804-1.595C371.677,376.883,371.895,377.653,371.808,378.568z"/>
					</g>
				</g>
				<g>
					<path style="fill:#263238;" d="M358.151,384.977c0.291-0.177,1.053-0.304,1.388-0.366c1.978-0.367,4.872-0.309,4.917,0.592
						c-0.803,1.532-1.156,1.72-1.673,2.15c-0.518,0.43-1.383,0.593-2.045,0.469c-0.507-0.095-0.963-0.266-1.378-0.572
						c-0.404-0.298-0.608-0.574-1.012-0.872c-0.139-0.102-0.462-0.375-0.536-0.531C357.664,385.538,357.859,385.154,358.151,384.977
						z"/>
				</g>
				<path style="opacity:0.3;" d="M366.585,390.701c0,0-2.972,2.478-4.101,1.241c-1.129-1.236-1.129-1.236-1.129-1.236
					s-1.43,2.254-3.263,1.459c-1.832-0.795-2.186-2.653-2.186-2.653s1.428,2.019,3.023,1.424c1.595-0.595,2.237-4.382,2.237-4.382
					s0.653,3.9,2.683,4.285C365.88,391.225,366.585,390.701,366.585,390.701z"/>
				<g>
					<path style="fill:#263238;" d="M367.418,388.941c-1.738,4.301-5.496,3.038-6.539-0.92c0,0,0.948-0.019,0.948-0.019
						c-0.225,0.734-0.467,1.52-0.935,2.243c-0.958,1.59-3.298,2.12-4.416,0.388c-0.463-0.66-0.785-1.334-1.33-1.891
						c0.695,0.376,1.16,1.07,1.705,1.563c1.035,1.178,2.571,0.643,3.236-0.572c0.565-0.926,0.887-2.458,1.242-3.535
						c0.365,1.054,0.749,2.523,1.31,3.434C364.085,391.964,366.14,390.746,367.418,388.941L367.418,388.941z"/>
				</g>
				<path style="opacity:0.3;" d="M390.018,370.396c0,0-2.891-2.731-2.978-4.447c-0.087-1.716,0.673-2.836,0.673-2.836l-2.893,1.743
					l-2.615-4.169c0,0,6.015-11.092,7.501-8.93c1.486,2.162,4.341,9.363,3.294,14.406
					C391.952,371.207,390.018,370.396,390.018,370.396z"/>
				<g style="opacity:0.3;">
					<path d="M353.985,358.914c-3.876,3.309-5.941,6.209-8.554,10.402c-1.688-4.91-2.409-10.15-2.111-15.334
						c0.039-0.681,0.133-1.436,0.652-1.878c0.644-0.547,1.621-0.353,2.413-0.057"/>
				</g>
			</g>
			<path style="fill:#E28888;" d="M374.247,387.864c0.342,0.983,2.1,1.264,3.927,0.627c1.827-0.636,3.03-1.948,2.688-2.931
				c-0.342-0.983-2.1-1.263-3.927-0.627C375.109,385.569,373.905,386.881,374.247,387.864z"/>
			<path style="fill:#E28888;" d="M345.584,388.421c-0.035,1.04,1.503,1.936,3.436,2.002s3.529-0.724,3.564-1.764
				c0.035-1.04-1.503-1.936-3.436-2.002C347.215,386.591,345.62,387.381,345.584,388.421z"/>
			<path style="fill:#263238;" d="M366.116,392.757"/>
		</g>
		<g style="opacity:0.3;">
			<path d="M367.419,367.417c-0.184-0.103-0.403-0.118-0.614-0.128c-1.321-0.065-2.646-0.058-3.967,0.021
				c-0.569,0.034-1.146,0.084-1.682,0.276c-0.143,0.051-0.302,0.135-0.328,0.285c-0.05,0.285,0.552,0.803,0.866,0.951l-0.071-0.059
				c0.789,0.686,1.907,0.919,2.942,0.772c1.035-0.148,1.995-0.643,2.835-1.266c0.118-0.087,0.24-0.186,0.281-0.327
				C367.74,367.74,367.603,367.521,367.419,367.417z"/>
		</g>
		<g style="opacity:0.3;">
			<path d="M370.065,360.268c-0.31-0.174-0.678-0.198-1.033-0.216c-2.222-0.11-4.449-0.098-6.669,0.036
				c-0.957,0.058-1.926,0.141-2.829,0.464c-0.241,0.086-0.507,0.227-0.552,0.479c-0.084,0.479,0.928,1.351,1.456,1.599l-0.12-0.1
				c1.327,1.153,3.206,1.545,4.946,1.297c1.74-0.248,3.354-1.081,4.766-2.129c0.198-0.146,0.403-0.313,0.473-0.549
				C370.605,360.81,370.374,360.442,370.065,360.268z"/>
		</g>
	</g>
</g>
<g id="Cat_2">
	<g>
		<g>
			<g>
				<path style="fill:#407BFF;" d="M191.022,433.706c-3.852-1.359-7.07-3.825-8.925-6.838c-1.976-3.211-2.386-6.899-2.187-10.471
					c0.199-3.573,0.971-7.112,1.223-10.682c0.089-1.249,0.048-2.644-1.038-3.548c-1.49-1.241-4.271-0.82-5.751,0.428
					c-1.48,1.248-1.977,3.026-2.336,4.718c-1.198,5.64-1.521,11.462-0.044,17.06c1.477,5.598,4.852,10.977,10.214,14.781
					c5.362,3.805,12.812,5.886,19.89,4.92l1.308-9.7C199.329,435.305,194.874,435.064,191.022,433.706z"/>
			</g>
			<g style="opacity:0.3;">
				<path style="fill:#FFFFFF;" d="M191.022,433.706c-3.852-1.359-7.07-3.825-8.925-6.838c-1.976-3.211-2.386-6.899-2.187-10.471
					c0.199-3.573,0.971-7.112,1.223-10.682c0.089-1.249,0.048-2.644-1.038-3.548c-1.49-1.241-4.271-0.82-5.751,0.428
					c-1.48,1.248-1.977,3.026-2.336,4.718c-1.198,5.64-1.521,11.462-0.044,17.06c1.477,5.598,4.852,10.977,10.214,14.781
					c5.362,3.805,12.812,5.886,19.89,4.92l1.308-9.7C199.329,435.305,194.874,435.064,191.022,433.706z"/>
			</g>
			<path style="opacity:0.3;" d="M196.143,434.822c0,0,3.265,4.745,3.003,4.92c-0.262,0.175-3.049,4.807-3.049,4.807l-1.896-0.388
				v-9.612L196.143,434.822z"/>
			<path style="fill:#407BFF;" d="M198.751,439.54c0.124,0.349-3.385,2.33-2.654,5.009c0.731,2.679,0.363,2.563,1.278,2.796
				c0.915,0.233,17.791,2.389,18.814,1.573c1.024-0.815,21.057-3.262,21.203-2.912c0.146,0.349,7.458,2.097,9.943,2.097
				c2.486,0,5.849,0.582,6.58-1.864c0.731-2.446-0.146-3.804-2.632-5.63c-2.486-1.825-3.363-2.408-3.363-2.408
				s5.047-0.349,4.644-4.31c-0.403-3.96-1.577-7.194-2.012-8.27c-0.435-1.076-7.165-16.54-7.165-16.54l7.019-19.802
				c0,0-0.877-5.242-0.146-8.503c0.731-3.262,1.17-4.892,1.17-4.892h-34.948c0,0-6.291,14.045-9.538,21.941
				c-3.246,7.896-12.743,11.626-12.743,29.152C194.201,433.078,198.751,439.54,198.751,439.54z"/>
			<path style="opacity:0.3;fill:#FFFFFF;" d="M198.751,439.54c0.124,0.349-3.385,2.33-2.654,5.009
				c0.731,2.679,0.363,2.563,1.278,2.796c0.915,0.233,17.791,2.389,18.814,1.573c1.024-0.815,21.057-3.262,21.203-2.912
				c0.146,0.349,7.458,2.097,9.943,2.097c2.486,0,5.849,0.582,6.58-1.864c0.731-2.446-0.146-3.804-2.632-5.63
				c-2.486-1.825-3.363-2.408-3.363-2.408s5.047-0.349,4.644-4.31c-0.403-3.96-1.577-7.194-2.012-8.27
				c-0.435-1.076-7.165-16.54-7.165-16.54l7.019-19.802c0,0-0.877-5.242-0.146-8.503c0.731-3.262,1.17-4.892,1.17-4.892h-34.948
				c0,0-6.291,14.045-9.538,21.941c-3.246,7.896-12.743,11.626-12.743,29.152C194.201,433.078,198.751,439.54,198.751,439.54z"/>
			<path style="opacity:0.3;" d="M233.362,446.281c0.093-0.01-0.823-32.43-0.858-32.792c-0.34-3.503-4.542-1.689-3.899,1.917
				l0.609,31.102L233.362,446.281z"/>
			<path style="fill:#407BFF;" d="M250.807,389.836c0,0,1.392,2.889,1.7,10.006c0.308,7.116-0.616,21.349-3.08,26.503
				c-2.465,5.153-7.393,13.006-7.085,17.423c0,0,2.166,3.916,0.59,5.939c-1.576,2.022-6.566,0.488-6.566,0.488
				s-2.041-2.308-3.004-3.912c-0.963-1.604-1.199-19.382-1.199-19.382l1.226-20.225L250.807,389.836z"/>
			<path style="opacity:0.3;fill:#FFFFFF;" d="M250.807,389.836c0,0,1.392,2.889,1.7,10.006c0.308,7.116-0.616,21.349-3.08,26.503
				c-2.465,5.153-7.393,13.006-7.085,17.423c0,0,2.166,3.916,0.59,5.939c-1.576,2.022-6.566,0.488-6.566,0.488
				s-2.041-2.308-3.004-3.912c-0.963-1.604-1.199-19.382-1.199-19.382l1.226-20.225L250.807,389.836z"/>
			<path style="fill:none;" d="M215.102,381.725c0,0-11.767,21.15-12.672,28.841c-0.905,7.691,0,30.043,0,30.043"/>
			<g style="opacity:0.3;">
				<path d="M218.378,444.893c-4.984-12.555-10.292-25.256-11.841-38.675c-2.269,7.117-0.44,14.904,2.375,21.823
					c2.815,6.919,8.131,13.479,10.01,20.709L218.378,444.893z"/>
			</g>
			<path style="fill:#407BFF;" d="M228.589,415.022c0,0,0.921,25.186,2.341,29.542c1.419,4.357,2.682,4.493,0,7.079
				c-2.683,2.587-12.766,1.346-12.766-0.893c0-2.239,0.513-6.323,0-6.731c-0.513-0.408-6.494-15.928-7.691-21.51
				c-1.196-5.582-2.905-6.943-1.025-11.572c1.88-4.629,3.589-9.938,4.102-10.074C214.062,400.727,228.589,415.022,228.589,415.022z"
				/>
			<path style="opacity:0.3;fill:#FFFFFF;" d="M228.589,415.022c0,0,0.921,25.186,2.341,29.542c1.419,4.357,2.682,4.493,0,7.079
				c-2.683,2.587-12.766,1.346-12.766-0.893c0-2.239,0.513-6.323,0-6.731c-0.513-0.408-6.494-15.928-7.691-21.51
				c-1.196-5.582-2.905-6.943-1.025-11.572c1.88-4.629,3.589-9.938,4.102-10.074C214.062,400.727,228.589,415.022,228.589,415.022z"
				/>
			<path style="opacity:0.3;" d="M245.275,447.905c0,0-0.876-2.362-0.685-4.953c0.192-2.591,1.076-6.754,3.202-10.341
				c3.168-5.345,3.168-11.431,3.168-11.431l-1.203,4.051c-0.229,0.77-0.521,1.515-0.877,2.236c-2.526,5.116-6.394,12.193-6.108,16.3
				l0.727,3.834L245.275,447.905z"/>
			<g>
				<path style="opacity:0.3;" d="M231.796,354.5c0,0-9.673-1.342-15.01,6.981c-3.057,4.768-7.979,11.789-8.067,17.449
					c-0.065,4.221,2.799,10.12,4.882,11.445c4.241,2.697,9.939,7.533,21.447,7.354c11.507-0.179,17.83-9.009,20.248-14.11
					c2.418-5.102-0.152-7.37-1.737-9.339c-1.584-1.969-3.489-15.245-10.02-17.93C237.009,353.664,231.796,354.5,231.796,354.5z"/>
				<g>
					<path style="fill:#407BFF;" d="M219.129,350.215c0,0-14.737-8.069-17.16-6.311c-2.423,1.757-1.094,19.935,6.674,26.055
						l4.777,0.911l6.049-12.677L219.129,350.215z"/>
					<path style="opacity:0.3;fill:#FFFFFF;" d="M219.129,350.215c0,0-14.737-8.069-17.16-6.311
						c-2.423,1.757-1.094,19.935,6.674,26.055l4.777,0.911l6.049-12.677L219.129,350.215z"/>
					<path style="fill:#407BFF;" d="M234.452,346.782c0.109-0.346,8.504-20.423,14.326-15.937
						c5.822,4.486,8.461,24.274,7.123,29.386C254.564,365.342,234.452,346.782,234.452,346.782z"/>
					<path style="opacity:0.3;fill:#FFFFFF;" d="M234.452,346.782c0.109-0.346,8.504-20.423,14.326-15.937
						c5.822,4.486,8.461,24.274,7.123,29.386C254.564,365.342,234.452,346.782,234.452,346.782z"/>
					<path style="fill:#407BFF;" d="M227.349,346.879c0,0-11.621,1.87-15.255,12.402c-2.081,6.033-5.634,15.06-4.002,21.022
						c1.218,4.446,6.344,9.659,9.165,10.341c5.741,1.389,13.827,4.528,27.107,0.441c13.281-4.086,17.902-15.483,19.141-21.65
						c1.239-6.166-2.435-7.673-4.874-9.2c-2.439-1.527-8.715-14.797-17.106-15.398C233.134,344.237,227.349,346.879,227.349,346.879
						z"/>
					<path style="opacity:0.3;fill:#FFFFFF;" d="M227.349,346.879c0,0-11.621,1.87-15.255,12.402
						c-2.081,6.033-5.634,15.06-4.002,21.022c1.218,4.446,6.344,9.659,9.165,10.341c5.741,1.389,13.827,4.528,27.107,0.441
						c13.281-4.086,17.902-15.483,19.141-21.65c1.239-6.166-2.435-7.673-4.874-9.2c-2.439-1.527-8.715-14.797-17.106-15.398
						C233.134,344.237,227.349,346.879,227.349,346.879z"/>
					<g style="opacity:0.3;">
						<path style="fill:#FFFFFF;" d="M232.563,346.215c0.824,3.608,1.725,7.236,3.385,10.543c1.66,3.307,4.159,6.307,7.483,7.932
							s7.536,1.677,10.578-0.43c1.54-1.067,2.777-2.823,2.593-4.688c-0.162-1.645-1.354-2.978-2.497-4.171
							c-3.003-3.132-6.159-6.225-10.004-8.238c-3.844-2.013-8.522-2.832-12.56-1.241"/>
					</g>
					<g>
						<path style="fill:#263238;" d="M228.537,378.492c-9.63,3.18-19.237,6.606-28.242,11.306
							C208.612,383.9,218.56,380.348,228.537,378.492L228.537,378.492z"/>
					</g>
					<g>
						<path style="fill:#263238;" d="M229.377,380.72c-6.613,4.273-16.258,9.788-22.283,14.709
							C213.15,388.826,221.274,384.348,229.377,380.72L229.377,380.72z"/>
					</g>
					<g>
						<path style="fill:#263238;" d="M258.869,367.08c4.738-3.356,10.987-4.746,16.699-3.7
							C269.757,363.759,264.295,364.963,258.869,367.08L258.869,367.08z"/>
					</g>
					<g>
						<path style="fill:#263238;" d="M259.768,369.786c4.565-2.186,9.922-2.847,14.88-1.82
							C269.582,368.339,264.773,368.921,259.768,369.786L259.768,369.786z"/>
					</g>
					<g>
						<path style="fill:#263238;" d="M244.003,355.47c0.188,0.034,0.384-0.008,0.541-0.134c2.437-1.967,4.968-1.045,4.997-1.035
							c0.375,0.137,0.777-0.053,0.891-0.437c0.113-0.384-0.102-0.81-0.481-0.954c-0.132-0.049-3.308-1.209-6.333,1.233
							c-0.301,0.243-0.339,0.708-0.084,1.038C243.658,355.339,243.827,355.438,244.003,355.47z"/>
						<g>
							<path style="fill:#263238;" d="M247.096,363.118c0.886,2.414,2.886,4,4.468,3.541c1.581-0.458,2.145-2.787,1.259-5.201
								c-0.885-2.414-2.885-4-4.467-3.541C246.775,358.375,246.211,360.704,247.096,363.118z"/>
							<path style="fill:#FFFFFF;" d="M249.519,360.442c0.363,0.79,0.906,1.316,1.214,1.175c0.308-0.141,0.263-0.896-0.1-1.687
								c-0.363-0.79-0.907-1.316-1.214-1.175C249.112,358.897,249.156,359.652,249.519,360.442z"/>
						</g>
					</g>
					<g>
						<path style="fill:#263238;" d="M225.605,362.616c0.191-0.007,0.374-0.09,0.499-0.247c1.958-2.444,4.628-2.087,4.659-2.083
							c0.396,0.054,0.747-0.218,0.777-0.618c0.028-0.399-0.273-0.77-0.675-0.828c-0.14-0.02-3.49-0.47-5.92,2.563
							c-0.242,0.302-0.179,0.764,0.141,1.031C225.24,362.563,225.426,362.623,225.605,362.616z"/>
						<g>
							<path style="fill:#263238;" d="M228.347,369.671c0.886,2.414,2.886,4,4.468,3.541c1.581-0.459,2.145-2.787,1.259-5.201
								c-0.885-2.414-2.886-4-4.467-3.541C228.026,364.927,227.462,367.256,228.347,369.671z"/>
							<path style="fill:#FFFFFF;" d="M230.77,366.994c0.363,0.79,0.906,1.316,1.214,1.175c0.308-0.141,0.263-0.896-0.1-1.686
								c-0.363-0.79-0.906-1.316-1.214-1.175C230.363,365.449,230.407,366.204,230.77,366.994z"/>
						</g>
					</g>
					<g>
						<path style="fill:#263238;" d="M244.96,368.471c-0.315-0.068-1.035,0.056-1.354,0.105c-1.881,0.287-4.447,1.239-4.208,2.058
							c1.193,1.118,1.567,1.177,2.163,1.4c0.596,0.223,1.42,0.1,1.972-0.217c0.423-0.243,0.777-0.537,1.053-0.94
							c0.269-0.392,0.365-0.702,0.633-1.094c0.092-0.135,0.296-0.479,0.314-0.641C245.569,368.821,245.276,368.539,244.96,368.471z"
							/>
					</g>
					<path style="opacity:0.3;" d="M239.208,376.206c0,0,3.425,1.289,4.049-0.167c0.624-1.455,0.624-1.455,0.624-1.455
						s1.978,1.568,3.368,0.288c1.389-1.28,1.128-3.049,1.128-3.049s-0.648,2.247-2.257,2.212s-3.361-3.218-3.361-3.218
						s0.629,3.686-1.064,4.662C240,376.455,239.208,376.206,239.208,376.206z"/>
					<g>
						<path style="fill:#263238;" d="M237.916,374.894c1.707,1.193,3.897,1.646,4.459-0.876c0.218-0.996,0.098-2.493,0.096-3.556
							c0.662,0.865,1.452,2.177,2.254,2.838c0.963,0.87,2.477,0.881,3.04-0.48c0.337-0.606,0.54-1.372,1.049-1.921
							c-0.309,0.671-0.383,1.371-0.587,2.108c-0.459,1.911-2.731,2.17-4.093,1.042c-0.647-0.503-1.11-1.131-1.539-1.717l0.901-0.293
							C243.8,375.914,240.792,378.225,237.916,374.894L237.916,374.894z"/>
					</g>
					<path style="opacity:0.3;" d="M211.965,365.358c0,0,1.733-3.338,1.277-4.898c-0.456-1.56-1.482-2.323-1.482-2.323l3.126,0.658
						l1.038-4.537c0,0-10.491-7.747-11.146-5.355c-0.655,2.393,0.703,9.424,3.207,13.602
						C210.49,366.684,211.965,365.358,211.965,365.358z"/>
					<g style="opacity:0.3;">
						<path d="M248.567,336.177c-0.247-0.596-0.565-1.242-1.167-1.475c-0.746-0.288-1.558,0.189-2.173,0.7
							c-2.275,1.891-4.068,5.596-4.652,8.496c4.49,1.75,7.237,3.698,10.874,6.63C251.431,345.618,250.446,340.714,248.567,336.177z"
							/>
					</g>
				</g>
				<path style="fill:#E28888;" d="M231.482,376.055c0,0.984-1.483,1.781-3.312,1.781s-3.312-0.798-3.312-1.781
					c0-0.984,1.483-1.782,3.312-1.782S231.482,375.071,231.482,376.055z"/>
				<path style="fill:#E28888;" d="M257.255,367.639c0.355,0.918-0.741,2.197-2.447,2.856c-1.706,0.66-3.377,0.451-3.732-0.467
					s0.74-2.197,2.447-2.856C255.229,366.512,256.9,366.721,257.255,367.639z"/>
				<path style="fill:#263238;" d="M240.265,377.897"/>
			</g>
		</g>
		<g>
			<g style="opacity:0.3;">
				<path d="M171.142,413.07c0.236,0.258,0.488,0.501,0.77,0.712c1.534,1.145,3.576,1.462,5.469,1.175
					c0.941-0.142,1.85-0.422,2.728-0.787c0.309-2.82,0.824-5.629,1.024-8.457c0.089-1.249,0.048-2.644-1.038-3.548
					c-1.49-1.241-4.271-0.82-5.751,0.428c-1.48,1.248-1.977,3.026-2.336,4.718C171.605,409.216,171.312,411.141,171.142,413.07z"/>
			</g>
			<g style="opacity:0.3;">
				<path d="M180.079,421.017c-2.922,0.636-5.667,2.044-7.908,4.025c0.463,1.587,1.083,3.147,1.856,4.658
					c2.607-1.038,5.065-2.44,7.45-3.967C180.738,424.227,180.307,422.636,180.079,421.017z"/>
			</g>
			<g style="opacity:0.3;">
				<path d="M189.025,432.86c-1.712-0.826-3.251-1.875-4.54-3.096c-1.322,0.9-2.599,1.859-3.757,2.96
					c-0.935,0.889-1.787,1.884-2.505,2.959c1.174,1.254,2.482,2.425,3.954,3.47c0.42,0.298,0.857,0.582,1.302,0.858
					C185.69,437.939,187.562,435.513,189.025,432.86z"/>
			</g>
		</g>
	</g>
</g>
<g id="Cat_1">
	<g>
		<g>
			<path style="fill:#407BFF;" d="M81.665,399.399c0,0,3.04,26.582,10.486,28.581c7.446,1.999,25.619,1.959,22.817-1.661
				c-2.802-3.62-13.954-7.319-13.747-8.417c0.207-1.098,4.232-16.835,4.232-16.835L81.665,399.399z"/>
			<path style="opacity:0.3;" d="M81.665,399.399c0,0,3.04,26.582,10.486,28.581c7.446,1.999,25.619,1.959,22.817-1.661
				c-2.802-3.62-13.954-7.319-13.747-8.417c0.207-1.098,4.232-16.835,4.232-16.835L81.665,399.399z"/>
		</g>
		<path style="fill:#407BFF;" d="M100.502,316.316c-1.132-0.231-17.456-9.182-29.995-7.059
			c-34.228,5.797-33.359,49.22-29.559,68.626c4.371,22.327,14.472,25.858,17.954,34.961s10.033,17.791,11.737,18.278
			c1.704,0.486,17.77,2.309,13.338-2.827c-4.431-5.135-8.74-7.471-9.361-8.846c-0.621-1.375,4.377-21.786,4.377-21.786
			l23.443,10.194l8.559,22.59c0,0-5.158,3.905-4.098,8.907c1.06,5.002,12.489,5.512,19.242-0.392
			c6.753-5.904,4.289-32.328,4.289-32.328l10.674,0.375c0,0,3.06,25.107,9.39,28.757c6.33,3.65,15.901,3.666,17.992-0.889
			c2.558-5.572-7.915-7.296-7.915-7.296s15.29-33.871,17.003-46.005c1.713-12.135,0.97-16.309,0.335-24.414
			c-0.635-8.105-3.683-32.933-7.482-42.863c-3.799-9.93-62.594-1.191-65.381-0.789C102.257,313.912,100.502,316.316,100.502,316.316
			z"/>
		<g style="opacity:0.3;">
			<path d="M141.029,407.058c0,0,9.126,0.984,17.324-5.167c8.197-6.151,10.998-13.991,10.998-13.991
				C162.932,397.323,152.115,404.401,141.029,407.058z"/>
		</g>
		<g style="opacity:0.3;">
			<path d="M102.071,406.597c-3.584-8.483-7.167-16.967-10.751-25.45c0,0-0.314,8.138,2.765,15.17
				C97.165,403.348,102.071,406.597,102.071,406.597z"/>
		</g>
		<g>
			<path style="fill:#407BFF;" d="M70.989,231.908c-8.726-8.39-21.947-11.795-33.64-8.665c6.711,7.287,7.006,18.504,4.686,28.135
				c-2.32,9.632-6.822,18.689-8.474,28.457c-2.993,17.696,4.407,36.766,18.552,47.811l20.378-6.829
				c-5.18-4.286-7.032-11.621-6.273-18.301c0.758-6.68,3.748-12.88,6.854-18.842c3.106-5.962,6.412-11.935,7.895-18.493
				C83.637,253.375,79.715,240.298,70.989,231.908z"/>
		</g>
		<g style="opacity:0.3;">
			<path d="M120.632,328.906l-12.91-4.893c1.16,5.996,4.908,11.226,9.573,14.981c4.666,3.755,10.212,6.164,15.837,8.042
				c7.484,2.499,15.39,4.14,23.204,3.222c7.814-0.919,15.56-4.66,20.173-11.249C157.703,336.862,139.028,333.485,120.632,328.906z"
				/>
		</g>
		<g>
			<g>
				<g>
					<path style="fill:#407BFF;" d="M135.875,271.141c0,0-17.737-20.175-22.338-18.858c-4.601,1.317-12.535,29.359-4.205,42.8
						l6.68,3.978l16.015-15.746L135.875,271.141z"/>
					<path style="fill:#407BFF;" d="M160.777,274.353c0.352-0.461,23.936-26.045,30.234-16.122
						c6.298,9.922-0.546,41.099-5.349,48.049S160.777,274.353,160.777,274.353z"/>
					<path style="fill:#407BFF;" d="M150.05,270.618c0,0-18.484-3.538-29.699,10.304c-6.424,7.929-16.694,19.554-17.497,29.404
						c-0.599,7.346,4.257,17.98,8.123,20.546c7.868,5.224,18.304,14.357,40.494,15.471c22.189,1.114,35.36-13.487,40.59-22.077
						c5.23-8.589,0.533-12.86-2.299-16.487c-2.832-3.627-5.013-26.996-17.294-32.484S150.05,270.618,150.05,270.618z"/>
					<g>
						<g>
							<path style="fill:#407BFF;" d="M156.204,263.567c-0.027-0.095-0.059-0.193-0.129-0.263c-0.158-0.159-0.423-0.108-0.636-0.037
								c-2.29,0.766-4.181,2.638-4.97,4.92c-0.316-1.772-0.633-3.545-0.949-5.317c-1.472,1.153-2.56,2.822-2.897,4.661
								c-0.337,1.84,0.113,3.834,1.304,5.275l6.468,0.701C153.831,270.167,157.132,266.863,156.204,263.567z"/>
						</g>
						<g>
							<path style="fill:#407BFF;" d="M154.43,273.737c0.215,0.082,0.477,0.016,0.628-0.158l-0.662-0.072
								C154.409,273.584,154.413,273.661,154.43,273.737z"/>
						</g>
					</g>
					<g style="opacity:0.3;">
						<path style="fill:#FFFFFF;" d="M137.461,343.995c1.867-4.678,4.053-9.229,6.537-13.611c2.428-4.283,5.238-8.507,9.255-11.352
							c4.018-2.845,9.487-4.078,13.952-2.005c3.096,1.438,5.368,4.283,6.762,7.399s2.004,6.519,2.536,9.891
							c0.377,2.388,0.758,3.732-0.334,5.889c0,0-5.292,2.891-7.269,3.635C158.421,347.785,142.671,346.404,137.461,343.995"/>
					</g>
					<g>
						<path style="fill:#263238;" d="M126.109,318.103c-12.583-0.844-25.228-0.274-37.666,1.812
							c-0.828,0.15-1.659,0.289-2.494,0.419C98.925,316.595,112.801,315.815,126.109,318.103L126.109,318.103z"/>
					</g>
					<g>
						<path style="fill:#263238;" d="M123.599,323.422c-10.454,2.019-20.652,5.067-30.508,9.087
							C102.383,327.234,112.934,324.084,123.599,323.422L123.599,323.422z"/>
					</g>
					<g>
						<path style="fill:#263238;" d="M186.38,318.193c7.94-1.813,16.433-0.952,23.971,2.076c1.065,0.467,2.126,0.933,3.144,1.487
							c-0.555-0.169-1.105-0.345-1.65-0.533l-1.656-0.492C202.482,318.437,194.4,317.658,186.38,318.193L186.38,318.193z"/>
					</g>
					<g>
						<path style="fill:#263238;" d="M186.253,322.751c8.047-0.373,16.288,1.524,23.355,5.393
							C201.962,325.553,194.262,323.769,186.253,322.751L186.253,322.751z"/>
					</g>
					<g>
						<path style="fill:#263238;" d="M168.588,292.972c0.273,0.159,0.601,0.204,0.914,0.098c4.89-1.676,8.296,1.18,8.335,1.213
							c0.504,0.425,1.235,0.356,1.629-0.176c0.392-0.532,0.299-1.314-0.209-1.751c-0.178-0.151-4.45-3.74-10.519-1.658
							c-0.604,0.207-0.924,0.907-0.715,1.562C168.127,292.575,168.333,292.823,168.588,292.972z"/>
						<g>
							<path style="fill:#263238;" d="M169.073,306.581c0.013,4.245,2.222,7.832,4.934,8.012c2.712,0.181,4.9-3.114,4.887-7.358
								c-0.012-4.244-2.221-7.832-4.933-8.012C171.249,299.042,169.061,302.336,169.073,306.581z"/>
							<path style="fill:#FFFFFF;" d="M175.183,306.87c-0.053,1.434,0.356,2.613,0.915,2.634c0.559,0.021,1.055-1.125,1.108-2.559
								c0.053-1.434-0.356-2.613-0.915-2.634C175.732,304.29,175.236,305.436,175.183,306.87z"/>
						</g>
					</g>
					<g>
						<path style="fill:#263238;" d="M136.867,294.966c0.301,0.097,0.631,0.071,0.914-0.101c4.416-2.687,8.356-0.628,8.402-0.604
							c0.583,0.307,1.282,0.083,1.553-0.521c0.269-0.604,0.01-1.348-0.58-1.666c-0.206-0.109-5.149-2.698-10.629,0.638
							c-0.546,0.332-0.708,1.085-0.363,1.679C136.331,294.677,136.585,294.876,136.867,294.966z"/>
						<g>
							<path style="fill:#263238;" d="M137.142,307.454c0.013,4.245,2.222,7.831,4.934,8.012c2.711,0.181,4.899-3.113,4.886-7.358
								c-0.012-4.244-2.221-7.831-4.933-8.012C139.318,299.915,137.13,303.21,137.142,307.454z"/>
							<path style="fill:#FFFFFF;" d="M143.493,306.853c-0.077,1.433,0.313,2.619,0.871,2.649c0.558,0.03,1.073-1.107,1.15-2.54
								c0.077-1.433-0.313-2.619-0.871-2.649C144.085,304.283,143.57,305.42,143.493,306.853z"/>
						</g>
					</g>
					<g>
						<path style="opacity:0.3;" d="M154.328,325.312c0,0,4.999,4.285,6.948,2.207c1.949-2.078,1.949-2.078,1.949-2.078
							s2.381,3.867,5.517,2.558c3.136-1.309,3.781-4.463,3.781-4.463s-2.477,3.402-5.176,2.353
							c-2.699-1.049-3.705-7.507-3.705-7.507s-1.202,6.619-4.665,7.228C155.515,326.22,154.328,325.312,154.328,325.312z"/>
						<g>
							<path style="fill:#263238;" d="M152.95,322.299c2.143,3.421,5.606,5.543,8.389,1.47c0.895-1.373,1.435-3.226,2.008-4.812
								c0.503,1.655,0.902,3.599,1.773,5.034c0.857,1.516,2.697,2.737,4.427,2.061c1.776-0.773,2.617-2.809,4.287-3.808
								c-0.993,0.871-1.605,2.016-2.437,3.07c-1.971,2.697-5.546,1.803-7.089-0.822c-0.743-1.19-1.125-2.505-1.488-3.758
								l0.947,0.032C161.891,327.349,156.077,329.26,152.95,322.299L152.95,322.299z"/>
						</g>
					</g>
					<path style="opacity:0.3;" d="M116.837,289.983c0,0,4.428-4.07,4.595-6.663s-0.958-4.301-0.958-4.301l4.339,2.696l4.039-6.25
						c0,0-11.532-17.373-13.824-14.135c-2.292,3.238-4.091,14.545-2.611,22.192C113.897,291.169,116.837,289.983,116.837,289.983z"
						/>
					<g style="opacity:0.3;">
						<path d="M187.782,266.128c-0.045-1.031-0.171-2.175-0.948-2.853c-0.963-0.841-2.444-0.568-3.647-0.135
							c-4.451,1.599-9.171,6.186-11.631,10.226c5.792,5.082,8.855,9.51,12.719,15.904
							C186.928,281.879,188.126,273.971,187.782,266.128z"/>
					</g>
				</g>
			</g>
			<g>
				<path style="fill:#263238;" d="M167.471,315.278c-0.53-0.237-1.842-0.288-2.422-0.321c-3.417-0.196-8.289,0.522-8.173,2.053
					c1.683,2.413,2.319,2.656,3.285,3.271c0.966,0.615,2.462,0.705,3.552,0.354c0.835-0.269,1.568-0.656,2.204-1.261
					c0.619-0.589,0.903-1.1,1.522-1.689c0.213-0.203,0.7-0.733,0.792-1.012C168.411,316.122,168.001,315.515,167.471,315.278z"/>
			</g>
		</g>
		<path style="opacity:0.3;" d="M78.993,397.664l-16.971-10.166c0,0,12.218,12.816,16.116,13.73L78.993,397.664z"/>
		<path style="opacity:0.3;" d="M96.326,320.334c0,0-3.796,14.104,2.136,26.948c0,0-7.195-8.091-6.374-17.291
			C92.909,320.792,96.326,320.334,96.326,320.334z"/>
		<path style="opacity:0.3;" d="M67.085,309.992c0,0-15.206,5.493-19.482,14.021l-2.46-3.68c0,0,12.001-12.74,20.982-13.077
			L67.085,309.992z"/>
		<g style="opacity:0.3;">
			<path style="fill:#FFFFFF;" d="M157.783,371.601c-4.737-2.728-11.084-0.179-14.451,4.128c-3.367,4.307-4.533,9.877-5.772,15.201
				c-1.238,5.325-3.256,11.85-7.132,15.704c7.471,0.424,17.51-0.972,23.165-5.188c5.654-4.216,9.237-11.088,9.455-18.138
				C163.188,378.814,161.68,373.845,157.783,371.601z"/>
		</g>
		<g style="opacity:0.3;">
			<path style="fill:#FFFFFF;" d="M70.989,231.908c-8.726-8.39-21.947-11.795-33.64-8.664c5.72,6.211,6.77,15.273,5.522,23.779
				c0.093,0.391,0.148,0.621,0.148,0.621c-0.159,6.524-0.317,13.047-0.476,19.571c-0.013,0.518-0.003,1.097,0.358,1.469
				c0.632,0.651,1.724,0.164,2.454-0.375c5.668-4.192,9.84-10.366,11.615-17.189c2.211,6.12,3.019,12.743,2.345,19.215
				c5.045-5.271,8.126-12.379,8.524-19.664c2.71,3.428,4.598,7.501,5.463,11.785c3.179-5.55,3.834-12.482,1.751-18.529
				c1.945,1.927,3.889,3.855,5.834,5.782C79.364,242.987,75.959,236.686,70.989,231.908z"/>
		</g>
		<g style="opacity:0.3;">
			<path style="fill:#FFFFFF;" d="M78.001,339.912c6.415-6.531,9.297-16.497,17.184-21.144c1.155-0.681,2.536-1.415,2.751-2.739
				c0.077-0.477-0.163-0.817-0.557-1.087c-0.441-0.198-0.922-0.409-1.438-0.632c-0.792-0.26-1.608-0.495-2.059-0.863
				c-4.694-1.903-11.239-4.107-17.568-4.462l-0.871,0.976c-5.521,6.06-9.255,13.729-10.618,21.813
				c-0.363,2.151-0.558,4.382-0.018,6.496c0.54,2.114,1.925,4.108,3.956,4.905C71.988,344.439,75.573,342.383,78.001,339.912z"/>
		</g>
	</g>
</g>
</svg>
