<?xml version="1.0" encoding="utf-8"?>
<!-- Generator: Adobe Illustrator 27.5.0, SVG Export Plug-In . SVG Version: 6.00 Build 0)  -->
<svg version="1.1" xmlns="http://www.w3.org/2000/svg" xmlns:xlink="http://www.w3.org/1999/xlink" x="0px" y="0px"
	 viewBox="0 0 500 500" style="enable-background:new 0 0 500 500;" xml:space="preserve">
<!--<g id="Background_Complete">-->
<!--	<g>-->
<!--		<rect x="416.779" y="398.494" style="fill:#EBEBEB;" width="33.122" height="0.25"/>-->
<!--		<rect x="322.527" y="401.208" style="fill:#EBEBEB;" width="8.693" height="0.25"/>-->
<!--		<rect x="396.586" y="389.208" style="fill:#EBEBEB;" width="19.192" height="0.25"/>-->
<!--		<rect x="52.459" y="390.888" style="fill:#EBEBEB;" width="43.193" height="0.25"/>-->
<!--		<rect x="104.556" y="390.888" style="fill:#EBEBEB;" width="6.333" height="0.25"/>-->
<!--		<rect x="131.471" y="395.111" style="fill:#EBEBEB;" width="93.676" height="0.25"/>-->
<!--		<path style="fill:#EBEBEB;" d="M237.014,337.8H43.915c-3.147,0-5.708-2.561-5.708-5.708V60.66c0-3.147,2.561-5.708,5.708-5.708-->
<!--			h193.099c3.146,0,5.707,2.561,5.707,5.708v271.432C242.721,335.239,240.16,337.8,237.014,337.8z M43.915,55.203-->
<!--			c-3.01,0-5.458,2.448-5.458,5.458v271.432c0,3.01,2.448,5.458,5.458,5.458h193.099c3.009,0,5.457-2.448,5.457-5.458V60.66-->
<!--			c0-3.009-2.448-5.458-5.457-5.458H43.915z"/>-->
<!--		<path style="fill:#EBEBEB;" d="M453.31,337.8H260.212c-3.147,0-5.707-2.561-5.707-5.708V60.66c0-3.147,2.561-5.708,5.707-5.708-->
<!--			H453.31c3.148,0,5.708,2.561,5.708,5.708v271.432C459.019,335.239,456.458,337.8,453.31,337.8z M260.212,55.203-->
<!--			c-3.009,0-5.457,2.448-5.457,5.458v271.432c0,3.01,2.448,5.458,5.457,5.458H453.31c3.01,0,5.458-2.448,5.458-5.458V60.66-->
<!--			c0-3.009-2.448-5.458-5.458-5.458H260.212z"/>-->
<!--		<rect y="382.398" style="fill:#EBEBEB;" width="500" height="0.25"/>-->
<!--	</g>-->
<!--	<g>-->
<!--		<path style="fill:#F0F0F0;" d="M119.188,362.756c0,0-19.185-12.077-26.809-13.581c-5.259-1.038-17,0.081-18.5-12.919-->
<!--			c-0.891-7.719,5.093-7.779,10.102-6.555c2.915,0.713,5.744-1.377,5.859-4.377c0.156-4.066,1.492-8.168,6.648-6.36-->
<!--			c9.39,3.292,9.014,16.551,11.39,21.677c3.802,8.201,26,18.615,26,18.615L119.188,362.756z"/>-->
<!--		<path style="fill:#E0E0E0;" d="M156.371,354.584H82.005c-4.113,0-7.934,2.126-10.102,5.622l-8.428,13.59-->
<!--			c-2.664,4.296,0.425,9.848,5.48,9.848H169.42c5.055,0,8.145-5.552,5.48-9.848l-8.428-13.59-->
<!--			C164.305,356.711,160.484,354.584,156.371,354.584z"/>-->
<!--	</g>-->
<!--	<g>-->
<!--		<path style="fill:#F0F0F0;" d="M397.595,189.061c-2.642-2.933-6.49-4.455-10.421-4.103c-7.053,0.632-17.601,0.149-18.509-8.184-->
<!--			c-1.375-12.613,16.99-10.071,20.529-15.547c3.539-5.477,10.296-10.114,18.113-6.544c7.817,3.57,4.503,14.03,6.121,18.678-->
<!--			c1.617,4.648,10.218,16.048,2.07,23.148C410.143,201.173,402.326,194.314,397.595,189.061z"/>-->
<!--		<path style="fill:#F0F0F0;" d="M386.393,146.741c1.459,4.387,0.312,11.167-3.465,12.423c-3.777,1.256-8.756-3.488-10.214-7.875-->
<!--			c-1.459-4.387,0.421-8.961,4.199-10.217C380.69,139.817,384.935,142.355,386.393,146.741z"/>-->
<!--		<path style="fill:#F0F0F0;" d="M408.865,138.653c-0.162,4.902-3.797,11.227-8.018,11.088c-4.221-0.14-7.429-6.692-7.267-11.593-->
<!--			c0.162-4.902,3.715-8.762,7.936-8.622C405.736,129.665,409.027,133.751,408.865,138.653z"/>-->
<!--		<path style="fill:#F0F0F0;" d="M428.594,151.324c-3.043,3.846-9.725,6.775-13.037,4.154c-3.312-2.62-2-9.797,1.043-13.643-->
<!--			c3.043-3.846,8.194-4.84,11.506-2.22C431.419,142.236,431.637,147.478,428.594,151.324z"/>-->
<!--		<path style="fill:#F0F0F0;" d="M433.803,173.783c-3.884,2.994-11.077,4.215-13.655,0.87c-2.578-3.345,0.435-9.989,4.319-12.983-->
<!--			c3.884-2.994,9.123-2.71,11.701,0.635C438.746,165.65,437.687,170.789,433.803,173.783z"/>-->
<!--	</g>-->
<!--	<g>-->
<!--		<path style="fill:#F5F5F5;" d="M166.752,309.828c-3.634-0.137-7.11,1.428-9.402,4.253c-4.11,5.067-11.201,11.727-17.29,6.978-->
<!--			c-9.217-7.189,4.253-17.693,2.905-23.547c-1.348-5.854-0.074-13.297,7.304-16.171c7.378-2.874,12.162,6.031,16.272,7.946-->
<!--			s17.164,3.55,16.625,13.492C182.812,309.313,173.261,310.074,166.752,309.828z"/>-->
<!--		<path style="fill:#F5F5F5;" d="M131.596,290.063c3.835,1.852,7.58,6.963,5.985,10.265c-1.595,3.302-7.926,3.546-11.761,1.694-->
<!--			c-3.835-1.852-5.651-6.031-4.056-9.334C123.358,289.386,127.76,288.21,131.596,290.063z"/>-->
<!--		<path style="fill:#F5F5F5;" d="M140.676,270.021c3.135,3.254,4.982,9.716,2.18,12.416c-2.802,2.7-9.192,0.614-12.327-2.64-->
<!--			c-3.135-3.254-3.405-8.08-0.603-10.78C132.729,266.318,137.542,266.767,140.676,270.021z"/>-->
<!--		<path style="fill:#F5F5F5;" d="M161.716,265.117c0.588,4.48-1.766,10.775-5.624,11.282s-7.758-4.968-8.346-9.448-->
<!--			c-0.588-4.48,2.062-8.522,5.92-9.029C157.523,257.417,161.127,260.638,161.716,265.117z"/>-->
<!--		<path style="fill:#F5F5F5;" d="M179.901,276.093c-0.515,4.489-4.326,10.026-8.191,9.582c-3.865-0.444-6.322-6.7-5.807-11.189-->
<!--			c0.515-4.489,4.066-7.768,7.932-7.325C177.7,267.606,180.416,271.604,179.901,276.093z"/>-->
<!--	</g>-->
<!--	<g>-->
<!--		<path style="fill:#F5F5F5;" d="M214.682,108.505c-2.143-0.372-4.328,0.278-5.911,1.768c-2.841,2.674-7.576,6.054-10.805,2.752-->
<!--			c-4.887-4.997,3.935-10.145,3.605-13.722c-0.33-3.577,1.02-7.886,5.622-8.999c4.602-1.113,6.725,4.547,9.007,6.01-->
<!--			c2.282,1.464,9.888,3.476,8.773,9.325C224.24,109.484,218.519,109.172,214.682,108.505z"/>-->
<!--		<path style="fill:#F5F5F5;" d="M195.428,93.981c2.125,1.404,3.935,4.732,2.726,6.562c-1.209,1.829-4.981,1.468-7.105,0.063-->
<!--			c-2.125-1.404-2.867-4.026-1.657-5.856C190.601,92.921,193.304,92.576,195.428,93.981z"/>-->
<!--		<path style="fill:#F5F5F5;" d="M202.413,82.83c1.598,2.179,2.175,6.156,0.299,7.532c-1.876,1.376-5.496-0.371-7.094-2.55-->
<!--			c-1.598-2.179-1.372-5.061,0.505-6.436C197.999,80,200.815,80.651,202.413,82.83z"/>-->
<!--		<path style="fill:#F5F5F5;" d="M215.273,81.607c-0.01,2.702-1.908,6.244-4.235,6.236s-4.2-3.564-4.19-6.266-->
<!--			c0.01-2.702,1.904-4.885,4.23-4.877S215.282,78.905,215.273,81.607z"/>-->
<!--		<path style="fill:#F5F5F5;" d="M225.171,89.565c-0.664,2.619-3.365,5.595-5.62,5.023c-2.255-0.572-3.211-4.476-2.546-7.095-->
<!--			c0.664-2.619,3.031-4.278,5.286-3.706C224.546,84.359,225.836,86.946,225.171,89.565z"/>-->
<!--	</g>-->
<!--	<g>-->
<!--		<path style="fill:#F5F5F5;" d="M102.951,258.241c-2.146,0.828-3.774,2.605-4.4,4.818c-1.123,3.97-3.579,9.61-8.303,8.371-->
<!--			c-7.15-1.875-1.947-11.341-4.192-14.406c-2.245-3.065-3.363-7.707,0.206-11.219c3.569-3.512,8.572,0.467,11.438,0.553-->
<!--			c2.866,0.087,10.858-2.223,13.028,3.688C112.152,253.931,106.794,256.759,102.951,258.241z"/>-->
<!--		<path style="fill:#F5F5F5;" d="M77.59,255.536c2.691,0.119,6.142,2.153,6.04,4.469c-0.102,2.317-3.719,4.04-6.41,3.921-->
<!--			c-2.691-0.118-4.789-2.093-4.687-4.41C72.635,257.2,74.899,255.417,77.59,255.536z"/>-->
<!--		<path style="fill:#F5F5F5;" d="M77.861,241.625c2.634,1.108,5.321,4.401,4.367,6.669c-0.954,2.268-5.187,2.652-7.821,1.544-->
<!--			c-2.634-1.108-3.996-3.844-3.042-6.112C72.319,241.458,75.228,240.517,77.861,241.625z"/>-->
<!--		<path style="fill:#F5F5F5;" d="M88.86,233.523c1.46,2.456,1.665,6.701-0.45,7.959c-2.115,1.258-5.748-0.949-7.208-3.405-->
<!--			c-1.46-2.456-0.93-5.466,1.185-6.724C84.502,230.095,87.4,231.067,88.86,233.523z"/>-->
<!--		<path style="fill:#F5F5F5;" d="M102.166,235.359c0.822,2.737-0.01,6.905-2.366,7.612c-2.357,0.707-5.346-2.314-6.168-5.05-->
<!--			c-0.822-2.737,0.423-5.529,2.779-6.236C98.768,230.977,101.344,232.622,102.166,235.359z"/>-->
<!--	</g>-->
<!--	<g>-->
<!--		<path style="fill:#F5F5F5;" d="M316.783,128.55c-1.591-1.66-3.86-2.477-6.143-2.2c-4.096,0.496-10.247,0.406-10.927-4.43-->
<!--			c-1.029-7.32,9.712-6.172,11.673-9.425c1.961-3.253,5.812-6.076,10.429-4.139c4.617,1.937,2.876,8.088,3.902,10.766-->
<!--			c1.026,2.677,6.241,9.16,1.624,13.442C324.309,135.376,319.633,131.523,316.783,128.55z"/>-->
<!--		<path style="fill:#F5F5F5;" d="M309.493,104.109c0.929,2.528,0.384,6.497-1.793,7.297c-2.177,0.8-5.162-1.873-6.091-4.401-->
<!--			c-0.929-2.528,0.083-5.226,2.26-6.026C306.047,100.18,308.565,101.581,309.493,104.109z"/>-->
<!--		<path style="fill:#F5F5F5;" d="M322.432,98.992c-0.006,2.857-2.008,6.607-4.468,6.602c-2.46-0.005-4.448-3.762-4.442-6.619-->
<!--			c0.006-2.857,2.005-5.17,4.465-5.165S322.438,96.135,322.432,98.992z"/>-->
<!--		<path style="fill:#F5F5F5;" d="M334.151,106.013c-1.702,2.295-5.54,4.121-7.516,2.655c-1.976-1.466-1.342-5.669,0.36-7.963-->
<!--			c1.702-2.295,4.684-2.967,6.66-1.501C335.631,100.67,335.853,103.718,334.151,106.013z"/>-->
<!--		<path style="fill:#F5F5F5;" d="M337.591,118.997c-2.208,1.814-6.374,2.655-7.936,0.754c-1.562-1.901,0.072-5.825,2.28-7.639-->
<!--			c2.208-1.814,5.263-1.743,6.825,0.158C340.322,114.172,339.799,117.183,337.591,118.997z"/>-->
<!--	</g>-->
<!--</g>-->
<g id="Background_Simple" style="display:none;">
	<g style="display:inline;">
		<path style="fill:#407BFF;" d="M117.624,101.491c48.253-35.041,80.254,22.237,117.343,23.849
			c44.259,1.923,103.086-50.117,143.663-15.024c44.946,38.872-7.369,102.797-4.895,149.538
			c1.278,24.157,43.278,55.538,23.912,93.762c-32.33,63.81-142.698-17.889-198.869-22.945
			c-39.586-3.563-91.271,20.531-114.053-12.038c-21.663-30.97,25.273-54.634,30.965-91.997
			C121.502,188.481,68.747,136.986,117.624,101.491z"/>
		<path style="opacity:0.9;fill:#FFFFFF;" d="M117.624,101.491c48.253-35.041,80.254,22.237,117.343,23.849
			c44.259,1.923,103.086-50.117,143.663-15.024c44.946,38.872-7.369,102.797-4.895,149.538
			c1.278,24.157,43.278,55.538,23.912,93.762c-32.33,63.81-142.698-17.889-198.869-22.945
			c-39.586-3.563-91.271,20.531-114.053-12.038c-21.663-30.97,25.273-54.634,30.965-91.997
			C121.502,188.481,68.747,136.986,117.624,101.491z"/>
	</g>
</g>
<!--<g id="Shadow">-->
<!--	<ellipse id="_x3C_Path_x3E__1_" style="fill:#F5F5F5;" cx="245.178" cy="412.391" rx="193.889" ry="11.323"/>-->
<!--</g>-->
<g id="House">
	<g>
		<polygon style="fill:#407BFF;" points="424.582,282.784 352.812,225.977 281.041,282.784 281.041,383.643 424.582,383.643 		"/>
		<polygon style="opacity:0.3;" points="424.582,282.784 352.812,225.977 281.041,282.784 281.041,383.643 424.582,383.643 		"/>
		<g>
			<path style="fill:#407BFF;" d="M430.24,290.886l-77.428-61.284l-77.428,61.284c-1.511,1.196-3.704,0.941-4.9-0.57l0,0
				c-1.196-1.511-0.941-3.705,0.57-4.901l81.758-64.712l81.758,64.712c1.511,1.196,1.766,3.39,0.57,4.901l0,0
				C433.944,291.827,431.75,292.082,430.24,290.886z"/>
		</g>
		<g style="opacity:0.3;">
			<path style="fill:#FFFFFF;" d="M430.24,290.886l-77.428-61.284l-77.428,61.284c-1.511,1.196-3.704,0.941-4.9-0.57l0,0
				c-1.196-1.511-0.941-3.705,0.57-4.901l81.758-64.712l81.758,64.712c1.511,1.196,1.766,3.39,0.57,4.901l0,0
				C433.944,291.827,431.75,292.082,430.24,290.886z"/>
		</g>
		<path style="fill:#407BFF;" d="M352.812,283.578c-17.434,0-31.566,14.133-31.566,31.566v68.499h63.132v-68.499
			C384.378,297.711,370.245,283.578,352.812,283.578z"/>
		<path style="opacity:0.5;" d="M352.812,283.578c-17.434,0-31.566,14.133-31.566,31.566v68.499h63.132v-68.499
			C384.378,297.711,370.245,283.578,352.812,283.578z"/>
		<path style="fill:#407BFF;" d="M361.873,275.801c0,0,21.704,14.395,12.475-6.773c0,0,6.423-13.563-1.654-12.408
			c-8.077,1.155-10.82,5.743-10.82,5.743l-18.122-1.032c0,0-21.704-14.395-12.475,6.773c0,0-6.422,13.563,1.654,12.408
			c8.077-1.155,10.82-5.743,10.82-5.743L361.873,275.801z"/>
		<path style="opacity:0.3;fill:#FFFFFF;" d="M361.873,275.801c0,0,21.704,14.395,12.475-6.773c0,0,6.423-13.563-1.654-12.408
			c-8.077,1.155-10.82,5.743-10.82,5.743l-18.122-1.032c0,0-21.704-14.395-12.475,6.773c0,0-6.422,13.563,1.654,12.408
			c8.077-1.155,10.82-5.743,10.82-5.743L361.873,275.801z"/>
	</g>
</g>
<g id="Speech_bubble">
	<g>
		<g>
			<g>
				<path style="fill:#407BFF;" d="M92.651,99.006c0,0-2.636-7.129-0.84-8.921c1.796-1.791,2.489,6.366,5.242,7.836L92.651,99.006z"
					/>
				<path style="fill:#407BFF;" d="M137.293,96.717c0,0,2.667-6.166,1.167-7.833c-1.5-1.667-2.5,5.5-5,6.667L137.293,96.717z"/>
				<path style="fill:#407BFF;" d="M103.783,82.986c0,0,1.62-8.838,3.83-8.985c2.209-0.147-0.295,7.07,1.178,9.722L103.783,82.986z"
					/>
				<path style="fill:#407BFF;" d="M124.248,84.629c0,0-0.058-8.985-2.209-9.515c-2.15-0.529-0.94,7.014-2.851,9.369L124.248,84.629
					z"/>
			</g>
			<g style="opacity:0.5;">
				<path style="fill:#FFFFFF;" d="M92.651,99.006c0,0-2.636-7.129-0.84-8.921c1.796-1.791,2.489,6.366,5.242,7.836L92.651,99.006z"
					/>
				<path style="fill:#FFFFFF;" d="M137.293,96.717c0,0,2.667-6.166,1.167-7.833c-1.5-1.667-2.5,5.5-5,6.667L137.293,96.717z"/>
				<path style="fill:#FFFFFF;" d="M103.783,82.986c0,0,1.62-8.838,3.83-8.985c2.209-0.147-0.295,7.07,1.178,9.722L103.783,82.986z"
					/>
				<path style="fill:#FFFFFF;" d="M124.248,84.629c0,0-0.058-8.985-2.209-9.515c-2.15-0.529-0.94,7.014-2.851,9.369L124.248,84.629
					z"/>
			</g>
			<g style="opacity:0.5;">
				<path d="M92.651,99.006c0,0-2.636-7.129-0.84-8.921c1.796-1.791,2.489,6.366,5.242,7.836L92.651,99.006z"/>
				<path d="M137.293,96.717c0,0,2.667-6.166,1.167-7.833c-1.5-1.667-2.5,5.5-5,6.667L137.293,96.717z"/>
				<path d="M103.783,82.986c0,0,1.62-8.838,3.83-8.985c2.209-0.147-0.295,7.07,1.178,9.722L103.783,82.986z"/>
				<path d="M124.248,84.629c0,0-0.058-8.985-2.209-9.515c-2.15-0.529-0.94,7.014-2.851,9.369L124.248,84.629z"/>
			</g>
		</g>
		<path style="fill:#407BFF;" d="M135.845,93.346c-1.317-0.823-2.635-0.68-3.72-0.236c-1.189,0.486-2.485-0.324-2.575-1.605
			c-0.281-4.027-1.661-10.329-7.453-11.514c-3.364-0.688-6.281,1.441-8.042,3.203c-0.851,0.851-2.233,0.69-2.898-0.312
			c-1.084-1.635-3.057-3.3-6.343-2.105c-5.724,2.082-6.709,9.075-6.721,13.56c-0.004,1.328-1.372,2.25-2.58,1.699
			c-1.825-0.833-4.07-0.589-5.233,4.381c-2.16,9.231,5.695,37.807,5.695,37.807v35.145c5.911,2.022,12.243,3.135,18.839,3.135
			c8.197,0,15.994-1.703,23.068-4.762l-1.252-34.796C141.541,101.398,140.101,96.006,135.845,93.346z"/>
		<path style="fill:#407BFF;" d="M189.162,147.109l-11.965-13.332c5.244-30.171-12.326-60.395-42.295-70.152
			c-32.866-10.7-68.185,7.269-78.885,40.135c-10.701,32.867,7.269,68.185,40.135,78.885c29.969,9.757,61.965-4.329,75.489-31.805
			L189.162,147.109z M99.399,172.674c-27.359-8.907-42.318-38.307-33.41-65.667c8.907-27.359,38.308-42.317,65.667-33.41
			c27.359,8.908,42.317,38.307,33.41,65.667C156.158,166.624,126.758,181.582,99.399,172.674z"/>
		<path style="opacity:0.6;" d="M189.162,147.109l-11.965-13.332c5.244-30.171-12.326-60.395-42.295-70.152
			c-32.866-10.7-68.185,7.269-78.885,40.135c-10.701,32.867,7.269,68.185,40.135,78.885c29.969,9.757,61.965-4.329,75.489-31.805
			L189.162,147.109z M99.399,172.674c-27.359-8.907-42.318-38.307-33.41-65.667c8.907-27.359,38.308-42.317,65.667-33.41
			c27.359,8.908,42.317,38.307,33.41,65.667C156.158,166.624,126.758,181.582,99.399,172.674z"/>
		<path style="fill:#263238;" d="M118.141,124.474c-2.218-1.3-4.929-1.362-7.24-0.236c-4.447,2.167-11.568,4.701-13.55-0.057
			c-2.946-7.071,7.267-8.249,11.195-15.123s8.052-3.732,12.177,1.571c4.125,5.303,12.373,4.714,11.588,14.141
			C131.755,131.427,123.15,127.41,118.141,124.474z"/>
		<path style="fill:#263238;" d="M117.824,169.558c-1.465-0.198-2.945-0.037-4.389,0.279c-1.81,0.396-4.143,0.255-4.497-2.927
			c-0.589-5.303,5.123-6.535,7.66-6.678c2.297-0.13,7.463,0.393,7.071,5.892C123.414,169.682,120.119,169.869,117.824,169.558z"/>
		<path style="fill:#263238;" d="M101.573,103.829c0,2.644-1.826,3.609-4.078,3.609c-2.252,0-4.078-0.965-4.078-3.609
			c0-2.644,1.826-4.787,4.078-4.787C99.747,99.042,101.573,101.185,101.573,103.829z"/>
		<path style="fill:#263238;" d="M136.189,103.249c0,3.608-2.481,4.925-5.542,4.925c-3.061,0-5.542-1.317-5.542-4.925
			c0-3.608,2.481-6.533,5.542-6.533C133.708,96.717,136.189,99.642,136.189,103.249z"/>
		<path style="fill:#263238;" d="M111.001,89.943c0,3.212-1.968,4.385-4.396,4.385c-2.428,0-4.396-1.172-4.396-4.385
			c0-3.212,1.968-5.816,4.396-5.816C109.033,84.127,111.001,86.731,111.001,89.943z"/>
		<path style="fill:#263238;" d="M126.114,90.445c0,3.212-1.968,4.384-4.396,4.384c-2.428,0-4.396-1.172-4.396-4.384
			c0-3.212,1.968-5.816,4.396-5.816C124.146,84.629,126.114,87.233,126.114,90.445z"/>
	</g>
</g>
<g id="Dog">
	<g>
		<g>
			<path style="fill:#407BFF;" d="M175.367,398.714c0,0-7.774,1.196-10.384,1.133c-2.83-0.068-5.636-1.008-8.483-1.726l2.672-1.952
				c0,0-6.983,0.38-9.269,0c-3.099-0.515-5.917-2.222-8.787-3.645l3.48-2.496c0,0-8.38-0.823-10.957-1.861
				c-1.515-0.61-2.672-1.896-3.958-2.941l3.81-1.088c0,0-9.513-5.025-12.188-7.377c-4.994-4.392-7.593-11.46-10.023-18.998
				c0,0,8.771,3.469,22.798,10.423c2.563,1.27,9.592,6.235,9.592,6.235l-1.309-5.342c3.436,1.045,7.304,3.388,11.094,4.854
				c2.692,1.041,10.113,5.568,10.113,5.568l-1.177-3.655c3.438,0.655,7.106,0.809,10.762,1.759c2.8,0.727,10.775,4.221,10.775,4.221
				l-3.415-5.402c7.676,0.831,14.068,3.147,22.849,3.078v20.156c0,0-13.849,2.633-31.026,1.097L175.367,398.714z"/>
		</g>
		<g style="opacity:0.2;">
			<path d="M175.367,398.714c0,0-7.774,1.196-10.384,1.133c-2.83-0.068-5.636-1.008-8.483-1.726l2.672-1.952c0,0-6.983,0.38-9.269,0
				c-3.099-0.515-5.917-2.222-8.787-3.645l3.48-2.496c0,0-8.38-0.823-10.957-1.861c-1.515-0.61-2.672-1.896-3.958-2.941l3.81-1.088
				c0,0-9.513-5.025-12.188-7.377c-4.994-4.392-7.593-11.46-10.023-18.998c0,0,8.771,3.469,22.798,10.423
				c2.563,1.27,9.592,6.235,9.592,6.235l-1.309-5.342c3.436,1.045,7.304,3.388,11.094,4.854c2.692,1.041,10.113,5.568,10.113,5.568
				l-1.177-3.655c3.438,0.655,7.106,0.809,10.762,1.759c2.8,0.727,10.775,4.221,10.775,4.221l-3.415-5.402
				c7.676,0.831,14.068,3.147,22.849,3.078v20.156c0,0-13.849,2.633-31.026,1.097L175.367,398.714z"/>
		</g>
		<g>
			<path style="fill:#407BFF;" d="M188.467,339.462c-8.739,16.321,1.687,40.046,7.634,58.513c0,0-6.331,3.056-7.689,11.722
				c-0.48,3.061,1.966,5.807,5.065,5.807h18.572c1.368,0,2.694-0.532,3.64-1.522c1.933-2.024,4.527-6,2.513-11.52
				c0,0,21.684,6.521,32.999,1.846c21.974-9.079-30.685-68.229-30.685-68.229l-7.982-7.59
				C212.534,328.489,194.343,328.489,188.467,339.462z"/>
		</g>
		<path style="opacity:0.2;" d="M227.369,404.61c-9.9-4.73-12.99-17.18-13.52-14.11c-0.63,3.6,4.35,11.96,4.35,11.96L227.369,404.61
			z"/>
		<path style="opacity:0.2;" d="M210.578,396.844c-2.135-0.765-5.257-1.32-9.015-0.331c-0.706,0.186-1.153-0.75-0.572-1.192
			c2.276-1.727,6.06-3.297,10.238,0.369C211.793,396.183,211.282,397.096,210.578,396.844z"/>
		<path style="opacity:0.2;" d="M208.357,328.489h4.177l2.398,2.28c2.154,17.133,6.779,42.97-1.087,29.052
			C207.669,348.895,208.357,328.489,208.357,328.489z"/>
		<path style="fill:#407BFF;" d="M291.65,345.208c4.886-4.465,22.095-9.378,23.17,12.809c1.075,22.187-23.628,37.838-23.628,37.838
			s37.969-5.231,40.942,6.942c2.973,12.173-7.449,8.552-31.972,8.552s-38.031-0.801-34.594-12.313
			C269.006,387.523,280.612,355.296,291.65,345.208z"/>
		<path style="opacity:0.2;" d="M291.65,345.208c4.886-4.465,22.095-9.378,23.17,12.809c1.075,22.187-23.628,37.838-23.628,37.838
			s37.969-5.231,40.942,6.942c2.973,12.173-7.449,8.552-31.972,8.552s-38.031-0.801-34.594-12.313
			C269.006,387.523,280.612,355.296,291.65,345.208z"/>
		<path style="fill:#407BFF;" d="M291.04,162.815c0,0,0-6.311,5.49-10.083c5.489-3.772,16.163-13.475,21.043-6.183
			c4.879,7.291,2.776,14.712,2.135,19.599c-0.745,5.682-0.755,18.189-13.949,18.189L291.04,162.815z"/>
		<path style="opacity:0.2;" d="M291.04,162.815c0,0,0-6.311,5.49-10.083c5.489-3.772,16.163-13.475,21.043-6.183
			c4.879,7.291,2.776,14.712,2.135,19.599c-0.745,5.682-0.755,18.189-13.949,18.189L291.04,162.815z"/>
		<path style="fill:#407BFF;" d="M264.007,160.557c0,0,2.199-6.383-1.644-11.974c-3.842-5.591-10.488-18.858-17.612-13.063
			c-7.124,5.795-7.733,13.981-8.834,19.131c-1.279,5.988-5.627,18.641,6.766,22.91L264.007,160.557z"/>
		<path style="opacity:0.2;" d="M264.007,160.557c0,0,2.199-6.383-1.644-11.974c-3.842-5.591-10.488-18.858-17.612-13.063
			c-7.124,5.795-7.733,13.981-8.834,19.131c-1.279,5.988-5.627,18.641,6.766,22.91L264.007,160.557z"/>
		<path style="opacity:0.2;" d="M303.459,180.975l-7.959-11.639c0.295-3.286,1.256-9.108,4.384-13.065
			c4.575-5.785,13.652-11.327,16.163-5.992C318.817,156.161,318.236,169.91,303.459,180.975z"/>
		<path style="opacity:0.2;" d="M246.015,174.905l11.532-9.196c0.868-3.419,1.994-9.618,0.433-14.632
			c-2.281-7.331-8.877-15.874-13.095-11.291C240.233,144.84,235.989,158.933,246.015,174.905z"/>
		<path style="fill:#407BFF;" d="M212.1,308.616h-1.247c-0.759,0-1.238-0.818-0.866-1.48l3.528-6.277
			c1.106-1.968,1.89-4.102,2.283-6.325c4.076-23.016,4.092-70.235,23.091-78.175c20.433-8.539,46.725-3.455,57.944,8.234
			c3.483,3.628,6.77,8.755,9.552,14.989l5.536,6.198c0.393,0.439,0.272,1.13-0.246,1.411l-0.509,0.275l3.977,8.575
			c0.339,0.73-0.365,1.509-1.126,1.247l-0.182-0.063l1.638,9.267c0.162,0.915-0.988,1.457-1.591,0.751l-0.125-0.146
			c1.518,12.359,1.097,26.127-2.286,40.143c-8.486,35.158-21.348,97.895-62.519,97.895c-29.595,0-36.97-44.123-36.853-76.525l0,0
			c-0.658,0.684-1.809,0.144-1.703-0.8l0.892-7.915h-0.849c-0.65,0-1.125-0.615-0.961-1.244L212.1,308.616z"/>
		<path style="opacity:0.2;" d="M217.301,372.541c2.026,6.723,10.469,23.5,22.657,24.588c12.809,1.144,19.817-6.044,26.075-11.208
			c13.429-11.08,20.231-67.235,20.231-67.235l6.987-12.133l9.395-14.638l11.19,2.049c-0.511,4.376-1.287,8.813-2.364,13.276
			c-8.486,35.158-21.348,97.895-62.519,97.895C232.108,405.135,222.464,390.835,217.301,372.541z"/>
		<path style="fill:#407BFF;" d="M302.629,235.263c0,0-1.22-15.229,3.66-23.166c4.879-7.937,7.57-50.872-28.057-55.4
			c-36.929-4.694-46.66,30.69-47.27,42.889c-0.61,12.199,2.592,27.142,2.592,27.142l43.153,16.163L302.629,235.263z"/>
		<path style="fill:#407BFF;" d="M232.924,188.697c4.326-15.071,16.595-35.65,45.308-32c34.086,4.333,33.097,43.816,28.675,54.176
			c0.844-4.282,0.591-9.544-5.802-15.252c-8.539-7.624-18.908,1.83-21.958-5.489c-3.05-7.319,16.353-5.261,10.674-13.144
			c-3.856-5.352-9.281-1.662-12.449,1.683c-1.653,1.745-4.569,1.349-5.696-0.774c-2.234-4.209-9.111-7.041-12.918-2.992
			c-6.753,7.184,11.553,5.111,6.812,14.007C262.074,195.469,242.678,181.348,232.924,188.697z"/>
		<path style="opacity:0.2;" d="M232.924,188.697c4.326-15.071,16.595-35.65,45.308-32c34.086,4.333,33.097,43.816,28.675,54.176
			c0.844-4.282,0.591-9.544-5.802-15.252c-8.539-7.624-18.908,1.83-21.958-5.489c-3.05-7.319,16.353-5.261,10.674-13.144
			c-3.856-5.352-9.281-1.662-12.449,1.683c-1.653,1.745-4.569,1.349-5.696-0.774c-2.234-4.209-9.111-7.041-12.918-2.992
			c-6.753,7.184,11.553,5.111,6.812,14.007C262.074,195.469,242.678,181.348,232.924,188.697z"/>
		<path style="fill:#263238;" d="M268.711,212.082c0.829,1.088,2.349,1.387,3.565,0.762c1.116-0.574,2.734-1.261,5.04-1.972
			c5.947-1.833,1.982-10.462-4.727-8.663c0,0-6.915-4.175-9.238,2.001C261.598,208.872,265.835,208.306,268.711,212.082z"/>
		<g style="opacity:0.6;">
			<path d="M263.443,207.642l1.708,0.154c0,0,2.391-4.26,3.472-0.93c0.575,1.771-1.482,2.173-3.534,2.163
				C264.412,208.584,263.83,208.163,263.443,207.642z"/>
			<path d="M273.467,207.312c1.601-3.114,3.278,1.474,3.278,1.474l3.052,0.218c-0.252,0.46-0.618,0.876-1.114,1.219
				C276.349,210.099,272.31,209.561,273.467,207.312z"/>
		</g>
		<path style="opacity:0.2;" d="M279.964,235.176c-6.804,0.375-17.211-0.17-27.635-5.031c-1.546-0.721-3.031,1.122-2.008,2.487
			c4.411,5.885,11.479,14.066,16.645,14.009c6.636-0.074,5.796-2.876,14.025-8.455C282.377,237.247,281.634,235.084,279.964,235.176
			z"/>
		<path style="opacity:0.2;" d="M276.756,252.955c0,0,9.965,20.433-2.819,44.373l6.41-9.549c0.585-0.871,1.904-0.738,2.303,0.233
			l0.29,0.707c0.169,0.411,0.781,0.29,0.781-0.154v-8.832c0-1.143,1.359-1.739,2.2-0.966l0.399,0.367
			c0.312,0.287,0.799-0.036,0.656-0.435l-3.394-9.463c-0.396-1.105,0.747-2.134,1.804-1.625l0,0
			c0.364,0.175,0.732-0.231,0.523-0.576l-3.293-5.429c-0.452-0.744-0.066-1.714,0.773-1.945l0.343-0.095
			c0.316-0.087,0.404-0.494,0.151-0.703L276.756,252.955z"/>
		<path style="fill:#263238;" d="M282.33,188.897c-0.134,2.483,1.095,4.568,2.745,4.658c1.65,0.089,3.097-1.852,3.231-4.335
			c0.134-2.483-1.095-4.568-2.745-4.658C283.911,184.473,282.465,186.414,282.33,188.897z"/>
		<path style="fill:#263238;" d="M257.058,185.545c-0.134,2.483,1.095,4.568,2.745,4.658c1.65,0.089,3.097-1.852,3.231-4.335
			c0.134-2.483-1.095-4.568-2.745-4.657C258.639,181.121,257.192,183.061,257.058,185.545z"/>
		<g>
			<path style="fill:#407BFF;" d="M287.724,214.224c0,0-4.765,7.565-9.645,5.46c-4.879-2.105-8.692-3.637-8.692-3.637
				s-10.167,1.975-13.013,0c-2.846-1.975-5.133-6.397-5.133-6.397s-1.659,17.504,16.011,20.585
				C283.416,233.054,287.724,214.224,287.724,214.224z"/>
			<path style="fill:#263238;" d="M287.724,214.224c0,0-4.765,7.565-9.645,5.46c-4.879-2.105-8.692-3.637-8.692-3.637
				s-10.167,1.975-13.013,0c-2.846-1.975-5.133-6.397-5.133-6.397s-1.659,17.504,16.011,20.585
				C283.416,233.054,287.724,214.224,287.724,214.224z"/>
			<path style="fill:#407BFF;" d="M260.251,216.911c3.994,0.134,9.137-0.864,9.137-0.864s2.829,1.137,6.729,2.797
				c-0.302,1.969-0.515,5.56,0.413,10.972c1.511,8.806-4.779,14.143-11.869,13.076c-7.091-1.067-9.115-8.389-6.862-13.876
				C259.573,224.694,260.097,219.706,260.251,216.911z"/>
			<path style="fill:#FF5652;" d="M260.251,216.911c3.994,0.134,9.137-0.864,9.137-0.864s2.829,1.137,6.729,2.797
				c-0.302,1.969-0.515,5.56,0.413,10.972c1.511,8.806-4.779,14.143-11.869,13.076c-7.091-1.067-9.115-8.389-6.862-13.876
				C259.573,224.694,260.097,219.706,260.251,216.911z"/>
		</g>
		<path style="fill:#407BFF;" d="M312.083,272.473c2.235,7.078,4.734,14.638,2.52,29.582c-2.215,14.943-1.3,25.922-5.569,48.49
			c-4.27,22.568-5.735,41.171,3.08,49.1c0,0,10.339,1.22,10.644,12.809l0,0c0,1.684-1.365,3.05-3.05,3.05H294.09
			c0,0-5.489-0.61-5.794-8.539c0,0-5.87-0.77-3.965-13.419l-1.83-14.638c0,0,4.879-7.929,2.44-27.752
			C282.501,331.332,295.556,220.132,312.083,272.473z"/>
		<g>
			<g>
				<g>
					<path style="fill:#407BFF;" d="M209.776,415.504H207c0.096-2.954,0.384-5.969,1.354-8.724c0.342-0.97,0.786-2.215,1.6-2.914
						c1.368-1.176,3.37,0.808,1.992,1.992C210.113,407.433,209.822,412.053,209.776,415.504z"/>
					<path style="fill:#407BFF;" d="M198.089,406.78c0.342-0.97,0.786-2.215,1.6-2.914c1.368-1.176,3.37,0.808,1.992,1.992
						c-1.833,1.576-2.124,6.196-2.17,9.646h-2.776C196.83,412.55,197.119,409.535,198.089,406.78z"/>
					<path style="fill:#407BFF;" d="M188.467,411.497c0.414-1.672,0.95-3.306,1.706-4.848c0.498-1.014,1.132-2.147,2.102-2.787
						c1.518-1.001,2.931,1.438,1.422,2.432c0.396-0.261-0.09,0.081-0.233,0.293c-0.319,0.478-0.608,0.965-0.859,1.483
						c-0.987,2.039-1.554,4.307-1.958,6.579C189.548,413.925,188.749,412.798,188.467,411.497z"/>
				</g>
				<g>
					<path style="fill:#407BFF;" d="M303.767,415.504h-2.777c0.306-3.375-0.239-7.044-2.031-9.931
						c-0.959-1.545,1.477-2.961,2.432-1.422C303.465,407.492,304.062,411.608,303.767,415.504z"/>
					<path style="fill:#407BFF;" d="M314.646,415.504c-0.003-0.765-0.055-1.532-0.179-2.286c-0.513-3.125-1.972-5.908-4.02-8.299
						c-1.173-1.37,0.81-3.372,1.992-1.992c2.967,3.464,5.085,7.953,5.037,12.577H314.646z"/>
				</g>
			</g>
			<g style="opacity:0.5;">
				<g>
					<path style="opacity:0.2;" d="M209.776,415.504H207c0.096-2.954,0.384-5.969,1.354-8.724c0.342-0.97,0.786-2.215,1.6-2.914
						c1.368-1.176,3.37,0.808,1.992,1.992C210.113,407.433,209.822,412.053,209.776,415.504z"/>
					<path style="opacity:0.2;" d="M198.089,406.78c0.342-0.97,0.786-2.215,1.6-2.914c1.368-1.176,3.37,0.808,1.992,1.992
						c-1.833,1.576-2.124,6.196-2.17,9.646h-2.776C196.83,412.55,197.119,409.535,198.089,406.78z"/>
					<path style="opacity:0.2;" d="M188.467,411.497c0.414-1.672,0.95-3.306,1.706-4.848c0.498-1.014,1.132-2.147,2.102-2.787
						c1.518-1.001,2.931,1.438,1.422,2.432c0.396-0.261-0.09,0.081-0.233,0.293c-0.319,0.478-0.608,0.965-0.859,1.483
						c-0.987,2.039-1.554,4.307-1.958,6.579C189.548,413.925,188.749,412.798,188.467,411.497z"/>
				</g>
				<g style="opacity:0.2;">
					<path d="M303.767,415.504h-2.777c0.306-3.375-0.239-7.044-2.031-9.931c-0.959-1.545,1.477-2.961,2.432-1.422
						C303.465,407.492,304.062,411.608,303.767,415.504z"/>
					<path d="M310.447,404.919c-1.173-1.37,0.81-3.372,1.992-1.992c2.967,3.464,5.085,7.953,5.037,12.577h-2.83
						c-0.003-0.765-0.055-1.532-0.179-2.286"/>
				</g>
			</g>
		</g>
		<path style="opacity:0.2;" d="M304.529,398.993c-2.081-0.745-5.122-1.286-8.783-0.323c-0.688,0.181-1.124-0.731-0.557-1.161
			c2.218-1.683,5.904-3.212,9.976,0.359C305.712,398.349,305.215,399.239,304.529,398.993z"/>
		<g>
			<g>
				<path style="fill:#407BFF;" d="M206.411,163.142c0,0-2.44-5.947-3.355-5.49c-0.915,0.458,0,7.777,0,7.777L206.411,163.142z"/>
				<path style="fill:#407BFF;" d="M216.171,151.066c0,0-0.873-1.659-0.968-3.656c-0.037-0.779-0.976-1.159-1.503-0.584
					c-0.874,0.953-1.73,2.38-1.599,4.24H216.171z"/>
				<path style="fill:#407BFF;" d="M224.584,149.148c0,0-0.986-1.178-1.118-3.049c-0.055-0.775-1.07-1.069-1.54-0.451
					c-0.86,1.133-1.617,2.818-1.154,4.995L224.584,149.148z"/>
				<path style="fill:#407BFF;" d="M235.993,157.627c0,0-0.078-2.006,0.986-3.599c0.437-0.654-0.17-1.49-0.92-1.256
					c-1.632,0.507-3.349,1.772-3.268,4.855H235.993z"/>
			</g>
			<g style="opacity:0.5;">
				<path style="fill:#FFFFFF;" d="M206.411,163.142c0,0-2.44-5.947-3.355-5.49c-0.915,0.458,0,7.777,0,7.777L206.411,163.142z"/>
				<path style="fill:#FFFFFF;" d="M216.171,151.066c0,0-0.873-1.659-0.968-3.656c-0.037-0.779-0.976-1.159-1.503-0.584
					c-0.874,0.953-1.73,2.38-1.599,4.24H216.171z"/>
				<path style="fill:#FFFFFF;" d="M224.584,149.148c0,0-0.986-1.178-1.118-3.049c-0.055-0.775-1.07-1.069-1.54-0.451
					c-0.86,1.133-1.617,2.818-1.154,4.995L224.584,149.148z"/>
				<path style="fill:#FFFFFF;" d="M235.993,157.627c0,0-0.078-2.006,0.986-3.599c0.437-0.654-0.17-1.49-0.92-1.256
					c-1.632,0.507-3.349,1.772-3.268,4.855H235.993z"/>
			</g>
			<g style="opacity:0.5;">
				<path d="M206.411,163.142c0,0-2.44-5.947-3.355-5.49c-0.915,0.458,0,7.777,0,7.777L206.411,163.142z"/>
				<path d="M216.171,151.066c0,0-0.873-1.659-0.968-3.656c-0.037-0.779-0.976-1.159-1.503-0.584c-0.874,0.953-1.73,2.38-1.599,4.24
					H216.171z"/>
				<path d="M224.584,149.148c0,0-0.986-1.178-1.118-3.049c-0.055-0.775-1.07-1.069-1.54-0.451c-0.86,1.133-1.617,2.818-1.154,4.995
					L224.584,149.148z"/>
				<path d="M235.993,157.627c0,0-0.078-2.006,0.986-3.599c0.437-0.654-0.17-1.49-0.92-1.256c-1.632,0.507-3.349,1.772-3.268,4.855
					H235.993z"/>
			</g>
		</g>
		<g>
			<path style="opacity:0.2;" d="M303.376,220.455c-0.752,4.036-0.9,8.171-0.881,11.042c-1.705,0.56-3.543,1.068-5.526,1.506
				c-1.978,0.436-3.222-2.038-1.679-3.351C298.036,227.317,301.124,224.183,303.376,220.455z"/>
			<path style="opacity:0.2;" d="M232.541,221.155c-0.586-3.641-1.258-8.663-1.531-13.842c2.278,5.119,5.85,10.035,8.995,13.529
				c1.364,1.516-0.251,3.812-2.151,3.073c-1.15-0.447-2.376-1.012-3.636-1.695c0.753,6.205,2.132,15.468,4.063,19.909
				c3.05,7.014,3.022,11.446,3.022,11.446l-8.679,0.905l-8.677-14.626C225.975,232.221,228.701,225.606,232.541,221.155z"/>
		</g>
		<path style="opacity:0.2;" d="M219.225,267.051c5.957-1.93,13.699-1.857,13.699-1.857l10.519,6.43c0,0,5.879,25.704-8.87,31.199
			c-4.454,1.659-15.695-3.09-17.125-20.15C218.019,277.783,218.575,272.474,219.225,267.051z"/>
		<path style="fill:#407BFF;" d="M238.281,247.161c0,0,7.491,10.3,4.425,28.849c-0.819,4.955-5.336,8.44-10.345,8.079
			c-6.275-0.452-14.19-1.617-16.648-4.602c-4.27-5.184-8.844-14.333-8.234-26.227c0.61-11.894,1.22-46.355,1.22-46.355
			s1.72-15.248-1.275-23.178c-2.995-7.929-7.874-18.603-4.52-21.348c1.314-1.075,2.722-1.308,3.949-1.193
			c1.474,0.138,2.629-1.239,2.322-2.688c-0.665-3.147-1.046-7.233,1.095-8.318c1.723-0.873,3.664-0.705,5.224-0.291
			c1.492,0.396,3.126,0.089,4.259-0.958c0.991-0.916,2.668-1.502,5.413-0.178c2.516,1.213,3.559,3.344,3.95,5.296
			c0.3,1.499,2.004,2.255,3.354,1.538c1.497-0.794,3.285-1.089,4.895,0.387c3.66,3.355,1.83,10.674-0.61,15.858
			c-2.44,5.184-0.915,28.972-3.965,37.816C229.742,218.494,231.571,240.146,238.281,247.161z"/>
		<path style="fill:#263238;" d="M231.376,163.273c0,1.588,1.287,2.875,2.875,2.875c1.588,0,2.876-1.287,2.876-2.875
			c0-1.588-1.287-3.79-2.876-3.79C232.663,159.482,231.376,161.684,231.376,163.273z"/>
		<path style="fill:#263238;" d="M221.796,155.386c0.803,2.181,2.701,2.575,4.241,2.009c1.539-0.567,2.137-1.879,1.334-4.06
			c-0.803-2.181-2.701-3.49-4.241-2.923C221.591,150.977,220.994,153.205,221.796,155.386z"/>
		<path style="fill:#263238;" d="M205.631,170.149c1.823,1.442,3.976,0.374,5.321-1.326c1.345-1.699,1.372-3.386-0.451-4.828
			c-1.822-1.442-4.39-2.149-5.735-0.449S203.809,168.706,205.631,170.149z"/>
		<path style="fill:#263238;" d="M212.118,157.783c0.437,2.856,2.329,3.871,4.41,3.553c2.081-0.318,2.648-1.849,2.212-4.705
			c-0.437-2.856-2.478-4.913-4.559-4.595C212.1,152.353,211.682,154.927,212.118,157.783z"/>
		<path style="fill:#263238;" d="M227.728,174.578c1.578,0.062,5.826,0.458,5.826-2.44c0-2.897-6.099-2.36-7.624-5.45
			c-1.525-3.089-6.709-4.382-8.082,0c-1.372,4.382-8.445,5.297-5.747,8.957C214.798,179.305,220.383,174.29,227.728,174.578z"/>
		<path style="opacity:0.3;fill:#FFFFFF;" d="M223.584,246.641c6.287-2.413,4.523-13.587,4.523-26.555
			c0-26.429,6.214-39.814-6.499-39.111c-12.714,0.702-6.693,25.65-7.187,39.48C213.926,234.285,210.259,251.754,223.584,246.641z"/>
		<path style="fill:#263238;" d="M221.107,205.99c1.152,0.068,4.237,1.067,4.237-1.83s-7.167-2.287-7.472,0
			C217.568,206.447,220.18,205.935,221.107,205.99z"/>
	</g>
</g>
<!--<g id="Plants">-->
<!--	<g>-->
<!--		<g>-->
<!--			<g>-->
<!--				<path style="fill:#407BFF;" d="M69.543,405.749c-1.892,1.735-4.072,3.156-6.422,4.188c2.454-0.378,4.989-0.222,7.378,0.454-->
<!--					c-2.083,0.85-4.359,1.224-6.604,1.086c1.432,0.31,2.799,0.915,3.991,1.766c-3.002,0.29-6.004,0.579-9.006,0.869-->
<!--					c-0.312-0.847-0.223-1.833,0.235-2.61C60.844,408.567,66.496,406.629,69.543,405.749z"/>-->
<!--				<path style="opacity:0.7;fill:#FFFFFF;" d="M69.543,405.749c-1.892,1.735-4.072,3.156-6.422,4.188-->
<!--					c2.454-0.378,4.989-0.222,7.378,0.454c-2.083,0.85-4.359,1.224-6.604,1.086c1.432,0.31,2.799,0.915,3.991,1.766-->
<!--					c-3.002,0.29-6.004,0.579-9.006,0.869c-0.312-0.847-0.223-1.833,0.235-2.61C60.844,408.567,66.496,406.629,69.543,405.749z"/>-->
<!--			</g>-->
<!--			<g>-->
<!--				<g>-->
<!--					<g>-->
<!--						<path style="fill:#407BFF;" d="M83.408,404.415c2.411,1.208,4.578,2.901,6.334,4.947c-2.109-0.393-4.31-0.288-6.373,0.303-->
<!--							c2.579,0.343,5.158,0.687,7.737,1.03c-1.684,0.205-3.286,1.032-4.428,2.287c2.089-0.629,4.334-0.732,6.472-0.297-->
<!--							c0.784,0.16,1.571,0.392,2.369,0.326c0.798-0.065,1.631-0.518,1.852-1.287c0.182-0.636-0.091-1.311-0.426-1.881-->
<!--							C94.243,405.253,88.242,404.548,83.408,404.415z"/>-->
<!--						<path style="opacity:0.2;fill:#FFFFFF;" d="M83.408,404.415c2.411,1.208,4.578,2.901,6.334,4.947-->
<!--							c-2.109-0.393-4.31-0.288-6.373,0.303c2.579,0.343,5.158,0.687,7.737,1.03c-1.684,0.205-3.286,1.032-4.428,2.287-->
<!--							c2.089-0.629,4.334-0.732,6.472-0.297c0.784,0.16,1.571,0.392,2.369,0.326c0.798-0.065,1.631-0.518,1.852-1.287-->
<!--							c0.182-0.636-0.091-1.311-0.426-1.881C94.243,405.253,88.242,404.548,83.408,404.415z"/>-->
<!--					</g>-->
<!--					<g>-->
<!--						<g>-->
<!--							<path style="fill:#407BFF;" d="M122.943,405.354c-1.892,1.735-4.072,3.156-6.422,4.188c2.454-0.378,4.989-0.222,7.378,0.454-->
<!--								c-2.083,0.85-4.359,1.225-6.604,1.086c1.432,0.31,2.799,0.915,3.991,1.767c-3.002,0.29-6.004,0.579-9.006,0.869-->
<!--								c-0.312-0.847-0.223-1.833,0.235-2.61C114.244,408.172,119.896,406.234,122.943,405.354z"/>-->
<!--							<path style="opacity:0.2;fill:#FFFFFF;" d="M122.943,405.354c-1.892,1.735-4.072,3.156-6.422,4.188-->
<!--								c2.454-0.378,4.989-0.222,7.378,0.454c-2.083,0.85-4.359,1.225-6.604,1.086c1.432,0.31,2.799,0.915,3.991,1.767-->
<!--								c-3.002,0.29-6.004,0.579-9.006,0.869c-0.312-0.847-0.223-1.833,0.235-2.61C114.244,408.172,119.896,406.234,122.943,405.354-->
<!--								z"/>-->
<!--						</g>-->
<!--						<g>-->
<!--							<path style="fill:#407BFF;" d="M97.191,390.185c-1.757-8.346-8.473-13.408-15.316-18.497-->
<!--								c4.164,7.135,9.058,13.674,11.251,21.638c-2.441-3.717-7.387-8.307-11.26-10.527c0,0,6.32,12.272,8.739,14.65-->
<!--								c-5.279-5.19-11.185-8.398-18.515-9.435c13.247,8.796,17.959,17.039,19.774,21.927c0.876,2.36,3.159,3.9,5.676,3.883-->
<!--								l14.022-0.096c2.517-0.017,4.726-1.615,5.603-3.974c2.454-6.607,6.725-12.282,13.072-15.538-->
<!--								c-5.335,1.492-9.825,2.573-13.028,7.093c1.991-6.6,5.383-10.425,11.69-13.207c-5.856,0.943-11.639,3.122-14.032,8.549-->
<!--								c0.704-6.651,3.426-11.486,8.721-15.571c-5.018,0.756-9.839,4.333-10.802,9.315c-0.166-6.639,0.542-13.333,4.169-18.896-->
<!--								c-4.596,3.114-8.189,8.067-9.089,14.279c-1.564-5.727-2.337-14.09-9.004-21.58c3.774,11.26,2.352,20.211,2.352,20.211-->
<!--								c-0.569-3.487-5.793-12.35-10.784-15.58C90.429,368.828,97.718,381.815,97.191,390.185z"/>-->
<!--						</g>-->
<!--						<g style="opacity:0.6;">-->
<!--							<path style="opacity:0.7;fill:#FFFFFF;" d="M97.191,390.185c-1.757-8.346-8.473-13.408-15.316-18.497-->
<!--								c4.164,7.135,9.058,13.674,11.251,21.638c-2.441-3.717-7.387-8.307-11.26-10.527c0,0,6.32,12.272,8.739,14.65-->
<!--								c-5.279-5.19-11.185-8.398-18.515-9.435c13.247,8.796,17.959,17.039,19.774,21.927c0.876,2.36,3.159,3.9,5.676,3.883-->
<!--								l14.022-0.096c2.517-0.017,4.726-1.615,5.603-3.974c2.454-6.607,6.725-12.282,13.072-15.538-->
<!--								c-5.335,1.492-9.825,2.573-13.028,7.093c1.991-6.6,5.383-10.425,11.69-13.207c-5.856,0.943-11.639,3.122-14.032,8.549-->
<!--								c0.704-6.651,3.426-11.486,8.721-15.571c-5.018,0.756-9.839,4.333-10.802,9.315c-0.166-6.639,0.542-13.333,4.169-18.896-->
<!--								c-4.596,3.114-8.189,8.067-9.089,14.279c-1.564-5.727-2.337-14.09-9.004-21.58c3.774,11.26,2.352,20.211,2.352,20.211-->
<!--								c-0.569-3.487-5.793-12.35-10.784-15.58C90.429,368.828,97.718,381.815,97.191,390.185z"/>-->
<!--						</g>-->
<!--					</g>-->
<!--				</g>-->
<!--				<g>-->
<!--					<g>-->
<!--						<path style="fill:#407BFF;" d="M71.2,390.185c-1.757-8.346-8.473-13.408-15.316-18.497-->
<!--							c4.164,7.135,9.058,13.674,11.251,21.638c-2.441-3.717-7.387-8.307-11.26-10.527c0,0,6.32,12.272,8.739,14.65-->
<!--							c-5.279-5.19-11.185-8.398-18.515-9.435c13.247,8.796,17.959,17.039,19.774,21.927c0.876,2.36,3.159,3.9,5.676,3.883-->
<!--							l14.022-0.096c2.517-0.017,4.726-1.615,5.603-3.974c2.454-6.607,6.725-12.282,13.072-15.538-->
<!--							c-5.335,1.492-9.825,2.573-13.028,7.093c1.991-6.6,5.383-10.425,11.69-13.207c-5.855,0.943-11.639,3.122-14.032,8.549-->
<!--							c0.704-6.651,3.426-11.486,8.721-15.571c-5.018,0.756-9.839,4.333-10.802,9.315c-0.166-6.639,0.542-13.333,4.169-18.896-->
<!--							c-4.596,3.114-8.189,8.067-9.089,14.279c-1.564-5.727-2.337-14.09-9.004-21.58c3.774,11.26,2.352,20.211,2.352,20.211-->
<!--							c-0.569-3.487-5.793-12.35-10.784-15.58C64.438,368.828,71.726,381.815,71.2,390.185z"/>-->
<!--						<path style="fill:#407BFF;" d="M57.416,404.415c2.411,1.208,4.578,2.901,6.334,4.947c-2.109-0.393-4.31-0.288-6.373,0.303-->
<!--							c2.579,0.343,5.158,0.687,7.737,1.03c-1.684,0.205-3.286,1.032-4.428,2.287c2.089-0.629,4.334-0.732,6.472-0.297-->
<!--							c0.784,0.16,1.571,0.392,2.369,0.326c0.798-0.065,1.632-0.518,1.852-1.287c0.182-0.636-0.091-1.311-0.426-1.881-->
<!--							C68.251,405.253,62.25,404.548,57.416,404.415z"/>-->
<!--						<path style="fill:#407BFF;" d="M96.952,405.354c-1.892,1.735-4.072,3.156-6.422,4.188c2.454-0.378,4.989-0.222,7.378,0.454-->
<!--							c-2.083,0.85-4.359,1.225-6.604,1.086c1.432,0.31,2.799,0.915,3.991,1.767c-3.002,0.29-6.004,0.579-9.006,0.869-->
<!--							c-0.312-0.847-0.223-1.833,0.235-2.61C88.253,408.172,93.904,406.234,96.952,405.354z"/>-->
<!--					</g>-->
<!--					<g style="opacity:0.6;">-->
<!--						<path style="fill:#FFFFFF;" d="M71.2,390.185c-1.757-8.346-8.473-13.408-15.316-18.497-->
<!--							c4.164,7.135,9.058,13.674,11.251,21.638c-2.441-3.717-7.387-8.307-11.26-10.527c0,0,6.32,12.272,8.739,14.65-->
<!--							c-5.279-5.19-11.185-8.398-18.515-9.435c13.247,8.796,17.959,17.039,19.774,21.927c0.876,2.36,3.159,3.9,5.676,3.883-->
<!--							l14.022-0.096c2.517-0.017,4.726-1.615,5.603-3.974c2.454-6.607,6.725-12.282,13.072-15.538-->
<!--							c-5.335,1.492-9.825,2.573-13.028,7.093c1.991-6.6,5.383-10.425,11.69-13.207c-5.855,0.943-11.639,3.122-14.032,8.549-->
<!--							c0.704-6.651,3.426-11.486,8.721-15.571c-5.018,0.756-9.839,4.333-10.802,9.315c-0.166-6.639,0.542-13.333,4.169-18.896-->
<!--							c-4.596,3.114-8.189,8.067-9.089,14.279c-1.564-5.727-2.337-14.09-9.004-21.58c3.774,11.26,2.352,20.211,2.352,20.211-->
<!--							c-0.569-3.487-5.793-12.35-10.784-15.58C64.438,368.828,71.726,381.815,71.2,390.185z"/>-->
<!--						<path style="fill:#FFFFFF;" d="M57.416,404.415c2.411,1.208,4.578,2.901,6.334,4.947c-2.109-0.393-4.31-0.288-6.373,0.303-->
<!--							c2.579,0.343,5.158,0.687,7.737,1.03c-1.684,0.205-3.286,1.032-4.428,2.287c2.089-0.629,4.334-0.732,6.472-0.297-->
<!--							c0.784,0.16,1.571,0.392,2.369,0.326c0.798-0.065,1.632-0.518,1.852-1.287c0.182-0.636-0.091-1.311-0.426-1.881-->
<!--							C68.251,405.253,62.25,404.548,57.416,404.415z"/>-->
<!--						<path style="fill:#FFFFFF;" d="M96.952,405.354c-1.892,1.735-4.072,3.156-6.422,4.188c2.454-0.378,4.989-0.222,7.378,0.454-->
<!--							c-2.083,0.85-4.359,1.225-6.604,1.086c1.432,0.31,2.799,0.915,3.991,1.767c-3.002,0.29-6.004,0.579-9.006,0.869-->
<!--							c-0.312-0.847-0.223-1.833,0.235-2.61C88.253,408.172,93.904,406.234,96.952,405.354z"/>-->
<!--					</g>-->
<!--				</g>-->
<!--			</g>-->
<!--		</g>-->
<!--		<g>-->
<!--			<g>-->
<!--				<g>-->
<!--					<path style="fill:#407BFF;" d="M414.242,377.651c1.808,0.906,3.433,2.175,4.75,3.71c-1.582-0.295-3.232-0.216-4.779,0.227-->
<!--						c1.934,0.257,3.868,0.515,5.802,0.772c-1.263,0.154-2.465,0.774-3.321,1.715c1.567-0.472,3.25-0.549,4.854-0.223-->
<!--						c0.588,0.12,1.178,0.294,1.776,0.245c0.598-0.049,1.224-0.389,1.389-0.965c0.137-0.477-0.068-0.983-0.32-1.41-->
<!--						C422.367,378.279,417.867,377.751,414.242,377.651z"/>-->
<!--					<path style="opacity:0.2;fill:#FFFFFF;" d="M414.242,377.651c1.808,0.906,3.433,2.175,4.75,3.71-->
<!--						c-1.582-0.295-3.232-0.216-4.779,0.227c1.934,0.257,3.868,0.515,5.802,0.772c-1.263,0.154-2.465,0.774-3.321,1.715-->
<!--						c1.567-0.472,3.25-0.549,4.854-0.223c0.588,0.12,1.178,0.294,1.776,0.245c0.598-0.049,1.224-0.389,1.389-0.965-->
<!--						c0.137-0.477-0.068-0.983-0.32-1.41C422.367,378.279,417.867,377.751,414.242,377.651z"/>-->
<!--				</g>-->
<!--				<g>-->
<!--					<g>-->
<!--						<path style="fill:#407BFF;" d="M443.891,378.355c-1.419,1.301-3.054,2.367-4.816,3.141c1.84-0.284,3.741-0.167,5.533,0.34-->
<!--							c-1.562,0.638-3.269,0.918-4.953,0.815c1.074,0.233,2.099,0.686,2.993,1.325c-2.251,0.217-4.503,0.435-6.754,0.652-->
<!--							c-0.234-0.635-0.168-1.374,0.176-1.958C437.367,380.468,441.606,379.015,443.891,378.355z"/>-->
<!--						<path style="opacity:0.2;fill:#FFFFFF;" d="M443.891,378.355c-1.419,1.301-3.054,2.367-4.816,3.141-->
<!--							c1.84-0.284,3.741-0.167,5.533,0.34c-1.562,0.638-3.269,0.918-4.953,0.815c1.074,0.233,2.099,0.686,2.993,1.325-->
<!--							c-2.251,0.217-4.503,0.435-6.754,0.652c-0.234-0.635-0.168-1.374,0.176-1.958-->
<!--							C437.367,380.468,441.606,379.015,443.891,378.355z"/>-->
<!--					</g>-->
<!--					<g>-->
<!--						<path style="fill:#407BFF;" d="M424.578,366.979c-1.317-6.259-6.354-10.055-11.486-13.872-->
<!--							c3.123,5.351,6.793,10.255,8.438,16.227c-1.83-2.788-5.54-6.23-8.445-7.895c0,0,4.74,9.204,6.554,10.987-->
<!--							c-3.959-3.892-8.388-6.298-13.885-7.076c9.935,6.596,13.469,12.778,14.829,16.444c0.657,1.77,2.369,2.925,4.257,2.912-->
<!--							l10.516-0.072c1.887-0.013,3.545-1.211,4.202-2.98c1.841-4.955,5.043-9.211,9.803-11.653c-4.001,1.119-7.368,1.93-9.771,5.319-->
<!--							c1.493-4.949,4.037-7.818,8.767-9.905c-4.391,0.707-8.729,2.341-10.523,6.411c0.528-4.988,2.569-8.614,6.54-11.677-->
<!--							c-3.763,0.567-7.378,3.249-8.101,6.986c-0.125-4.979,0.406-9.999,3.127-14.171c-3.447,2.335-6.141,6.049-6.816,10.709-->
<!--							c-1.173-4.295-1.753-10.567-6.753-16.184c2.83,8.444,1.764,15.157,1.764,15.157c-0.427-2.615-4.345-9.262-8.088-11.684-->
<!--							C419.507,350.962,424.973,360.702,424.578,366.979z"/>-->
<!--					</g>-->
<!--					<g style="opacity:0.6;">-->
<!--						<path style="opacity:0.7;fill:#FFFFFF;" d="M424.578,366.979c-1.317-6.259-6.354-10.055-11.486-13.872-->
<!--							c3.123,5.351,6.793,10.255,8.438,16.227c-1.83-2.788-5.54-6.23-8.445-7.895c0,0,4.74,9.204,6.554,10.987-->
<!--							c-3.959-3.892-8.388-6.298-13.885-7.076c9.935,6.596,13.469,12.778,14.829,16.444c0.657,1.77,2.369,2.925,4.257,2.912-->
<!--							l10.516-0.072c1.887-0.013,3.545-1.211,4.202-2.98c1.841-4.955,5.043-9.211,9.803-11.653c-4.001,1.119-7.368,1.93-9.771,5.319-->
<!--							c1.493-4.949,4.037-7.818,8.767-9.905c-4.391,0.707-8.729,2.341-10.523,6.411c0.528-4.988,2.569-8.614,6.54-11.677-->
<!--							c-3.763,0.567-7.378,3.249-8.101,6.986c-0.125-4.979,0.406-9.999,3.127-14.171c-3.447,2.335-6.141,6.049-6.816,10.709-->
<!--							c-1.173-4.295-1.753-10.567-6.753-16.184c2.83,8.444,1.764,15.157,1.764,15.157c-0.427-2.615-4.345-9.262-8.088-11.684-->
<!--							C419.507,350.962,424.973,360.702,424.578,366.979z"/>-->
<!--					</g>-->
<!--				</g>-->
<!--			</g>-->
<!--			<g>-->
<!--				<g>-->
<!--					<path style="fill:#407BFF;" d="M405.086,366.979c-1.317-6.259-6.354-10.055-11.486-13.872-->
<!--						c3.122,5.351,6.793,10.255,8.438,16.227c-1.83-2.788-5.54-6.23-8.445-7.895c0,0,4.74,9.204,6.554,10.987-->
<!--						c-3.959-3.892-8.388-6.298-13.886-7.076c9.935,6.596,13.469,12.778,14.829,16.444c0.657,1.77,2.369,2.925,4.257,2.912-->
<!--						l10.516-0.072c1.887-0.013,3.545-1.211,4.202-2.98c1.841-4.955,5.043-9.211,9.803-11.653c-4.001,1.119-7.368,1.93-9.771,5.319-->
<!--						c1.493-4.949,4.037-7.818,8.767-9.905c-4.391,0.707-8.729,2.341-10.523,6.411c0.528-4.988,2.569-8.614,6.54-11.677-->
<!--						c-3.763,0.567-7.378,3.249-8.101,6.986c-0.125-4.979,0.407-9.999,3.127-14.171c-3.447,2.335-6.141,6.049-6.816,10.709-->
<!--						c-1.173-4.295-1.753-10.567-6.753-16.184c2.83,8.444,1.764,15.157,1.764,15.157c-0.427-2.615-4.345-9.262-8.088-11.684-->
<!--						C400.015,350.962,405.481,360.702,405.086,366.979z"/>-->
<!--					<path style="fill:#407BFF;" d="M394.749,377.651c1.808,0.906,3.433,2.175,4.75,3.71c-1.582-0.295-3.232-0.216-4.779,0.227-->
<!--						c1.934,0.257,3.868,0.515,5.802,0.772c-1.263,0.154-2.464,0.774-3.321,1.715c1.567-0.472,3.25-0.549,4.854-0.223-->
<!--						c0.588,0.12,1.178,0.294,1.776,0.245c0.598-0.049,1.224-0.389,1.389-0.965c0.137-0.477-0.068-0.983-0.32-1.41-->
<!--						C402.875,378.279,398.374,377.751,394.749,377.651z"/>-->
<!--					<path style="fill:#407BFF;" d="M424.399,378.355c-1.419,1.301-3.054,2.367-4.816,3.141c1.84-0.284,3.741-0.167,5.533,0.34-->
<!--						c-1.562,0.638-3.269,0.918-4.953,0.815c1.074,0.233,2.099,0.686,2.993,1.325c-2.251,0.217-4.503,0.435-6.754,0.652-->
<!--						c-0.234-0.635-0.168-1.374,0.176-1.958C417.875,380.468,422.113,379.015,424.399,378.355z"/>-->
<!--				</g>-->
<!--				<g style="opacity:0.6;">-->
<!--					<path style="fill:#FFFFFF;" d="M405.086,366.979c-1.317-6.259-6.354-10.055-11.486-13.872-->
<!--						c3.122,5.351,6.793,10.255,8.438,16.227c-1.83-2.788-5.54-6.23-8.445-7.895c0,0,4.74,9.204,6.554,10.987-->
<!--						c-3.959-3.892-8.388-6.298-13.886-7.076c9.935,6.596,13.469,12.778,14.829,16.444c0.657,1.77,2.369,2.925,4.257,2.912-->
<!--						l10.516-0.072c1.887-0.013,3.545-1.211,4.202-2.98c1.841-4.955,5.043-9.211,9.803-11.653c-4.001,1.119-7.368,1.93-9.771,5.319-->
<!--						c1.493-4.949,4.037-7.818,8.767-9.905c-4.391,0.707-8.729,2.341-10.523,6.411c0.528-4.988,2.569-8.614,6.54-11.677-->
<!--						c-3.763,0.567-7.378,3.249-8.101,6.986c-0.125-4.979,0.407-9.999,3.127-14.171c-3.447,2.335-6.141,6.049-6.816,10.709-->
<!--						c-1.173-4.295-1.753-10.567-6.753-16.184c2.83,8.444,1.764,15.157,1.764,15.157c-0.427-2.615-4.345-9.262-8.088-11.684-->
<!--						C400.015,350.962,405.481,360.702,405.086,366.979z"/>-->
<!--					<path style="fill:#FFFFFF;" d="M394.749,377.651c1.808,0.906,3.433,2.175,4.75,3.71c-1.582-0.295-3.232-0.216-4.779,0.227-->
<!--						c1.934,0.257,3.868,0.515,5.802,0.772c-1.263,0.154-2.464,0.774-3.321,1.715c1.567-0.472,3.25-0.549,4.854-0.223-->
<!--						c0.588,0.12,1.178,0.294,1.776,0.245c0.598-0.049,1.224-0.389,1.389-0.965c0.137-0.477-0.068-0.983-0.32-1.41-->
<!--						C402.875,378.279,398.374,377.751,394.749,377.651z"/>-->
<!--					<path style="fill:#FFFFFF;" d="M424.399,378.355c-1.419,1.301-3.054,2.367-4.816,3.141c1.84-0.284,3.741-0.167,5.533,0.34-->
<!--						c-1.562,0.638-3.269,0.918-4.953,0.815c1.074,0.233,2.099,0.686,2.993,1.325c-2.251,0.217-4.503,0.435-6.754,0.652-->
<!--						c-0.234-0.635-0.168-1.374,0.176-1.958C417.875,380.468,422.113,379.015,424.399,378.355z"/>-->
<!--				</g>-->
<!--			</g>-->
<!--		</g>-->
<!--	</g>-->
<!--</g>-->
</svg>
