<?xml version="1.0" encoding="utf-8"?>
<!-- Generator: Adobe Illustrator 27.5.0, SVG Export Plug-In . SVG Version: 6.00 Build 0)  -->
<svg version="1.1" xmlns="http://www.w3.org/2000/svg" xmlns:xlink="http://www.w3.org/1999/xlink" x="0px" y="0px"
	 viewBox="0 0 500 500" style="enable-background:new 0 0 500 500;" xml:space="preserve">
<!--<g id="Background_Complete">-->
<!--	<g>-->
<!--		<g>-->
<!--			<rect y="382.398" style="fill:#EBEBEB;" width="500" height="0.25"/>-->
<!--			<path style="fill:#EBEBEB;" d="M237.014,337.8H43.915c-3.147,0-5.708-2.561-5.708-5.708V60.66c0-3.147,2.561-5.708,5.708-5.708-->
<!--				h193.099c3.146,0,5.707,2.561,5.707,5.708v271.432C242.721,335.239,240.16,337.8,237.014,337.8z M43.915,55.203-->
<!--				c-3.01,0-5.458,2.448-5.458,5.458v271.432c0,3.01,2.448,5.458,5.458,5.458h193.099c3.009,0,5.457-2.448,5.457-5.458V60.66-->
<!--				c0-3.009-2.448-5.458-5.457-5.458H43.915z"/>-->
<!--			<path style="fill:#EBEBEB;" d="M453.31,337.8H260.212c-3.147,0-5.707-2.561-5.707-5.708V60.66c0-3.147,2.561-5.708,5.707-5.708-->
<!--				H453.31c3.148,0,5.708,2.561,5.708,5.708v271.432C459.019,335.239,456.458,337.8,453.31,337.8z M260.212,55.203-->
<!--				c-3.009,0-5.457,2.448-5.457,5.458v271.432c0,3.01,2.448,5.458,5.457,5.458H453.31c3.01,0,5.458-2.448,5.458-5.458V60.66-->
<!--				c0-3.009-2.448-5.458-5.458-5.458H260.212z"/>-->
<!--		</g>-->
<!--		<g>-->
<!--			<rect x="423.904" y="398.494" style="fill:#EBEBEB;" width="25.997" height="0.25"/>-->
<!--			<rect x="311" y="401.208" style="fill:#EBEBEB;" width="45.027" height="0.25"/>-->
<!--			<rect x="362.111" y="389.208" style="fill:#EBEBEB;" width="60.792" height="0.25"/>-->
<!--			<rect x="52.459" y="390.888" style="fill:#EBEBEB;" width="19.235" height="0.25"/>-->
<!--			<rect x="80.597" y="390.888" style="fill:#EBEBEB;" width="55.292" height="0.25"/>-->
<!--			<rect x="169.667" y="395.111" style="fill:#EBEBEB;" width="74.467" height="0.25"/>-->
<!--		</g>-->
<!--	</g>-->
<!--	<g>-->
<!--		<polygon style="fill:#EBEBEB;" points="55.944,173.98 55.132,181.905 41.486,176.113 		"/>-->
<!--		<polygon style="fill:#EBEBEB;" points="64.837,258.003 64.921,267.989 47.117,262.659 		"/>-->
<!--		<g>-->
<!--			<polygon style="fill:#F5F5F5;" points="443.889,73.333 410,47 370.667,50.667 348,72.333 344.778,89.222 353.222,76.333 -->
<!--				368.333,66.556 396.778,66.556 417.667,86.111 417.667,138.556 395.889,165.667 345.222,170.111 273.222,154.111 218.111,96.778 -->
<!--				158.111,86.111 90.555,109.444 49.222,156.111 45.222,215.222 56.111,271 77.889,315 49.222,382.398 238.111,382.398 -->
<!--				217.333,348.333 198,291.333 173.333,264 148,211 174.333,179.333 233.667,209 302.667,229.333 364,230.667 429.667,214.699 -->
<!--				452.667,166.333 455.333,115.667 			"/>-->
<!--			<polygon style="fill:#EBEBEB;" points="106.111,111.444 99.222,115.444 95.889,101 			"/>-->
<!--			<polygon style="fill:#EBEBEB;" points="208.672,99.585 201.768,98.918 206.742,87.007 			"/>-->
<!--			<polygon style="fill:#EBEBEB;" points="202.83,145.51 200.192,139.095 213.047,137.923 			"/>-->
<!--			<polygon style="fill:#EBEBEB;" points="221.574,199.303 228.361,197.87 227.187,210.725 			"/>-->
<!--			<polygon style="fill:#EBEBEB;" points="263.31,150.932 259.254,146.493 269.373,141.717 			"/>-->
<!--			<polygon style="fill:#EBEBEB;" points="290.979,186.387 289.347,180.6 300.533,180.872 			"/>-->
<!--			<polygon style="fill:#EBEBEB;" points="356.051,173.592 351.634,171.717 357.392,164.891 			"/>-->
<!--			<polygon style="fill:#EBEBEB;" points="372.778,192.458 369.209,189.251 376.87,184.664 			"/>-->
<!--			<polygon style="fill:#EBEBEB;" points="410.593,153.106 407.543,154.326 407.046,148.233 			"/>-->
<!--			<polygon style="fill:#EBEBEB;" points="426.096,181.575 424.482,178.714 430.455,177.413 			"/>-->
<!--			<polygon style="fill:#EBEBEB;" points="442.15,125.136 439.077,123.976 442.827,119.148 			"/>-->
<!--			<polygon style="fill:#EBEBEB;" points="451.541,145.242 449.927,142.381 455.9,141.08 			"/>-->
<!--			<polygon style="fill:#EBEBEB;" points="420.611,103.684 418.84,106.451 414.891,101.784 			"/>-->
<!--			<polygon style="fill:#EBEBEB;" points="435.013,67.316 432.567,67.259 434.011,62.94 			"/>-->
<!--			<polygon style="fill:#EBEBEB;" points="385.478,50.102 383.588,51.656 381.862,47.442 			"/>-->
<!--			<polygon style="fill:#EBEBEB;" points="354.431,67.199 354.365,69.645 350.051,68.186 			"/>-->
<!--			<polygon style="fill:#EBEBEB;" points="384.022,63.478 386.226,64.539 383.129,67.877 			"/>-->
<!--			<polygon style="fill:#EBEBEB;" points="345.365,214.975 348.052,210.999 353.648,217.958 			"/>-->
<!--			<polygon style="fill:#EBEBEB;" points="404.254,218.455 406.941,214.479 412.537,221.438 			"/>-->
<!--			<polygon style="fill:#EBEBEB;" points="291.183,218.585 294.974,213.918 301.192,223.221 			"/>-->
<!--			<polygon style="fill:#EBEBEB;" points="101.834,222.998 96.941,229.284 88.448,217.135 			"/>-->
<!--			<polygon style="fill:#EBEBEB;" points="168.345,284.606 162.629,275.584 181.808,270.368 			"/>-->
<!--			<polygon style="fill:#EBEBEB;" points="166.945,346.879 156.642,335.408 182.692,323.38 			"/>-->
<!--			<polygon style="fill:#EBEBEB;" points="89.099,351.651 74.649,362.778 62.79,330.979 			"/>-->
<!--			<polygon style="fill:#EBEBEB;" points="108.624,297.208 104.468,308.569 86.547,294.945 			"/>-->
<!--			<polygon style="fill:#EBEBEB;" points="146.216,227.988 143.734,220.418 158.556,220.157 			"/>-->
<!--			<polygon style="fill:#EBEBEB;" points="112.251,185.875 105.394,189.928 101.948,175.51 			"/>-->
<!--			<polygon style="fill:#EBEBEB;" points="149.176,129.181 142.588,124.703 154.165,115.444 			"/>-->
<!--		</g>-->
<!--		<g>-->
<!--			<polygon style="fill:#E6E6E6;" points="363.446,269.228 345.647,263.292 310.635,382.398 368.257,382.398 384.236,304.574 			"/>-->
<!--			<path style="fill:#F5F5F5;" d="M345.647,263.292l-51.834-2.313l-25.329,31.114c0,0,2.595,62.24,5.484,90.305h84.289-->
<!--				l10.156-82.342L345.647,263.292z"/>-->
<!--			<path style="fill:#E6E6E6;" d="M283.102,367.835c-0.777,0-1.434-0.599-1.494-1.385c-1.992-26.019-3.621-64.825-3.637-65.214-->
<!--				c-0.016-0.366,0.104-0.725,0.336-1.01l21.668-26.618c0.299-0.368,0.744-0.573,1.23-0.552l44.344,1.979-->
<!--				c0.828,0.037,1.469,0.738,1.432,1.565c-0.037,0.827-0.73,1.467-1.565,1.432l-43.59-1.945l-20.833,25.591-->
<!--				c0.209,4.902,1.75,40.297,3.606,64.542c0.064,0.826-0.555,1.547-1.381,1.61C283.179,367.834,283.14,367.835,283.102,367.835z"/>-->
<!--		</g>-->
<!--		<path style="fill:#F5F5F5;" d="M306.416,97.329c-11.767,2.451-13.754,4.438-16.206,16.206-->
<!--			c-2.451-11.767-4.439-13.754-16.206-16.206c11.767-2.451,13.754-4.438,16.206-16.205C292.662,92.89,294.649,94.877,306.416,97.329-->
<!--			z"/>-->
<!--		<path style="fill:#F5F5F5;" d="M83.299,74.108c-6.426,1.339-7.512,2.424-8.85,8.85c-1.339-6.426-2.424-7.512-8.85-8.85-->
<!--			c6.426-1.339,7.512-2.424,8.85-8.85C75.788,71.684,76.873,72.77,83.299,74.108z"/>-->
<!--		<path style="fill:#E6E6E6;" d="M217.523,232.923c-6.426,1.339-7.512,2.424-8.85,8.85c-1.339-6.426-2.424-7.512-8.85-8.85-->
<!--			c6.426-1.339,7.512-2.424,8.85-8.85C210.011,230.499,211.096,231.584,217.523,232.923z"/>-->
<!--		<path style="fill:#E6E6E6;" d="M383.671,125.136c-6.426,1.339-7.512,2.424-8.85,8.85c-1.339-6.426-2.424-7.512-8.85-8.85-->
<!--			c6.426-1.339,7.512-2.424,8.85-8.85C376.159,122.712,377.244,123.798,383.671,125.136z"/>-->
<!--		<path style="fill:#E6E6E6;" d="M393.086,255.87c-6.426,1.339-7.512,2.424-8.85,8.85c-1.339-6.426-2.424-7.512-8.85-8.85-->
<!--			c6.426-1.339,7.512-2.424,8.85-8.85C385.574,253.446,386.66,254.531,393.086,255.87z"/>-->
<!--		<path style="fill:#F5F5F5;" d="M453.648,299.762c-4.609,0.96-5.388,1.739-6.348,6.348c-0.96-4.609-1.739-5.388-6.348-6.348-->
<!--			c4.609-0.96,5.388-1.739,6.348-6.348C448.26,298.024,449.039,298.802,453.648,299.762z"/>-->
<!--	</g>-->
<!--</g>-->
<g id="Background_Simple" style="display:none;">
	<g style="display:inline;">
		<path style="fill:#407BFF;" d="M181.498,116.605c105.793-4.19,214.309-89.084,236.536,43.5
			c11.31,67.465,66.479,91.924,32.204,136.916c-23.531,30.888-102.927,57.161-140.846,58.056
			c-57.122,1.348-81.102-35.033-111.24-73.207c-34.107-43.202-78.988-45.414-118.605-77.803
			c-28.909-23.635-40.065-86.562-1.325-113.504C125.688,57.552,136.419,118.39,181.498,116.605z"/>
		<path style="opacity:0.9;fill:#FFFFFF;" d="M181.498,116.605c105.793-4.19,214.309-89.084,236.536,43.5
			c11.31,67.465,66.479,91.924,32.204,136.916c-23.531,30.888-102.927,57.161-140.846,58.056
			c-57.122,1.348-81.102-35.033-111.24-73.207c-34.107-43.202-78.988-45.414-118.605-77.803
			c-28.909-23.635-40.065-86.562-1.325-113.504C125.688,57.552,136.419,118.39,181.498,116.605z"/>
	</g>
</g>
<!--<g id="Shadow_1_">-->
<!--	<ellipse id="_x3C_Path_x3E__98_" style="fill:#F5F5F5;" cx="250" cy="416.238" rx="193.889" ry="11.323"/>-->
<!--</g>-->
<g id="Pet_1">
	<g>
		<g>
			<path style="fill:#263238;" d="M130.463,209.16c2.309-50.994,25.281-77.243,47.417-79.304
				c18.047-1.68,38.718,2.555,52.869,15.939c14.588,13.798,22.741-18.57,4.956-19.58c16.846-5.153,19.894,9.993,19.986,15.653
				c0.094,5.752-0.714,22.905-24.069,19.778c-24.97-3.343-30.456,14.806-19.828,34.025
				C191.955,221.656,130.463,209.16,130.463,209.16z"/>
			<g>
				<path style="fill:#407BFF;" d="M127.255,203.515c-6.443-18.501,2.01-28.871,16.236-31.791
					c14.227-2.92,60.741-2.382,74.533,9.304c13.792,11.687-7.805,29.891-7.805,29.891L127.255,203.515z"/>
				<path style="opacity:0.5;fill:#FFFFFF;" d="M127.255,203.515c-6.443-18.501,2.01-28.871,16.236-31.791
					c14.227-2.92,60.741-2.382,74.533,9.304c13.792,11.687-7.805,29.891-7.805,29.891L127.255,203.515z"/>
			</g>
			
				<ellipse transform="matrix(0.1008 -0.9949 0.9949 0.1008 -68.2567 375.0075)" style="fill:#263238;" cx="173.333" cy="225.265" rx="47.344" ry="95.575"/>
		</g>
		<path style="fill:#407BFF;" d="M210.18,250.689c6.639,42.157,45.42,101.242,12.447,115.184
			c-32.973,13.942-79.499-0.721-76.18-33.415c3.319-32.695,2.877-56.993-2.656-69.104
			C138.259,251.242,210.18,250.689,210.18,250.689z"/>
		<g>
			<path style="fill:#407BFF;" d="M163.553,204.739c-11.018,2.23-40.301,26.625-31.054,57.763
				c4.845,16.317,29.042,20.604,47.53,16.502c18.488-4.102,38.601-18.219,36.092-35.054
				C211.332,211.823,174.48,202.1,163.553,204.739z"/>
			<path style="fill:#FFFFFF;" d="M181.036,244.972c-7.124-1.915-8.887-17.074-11.528-27.112c-0.969-3.681-6.483-2.458-5.804,1.288
				c1.851,10.213,6.665,24.696,1.019,29.444c-8.322,6.998-25.005,4.367-22.247,16.312c2.758,11.946,19.646,16.731,37.268,12.822
				c17.622-3.909,30.902-15.388,28.35-27.379C205.542,238.355,191.537,247.794,181.036,244.972z"/>
			<path style="fill:#407BFF;" d="M150.045,214.423c-4.102,4.395-42.387,2.888-51.902,10.655
				c-9.515,7.768,11.658,33.922,45.831,19.532C155.453,228.302,150.045,214.423,150.045,214.423z"/>
			<path style="opacity:0.3;fill:#FFFFFF;" d="M145.523,225.461c-0.887-5.38-37.726-5.445-46.089,3.109
				c-7.572,7.744,11.911,18.821,19.666,19.158c12.286,0.533,14.266-1.937,19.561-4.797
				C143.957,240.07,146.35,230.475,145.523,225.461z"/>
			<path style="fill:#263238;" d="M164.18,239.647c0.47,2.119-0.866,4.217-2.985,4.687c-2.119,0.47-4.217-0.866-4.687-2.985
				c-0.47-2.119,0.867-4.217,2.985-4.687C161.611,236.192,163.71,237.529,164.18,239.647z"/>
			<path style="fill:#407BFF;" d="M170.874,206.198c8.001-0.022,26.799-32.495,38.603-35.892
				c14.482-4.168,22.455,34.002-12.842,50.69C177.411,215.69,170.874,206.198,170.874,206.198z"/>
			<path style="opacity:0.3;fill:#FFFFFF;" d="M180.178,214.113c-3.968-3.739,19.71-38.623,31.475-40.787
				c10.652-1.959,8.967,20.389,4.918,27.011c-6.416,10.492-12.739,15.037-18.068,17.834
				C193.174,220.968,183.876,217.597,180.178,214.113z"/>
			<path style="fill:#263238;" d="M178.209,236.422c0.47,2.119,2.568,3.455,4.687,2.985c2.119-0.47,3.455-2.568,2.985-4.687
				c-0.47-2.118-2.569-3.455-4.687-2.985C179.075,232.205,177.739,234.303,178.209,236.422z"/>
			<path style="fill:#263238;" d="M173.811,250.976c-5.241,1.163-11.924,3.933-9.453,6.605c2.471,2.672,8.519,4.55,11.768,3.829
				c3.249-0.721,7.936-4.981,9.045-8.446C186.28,249.497,179.051,249.813,173.811,250.976z"/>
			
				<rect x="176.056" y="261.362" transform="matrix(0.9763 -0.2166 0.2166 0.9763 -52.8434 44.4861)" style="fill:#263238;" width="1" height="3.982"/>
			<path style="fill:#263238;" d="M160.344,261.503c3.494,3.411,12.544,9.372,17.631,8.243c5.087-1.129,10.768-10.358,12.491-14.926
				C184.503,266.809,169.577,268.47,160.344,261.503z"/>
			<path style="fill:#407BFF;" d="M168.415,265.378c-0.823-0.193-1.622,0.353-1.767,1.187c-0.891,5.158-0.81,11.632,7.834,10.772
				c7.379-0.734,6.143-7.76,5.156-11.019c-0.231-0.761-1.023-1.193-1.788-0.974c-0.81,0.232-2.158,0.438-4.397,0.455
				C170.97,265.819,169.391,265.607,168.415,265.378z"/>
			<path style="opacity:0.3;fill:#263238;" d="M172.667,273.539c-0.521-1.232-0.395-5.981-0.03-7.835l0.982,0.193
				c-0.386,1.962-0.404,6.368-0.03,7.252L172.667,273.539z"/>
			<path style="fill:#263238;" d="M173.335,266.155c-4.642,0-10.182-1.419-13.116-4.082c-1.435,0.534-1.967,1.513-1.99,1.556
				l-0.889-0.458c0.032-0.061,0.794-1.512,2.856-2.146l0.284-0.087l0.212,0.208c3.465,3.383,11.405,4.724,16.186,3.663
				c4.783-1.061,11.409-5.634,13.119-10.165l0.104-0.277l0.295-0.041c2.135-0.298,3.441,0.694,3.496,0.737l-0.611,0.791
				c-0.039-0.03-0.944-0.692-2.462-0.569c-1.981,4.725-8.791,9.406-13.723,10.501C175.979,266.033,174.695,266.155,173.335,266.155z
				"/>
		</g>
		<g>
			<path style="fill:#263238;" d="M242.021,304.218H111.673c-3.481,0-6.33-2.849-6.33-6.33l0,0c0-3.481,2.848-6.33,6.33-6.33
				h130.348c3.482,0,6.33,2.848,6.33,6.33l0,0C248.351,301.37,245.503,304.218,242.021,304.218z"/>
			<path style="fill:#263238;" d="M218.867,414.997h-84.04c-1.549,0-2.817-1.268-2.817-2.817l0,0c0-1.549,1.268-2.817,2.817-2.817
				h84.04c1.549,0,2.817,1.268,2.817,2.817l0,0C221.684,413.73,220.416,414.997,218.867,414.997z"/>
			<path style="fill:#263238;" d="M257.261,352.606c0,15.192-4.215,29.401-11.543,41.521c-6.851,11.331-19.32,18.054-32.561,18.054
				h-72.605c-13.643,0-26.256-7.243-33.151-19.014c-6.975-11.907-10.971-25.768-10.971-40.56c0-20.234,7.469-38.707,19.812-52.844
				h121.206C249.792,313.899,257.261,332.372,257.261,352.606z"/>
			
				<ellipse transform="matrix(0.4612 -0.8873 0.8873 0.4612 -233.998 298.6712)" style="opacity:0.1;fill:#FFFFFF;" cx="128.917" cy="342.002" rx="27.966" ry="20.639"/>
			<path style="opacity:0.1;fill:#FFFFFF;" d="M149.237,378.039c-2.127,4.093-6.301,6.138-9.321,4.568
				c-3.021-1.57-3.745-6.161-1.618-10.254c2.127-4.093,6.3-6.138,9.321-4.569C150.64,369.355,151.364,373.946,149.237,378.039z"/>
		</g>
		<g>
			<path style="fill:#407BFF;" d="M147.388,277.125c-6.569,5.727-13.126,26.301-11.111,32.727c-5.88,8.72-3.636,12.952,4.334,12.691
				c7.971-0.261,13.589-9.001,12.573-13.11c-1.016-4.108,12.004-14.679,8.934-22.811
				C159.792,280.459,152.01,273.095,147.388,277.125z"/>
			<path style="fill:#263238;" d="M141.177,323.054c-0.104,0-0.208-0.032-0.297-0.098c-1.497-1.108-0.776-5.279,0.295-7.738
				c0.11-0.253,0.404-0.37,0.658-0.259c0.253,0.11,0.369,0.405,0.259,0.658c-1.186,2.723-1.353,5.99-0.617,6.535
				c0.222,0.164,0.269,0.478,0.105,0.699C141.481,322.984,141.331,323.054,141.177,323.054z"/>
			<path style="fill:#263238;" d="M135.477,322.281c-0.138,0-0.274-0.057-0.373-0.167c-1.185-1.33-0.111-5.517,1.565-7.884
				c0.16-0.225,0.471-0.279,0.697-0.119c0.225,0.16,0.279,0.472,0.119,0.697c-1.583,2.234-2.326,5.865-1.635,6.641
				c0.184,0.206,0.165,0.522-0.041,0.706C135.715,322.24,135.596,322.281,135.477,322.281z"/>
		</g>
		<g>
			<path style="fill:#407BFF;" d="M182.74,287.645c-4.042,7.721-0.409,23.72,3.802,28.976c-2.314,10.259,1.313,13.389,8.645,10.253
				c7.333-3.136,9.395-13.32,6.958-16.78c-2.438-3.46,2.485-21.902-3.063-25.454C193.533,281.089,185.584,282.212,182.74,287.645z"
				/>
			<path style="fill:#263238;" d="M195.719,327.179c-0.044,0-0.088-0.006-0.132-0.018c-1.797-0.49-2.639-4.638-2.533-7.318
				c0.011-0.276,0.273-0.484,0.519-0.48c0.276,0.011,0.491,0.243,0.48,0.519c-0.117,2.968,0.914,6.073,1.797,6.314
				c0.267,0.073,0.424,0.347,0.351,0.614C196.14,327.033,195.939,327.179,195.719,327.179z"/>
			<path style="fill:#263238;" d="M190.126,328.528c-0.076,0-0.154-0.017-0.227-0.055c-1.587-0.809-2.106-5.1-1.403-7.914
				c0.066-0.268,0.339-0.432,0.606-0.364c0.268,0.067,0.431,0.338,0.364,0.606c-0.664,2.656-0.038,6.309,0.887,6.781
				c0.246,0.125,0.344,0.427,0.218,0.672C190.483,328.428,190.308,328.528,190.126,328.528z"/>
		</g>
	</g>
</g>
<g id="Pet_2">
	<g>
		<path style="fill:#263238;" d="M389.312,412.042c6.425,0,12.362-3.431,15.53-9.021c12.767-22.535,10.542-60.467-22.082-70.916
			c-52.413-16.787-52.478-62.731-45.512-85.178c6.966-22.447-25.426-27.945-33.437,1.101c-8.011,29.046-4.18,145.374-1.393,156.435
			c-6.444-0.433-3.483,6.479-2.438,7.58h13.816c0,0-1.625-7.723-1.625-11.903c4.064,0.929,41.663,11.903,57.47,11.903
			C377.735,412.042,384.399,412.042,389.312,412.042z"/>
		<path style="fill:#263238;" d="M404.856,352.896c2.744,0.335,5.468,0.492,8.068,0.361c2.593-0.13,5.07-0.56,7.14-1.355
			c2.077-0.8,3.65-1.942,4.668-3.329c1.029-1.38,1.607-3.12,1.806-5.211c0.193-2.085-0.029-4.451-0.56-6.872
			c-0.528-2.425-1.337-4.906-2.342-7.37c-0.998-2.466-2.186-4.918-3.49-7.337c-0.66-1.208-1.336-2.412-2.052-3.604l-0.585-1.025
			c-0.204-0.369-0.415-0.729-0.612-1.108c-0.397-0.754-0.793-1.509-1.164-2.298c-1.497-3.121-2.789-6.575-3.473-10.442
			c-0.706-3.84-0.633-8.146,0.291-12.06c0.893-3.934,2.445-7.332,3.888-10.231c1.463-2.915,2.846-5.425,3.926-7.784
			c2.198-4.7,3.19-8.843,3.185-13.433c-0.003-4.559-1.039-9.453-2.679-14.392c-1.742-5.245,1.097-10.908,6.341-12.651
			c5.244-1.742,10.908,1.097,12.651,6.341c0.068,0.205,0.129,0.411,0.184,0.618l0.017,0.067c1.674,6.46,2.795,13.427,2.315,20.779
			c-0.248,3.658-0.914,7.373-2.021,10.9c-1.095,3.531-2.614,6.833-4.218,9.772c-1.603,2.949-3.27,5.549-4.624,7.872
			c-1.365,2.33-2.383,4.353-2.939,6.2c-0.568,1.847-0.748,3.601-0.54,5.637c0.203,2.02,0.816,4.259,1.744,6.56
			c0.222,0.575,0.482,1.154,0.738,1.735l0.864,1.821c0.697,1.424,1.359,2.877,2.002,4.341c1.273,2.939,2.436,5.959,3.406,9.105
			c0.973,3.142,1.757,6.414,2.199,9.858c0.434,3.438,0.533,7.085-0.167,10.889c-0.686,3.769-2.341,7.794-5.231,10.926
			c-2.857,3.159-6.618,5.124-10.19,6.124c-3.605,1.011-7.112,1.232-10.456,1.122c-3.349-0.122-6.56-0.6-9.677-1.253
			c-2.543-0.532-4.174-3.025-3.642-5.569c0.503-2.405,2.761-3.994,5.156-3.709L404.856,352.896z"/>
		<path style="fill:#263238;" d="M319.513,404.462c-0.578-2.292-1.2-9.106-1.752-18.727l11.505,14.404
			c0,4.18,1.625,11.903,1.625,11.903h-13.816C316.03,410.941,313.07,404.029,319.513,404.462z"/>
		<path style="fill:#263238;" d="M371.12,412.042c-9.952,0-25.279,0-33.639,0c-5.374,0-2.886-4.443,2.09-6.272
			C344.547,403.941,371.12,412.042,371.12,412.042z"/>
		<g>
			<g>
				<g>
					<path style="fill:#407BFF;" d="M379.308,165.443c6.964-0.987,17.974,0.716,21.457,2.867
						c3.484,2.151-8.257,13.143-13.268,14.233C382.075,172.602,379.308,165.443,379.308,165.443z"/>
					<path style="opacity:0.7;fill:#FFFFFF;" d="M379.308,165.443c6.964-0.987,17.974,0.716,21.457,2.867
						c3.484,2.151-8.257,13.143-13.268,14.233C382.075,172.602,379.308,165.443,379.308,165.443z"/>
				</g>
				<g>
					<path style="fill:#407BFF;" d="M368.655,167.873c6.086-4.634,12.105-3.116,13.591-2.209c6.051,3.693,13.492,15.16,8.148,18.448
						c-5.344,3.289-11.118,6.329-11.118,6.329L368.655,167.873z"/>
					<path style="opacity:0.6;fill:#FFFFFF;" d="M368.655,167.873c6.086-4.634,12.105-3.116,13.591-2.209
						c6.051,3.693,13.492,15.16,8.148,18.448c-5.344,3.289-11.118,6.329-11.118,6.329L368.655,167.873z"/>
				</g>
				<g>
					<path style="fill:#407BFF;" d="M354.751,167.399c6.471-4.907,16.41-3.382,19.245-0.94c5.752,4.955,15.524,21.812,9.516,24.841
						c-6.009,3.029-12.635,3.193-12.635,3.193L354.751,167.399z"/>
					<path style="opacity:0.7;fill:#FFFFFF;" d="M354.751,167.399c6.471-4.907,16.41-3.382,19.245-0.94
						c5.752,4.955,15.524,21.812,9.516,24.841c-6.009,3.029-12.635,3.193-12.635,3.193L354.751,167.399z"/>
				</g>
			</g>
			<g>
				<g>
					<path style="fill:#407BFF;" d="M304.925,148.918c-4.924-5.023-14.695-10.375-18.768-10.789
						c-4.073-0.415-1.452,15.454,1.86,19.369C298.372,152.912,304.925,148.918,304.925,148.918z"/>
					<path style="opacity:0.6;fill:#FFFFFF;" d="M304.925,148.918c-4.924-5.023-14.695-10.375-18.768-10.789
						c-4.073-0.415-1.452,15.454,1.86,19.369C298.372,152.912,304.925,148.918,304.925,148.918z"/>
				</g>
				<g>
					<path style="fill:#407BFF;" d="M311.897,157.331c-2.006-7.382-7.706-9.842-9.437-10.027
						c-7.049-0.754-19.933,3.812-17.696,9.675c2.237,5.862,4.967,11.789,4.967,11.789L311.897,157.331z"/>
					<path style="opacity:0.7;fill:#FFFFFF;" d="M311.897,157.331c-2.006-7.382-7.706-9.842-9.437-10.027
						c-7.049-0.754-19.933,3.812-17.696,9.675c2.237,5.862,4.967,11.789,4.967,11.789L311.897,157.331z"/>
				</g>
				<g>
					<path style="fill:#407BFF;" d="M323.216,165.419c-2.146-7.832-10.96-12.674-14.695-12.462
						c-7.58,0.429-25.595,7.853-22.672,13.914c2.923,6.061,8.079,10.225,8.079,10.225L323.216,165.419z"/>
					<path style="opacity:0.6;fill:#FFFFFF;" d="M323.216,165.419c-2.146-7.832-10.96-12.674-14.695-12.462
						c-7.58,0.429-25.595,7.853-22.672,13.914c2.923,6.061,8.079,10.225,8.079,10.225L323.216,165.419z"/>
				</g>
			</g>
			<path style="fill:#263238;" d="M290.577,176.22c8.864-9.175,19.264-23.111,47.586-17.693
				c28.321,5.418,32.842,22.209,37.694,34.008c4.852,11.799,21.366,19.527,28.206,17.999c-19.355,28.151-49.076,44.306-83.082,37.8
				c-34.007-6.506-55.665-32.491-63.262-65.799C263.512,186.482,281.713,185.395,290.577,176.22z"/>
			<path style="fill:#263238;" d="M408.5,246.167c-0.177,0-0.348-0.094-0.439-0.26c-4.228-7.703-17.344-18.901-27.291-21.254
				c-0.268-0.064-0.435-0.333-0.371-0.602c0.063-0.269,0.33-0.435,0.602-0.372c10.186,2.409,23.612,13.866,27.938,21.746
				c0.133,0.242,0.044,0.546-0.198,0.679C408.664,246.147,408.582,246.167,408.5,246.167z"/>
			<path style="fill:#263238;" d="M403.444,256.119c-0.228,0-0.434-0.157-0.487-0.389c-1.954-8.567-11.496-22.933-20.416-27.923
				c-0.241-0.135-0.327-0.439-0.192-0.68c0.135-0.241,0.439-0.328,0.681-0.192c9.135,5.11,18.904,19.81,20.902,28.574
				c0.062,0.269-0.107,0.537-0.376,0.599C403.519,256.115,403.481,256.119,403.444,256.119z"/>
			<path style="fill:#263238;" d="M242.155,209.451c-0.154,0-0.306-0.071-0.404-0.204c-0.163-0.223-0.115-0.536,0.107-0.699
				c7.249-5.315,24.257-10.029,34.508-7.911c0.271,0.056,0.444,0.321,0.389,0.591c-0.056,0.271-0.323,0.443-0.591,0.389
				c-10.01-2.07-26.628,2.542-33.714,7.738C242.361,209.419,242.258,209.451,242.155,209.451z"/>
			<path style="fill:#263238;" d="M242.533,220.607c-0.107,0-0.215-0.034-0.306-0.105c-0.218-0.169-0.258-0.484-0.088-0.702
				c5.513-7.099,20.577-16.297,31.016-17.071c0.284-0.025,0.515,0.186,0.536,0.462c0.02,0.275-0.186,0.515-0.462,0.535
				c-10.193,0.756-24.911,9.747-30.3,16.687C242.83,220.541,242.682,220.607,242.533,220.607z"/>
			<g>
				<path style="fill:#407BFF;" d="M368.176,172.624c5.095,1.17,7.372,11.669,7.325,13.625s-75.151-16.779-76.256-20.701
					c4.183-7.603,12.015-8.719,15.3-8.096C317.83,158.076,345.385,167.391,368.176,172.624z"/>
				<path style="opacity:0.6;fill:#FFFFFF;" d="M368.176,172.624c5.095,1.17,7.372,11.669,7.325,13.625
					s-75.151-16.779-76.256-20.701c4.183-7.603,12.015-8.719,15.3-8.096C317.83,158.076,345.385,167.391,368.176,172.624z"/>
			</g>
			<path style="fill:#FFFFFF;" d="M344.656,201.437c-0.504,2.633,1.575,3.332,4.208,3.835c2.633,0.504,4.823,0.622,5.327-2.011
				c0.504-2.633-1.223-5.176-3.855-5.68C347.703,197.078,345.16,198.804,344.656,201.437z"/>
			<path style="fill:#FFFFFF;" d="M306.754,194.186c-0.504,2.633,1.575,3.332,4.208,3.835c2.633,0.504,4.823,0.622,5.327-2.011
				c0.504-2.633-1.222-5.176-3.855-5.68S307.258,191.553,306.754,194.186z"/>
			<g>
				<path style="fill:#407BFF;" d="M377.73,188.858c-2.532-4.903-79.313-16.702-83.934-18.786c-8.137,4.882-8.793,9.45-8.793,9.45
					s81.009,20.955,95.882,19.654C380.096,190.184,377.73,188.858,377.73,188.858z"/>
				<path style="opacity:0.7;fill:#FFFFFF;" d="M377.73,188.858c-2.532-4.903-79.313-16.702-83.934-18.786
					c-8.137,4.882-8.793,9.45-8.793,9.45s81.009,20.955,95.882,19.654C380.096,190.184,377.73,188.858,377.73,188.858z"/>
			</g>
			<g>
				<path style="fill:#407BFF;" d="M390.601,206.436c-1.321-3.363-6.82-8.551-9.873-8.786c-3.053-0.235-32.113,13.085-72.548,19.456
					c-29.686,4.677-31.174,8.38-31.174,8.38s1.167,4.568,9.753,8.176C292.254,234.604,368.297,218.485,390.601,206.436z"/>
				<path style="opacity:0.7;fill:#FFFFFF;" d="M390.601,206.436c-1.321-3.363-6.82-8.551-9.873-8.786
					c-3.053-0.235-32.113,13.085-72.548,19.456c-29.686,4.677-31.174,8.38-31.174,8.38s1.167,4.568,9.753,8.176
					C292.254,234.604,368.297,218.485,390.601,206.436z"/>
			</g>
			<g>
				<path style="fill:#407BFF;" d="M355.465,208.827c-18.014,2.884-87.522-2.884-88.653,0.174s5.17,12.339,9.345,13.902
					c6.725-0.349,35.543-2.913,35.543-2.913L355.465,208.827z"/>
				<path style="opacity:0.7;fill:#FFFFFF;" d="M355.465,208.827c-18.014,2.884-87.522-2.884-88.653,0.174s5.17,12.339,9.345,13.902
					c6.725-0.349,35.543-2.913,35.543-2.913L355.465,208.827z"/>
			</g>
			<g>
				<path style="fill:#407BFF;" d="M385.737,231.862c-17.914-0.917-79.147-21.417-105.263-50.342
					c-3.886-0.225-13.491,2.63-13.491,2.63s25.821,33.349,70.362,47.512c13.786,4.384,35.99,9.832,35.99,9.832
					S384.829,237.036,385.737,231.862z"/>
				<path style="opacity:0.6;fill:#FFFFFF;" d="M385.737,231.862c-17.914-0.917-79.147-21.417-105.263-50.342
					c-3.886-0.225-13.491,2.63-13.491,2.63s25.821,33.349,70.362,47.512c13.786,4.384,35.99,9.832,35.99,9.832
					S384.829,237.036,385.737,231.862z"/>
			</g>
			<g>
				<path style="fill:#407BFF;" d="M392.026,206.545c-5.184-1.428-83.769,31.121-98.056,32.207c1.717,4.148,18.09,8.7,18.09,8.7
					s34.783-5.787,88.738-37.48C397.506,207.377,392.026,206.545,392.026,206.545z"/>
				<path style="opacity:0.6;fill:#FFFFFF;" d="M392.026,206.545c-5.184-1.428-83.769,31.121-98.056,32.207
					c1.717,4.148,18.09,8.7,18.09,8.7s34.783-5.787,88.738-37.48C397.506,207.377,392.026,206.545,392.026,206.545z"/>
			</g>
		</g>
		<path style="fill:#407BFF;" d="M335.706,272.632c-2.631,13.907-38.095,46.236-36.563,67.135
			c-4.621-18.982-3.183-22.291-0.042-32.217c3.141-9.927,33.44-42.743,35.706-52.719
			C336.725,257.568,336.316,269.41,335.706,272.632z"/>
		<path style="opacity:0.6;fill:#FFFFFF;" d="M335.706,272.632c-2.631,13.907-38.095,46.236-36.563,67.135
			c-4.621-18.982-3.183-22.291-0.042-32.217c3.141-9.927,33.44-42.743,35.706-52.719
			C336.725,257.568,336.316,269.41,335.706,272.632z"/>
		<path style="fill:#407BFF;" d="M359.084,320.365c9.627,11.855,8.582,40.648,5.331,45.756c13.816,3.135,21.014-6.153,21.014-6.153
			s2.066-20.133-1.869-27.598C374.284,321.655,359.084,320.365,359.084,320.365z"/>
		<path style="opacity:0.7;fill:#FFFFFF;" d="M359.084,320.365c9.627,11.855,8.582,40.648,5.331,45.756
			c13.816,3.135,21.014-6.153,21.014-6.153s2.066-20.133-1.869-27.598C374.284,321.655,359.084,320.365,359.084,320.365z"/>
	</g>
</g>
</svg>
