<?xml version="1.0" encoding="utf-8"?>
<!-- Generator: Adobe Illustrator 27.5.0, SVG Export Plug-In . SVG Version: 6.00 Build 0)  -->
<svg version="1.1" xmlns="http://www.w3.org/2000/svg" xmlns:xlink="http://www.w3.org/1999/xlink" x="0px" y="0px"
	 viewBox="0 0 500 500" style="enable-background:new 0 0 500 500;" xml:space="preserve">
<!--<g id="Background_complete">-->
<!--	<g>-->
<!--		<g>-->
<!--			<g>-->
<!--				<g>-->
<!--					<g>-->
<!--						<path style="fill:#E0E0E0;" d="M443.92,330.198H263.174c-3.232,0-5.862-2.63-5.862-5.862V61.062-->
<!--							c0-3.232,2.63-5.862,5.862-5.862H443.92c3.232,0,5.862,2.629,5.862,5.862v263.273-->
<!--							C449.783,327.568,447.153,330.198,443.92,330.198z M263.174,55.45c-3.095,0-5.612,2.518-5.612,5.612v263.273-->
<!--							c0,3.095,2.518,5.612,5.612,5.612H443.92c3.095,0,5.612-2.518,5.612-5.612V61.062c0-3.094-2.518-5.612-5.612-5.612H263.174z"-->
<!--							/>-->
<!--					</g>-->
<!--				</g>-->
<!--				<g>-->
<!--					<g>-->
<!--						<path style="fill:#E0E0E0;" d="M235.493,330.198H54.746c-3.232,0-5.862-2.63-5.862-5.862V61.062-->
<!--							c0-3.232,2.629-5.862,5.862-5.862h180.747c3.232,0,5.862,2.629,5.862,5.862v263.273-->
<!--							C241.355,327.568,238.725,330.198,235.493,330.198z M54.746,55.45c-3.094,0-5.612,2.518-5.612,5.612v263.273-->
<!--							c0,3.095,2.518,5.612,5.612,5.612h180.747c3.095,0,5.612-2.518,5.612-5.612V61.062c0-3.094-2.518-5.612-5.612-5.612H54.746z"-->
<!--							/>-->
<!--					</g>-->
<!--				</g>-->
<!--			</g>-->
<!--			<g>-->
<!--				<g>-->
<!--					<rect x="0" y="391.267" style="fill:#E0E0E0;" width="500" height="0.25"/>-->
<!--				</g>-->
<!--			</g>-->
<!--		</g>-->
<!--		<rect x="51.672" y="405.531" style="fill:#E0E0E0;" width="16.06" height="0.25"/>-->
<!--		<rect x="170.352" y="402.821" style="fill:#E0E0E0;" width="53.53" height="0.25"/>-->
<!--		<rect x="68.732" y="414.821" style="fill:#E0E0E0;" width="36.25" height="0.25"/>-->
<!--		<rect x="378.352" y="402.691" style="fill:#E0E0E0;" width="43.19" height="0.25"/>-->
<!--		<rect x="430.452" y="402.691" style="fill:#E0E0E0;" width="6.33" height="0.25"/>-->
<!--		<rect x="316.212" y="408.921" style="fill:#E0E0E0;" width="53.89" height="0.25"/>-->
<!--	</g>-->
<!--	<g>-->
<!--		<g>-->
<!--			<path style="fill:#EBEBEB;" d="M135.942,235.945c-3.283-2.48-8.072-2.761-11.622-0.682c-4.712-9.522-17.843-13.724-27.208-8.708-->
<!--				c-2.443-10.261-12.553-18.147-23.099-18.021c-10.547,0.127-20.464,8.255-22.659,18.571c-0.349,1.64-0.58,3.436-1.752,4.633-->
<!--				c-1.905,1.946-5.085,1.293-7.8,1.081c-8.541-0.666-17.136,5.33-19.458,13.577l117.625-0.428-->
<!--				C140.997,241.986,139.224,238.425,135.942,235.945z"/>-->
<!--		</g>-->
<!--	</g>-->
<!--	<g>-->
<!--		<g>-->
<!--			<path style="fill:#EBEBEB;" d="M330.389,272.804c-3.312-2.502-8.144-2.786-11.727-0.688c-4.754-9.608-18.004-13.848-27.453-8.786-->
<!--				c-2.465-10.353-12.666-18.311-23.307-18.183c-10.642,0.128-20.648,8.329-22.863,18.739c-0.352,1.654-0.585,3.467-1.768,4.675-->
<!--				c-1.922,1.963-5.131,1.304-7.871,1.091c-8.618-0.672-17.29,5.378-19.634,13.699l118.685-0.432-->
<!--				C335.49,278.9,333.701,275.306,330.389,272.804z"/>-->
<!--		</g>-->
<!--	</g>-->
<!--	<g>-->
<!--		<g>-->
<!--			<path style="fill:#EBEBEB;" d="M146.344,388.61c-3.312-2.502-8.144-2.786-11.727-0.688c-4.755-9.608-18.004-13.848-27.453-8.786-->
<!--				c-2.465-10.353-12.666-18.311-23.308-18.183c-10.642,0.128-20.648,8.329-22.863,18.739c-0.352,1.654-0.585,3.467-1.768,4.675-->
<!--				c-1.922,1.963-5.131,1.304-7.871,1.091c-8.618-0.672-17.29,5.378-19.634,13.699l118.686-0.432-->
<!--				C151.445,394.706,149.656,391.112,146.344,388.61z"/>-->
<!--		</g>-->
<!--	</g>-->
<!--	<g>-->
<!--		<g>-->
<!--			<path style="fill:#EBEBEB;" d="M476.49,172.389c-3.312-2.502-8.144-2.786-11.727-0.688c-4.755-9.608-18.004-13.848-27.453-8.786-->
<!--				c-2.465-10.353-12.666-18.311-23.307-18.183c-10.642,0.128-20.648,8.329-22.863,18.739c-0.352,1.654-0.585,3.467-1.768,4.675-->
<!--				c-1.922,1.963-5.131,1.304-7.871,1.091c-8.618-0.672-17.29,5.378-19.634,13.699l118.686-0.432-->
<!--				C481.591,178.485,479.802,174.891,476.49,172.389z"/>-->
<!--		</g>-->
<!--	</g>-->
<!--	<g>-->
<!--		<g>-->
<!--			<path style="fill:#EBEBEB;" d="M458.019,59.728c-1.656-1.251-4.072-1.393-5.863-0.344c-2.377-4.804-9.002-6.924-13.727-4.393-->
<!--				c-1.232-5.177-6.333-9.155-11.654-9.092c-5.321,0.064-10.324,4.164-11.432,9.369c-0.176,0.827-0.293,1.733-0.884,2.338-->
<!--				c-0.961,0.982-2.566,0.652-3.935,0.545c-4.309-0.336-8.645,2.689-9.817,6.85l59.343-0.216-->
<!--				C460.57,62.776,459.675,60.979,458.019,59.728z"/>-->
<!--		</g>-->
<!--	</g>-->
<!--	<g>-->
<!--		<g>-->
<!--			<path style="fill:#EBEBEB;" d="M464.148,327.506c-1.656-1.251-4.072-1.393-5.863-0.344c-2.377-4.804-9.002-6.924-13.727-4.393-->
<!--				c-1.233-5.177-6.333-9.155-11.654-9.092c-5.321,0.064-10.324,4.165-11.432,9.369c-0.176,0.827-0.292,1.733-0.884,2.338-->
<!--				c-0.961,0.982-2.566,0.652-3.935,0.545c-4.309-0.336-8.645,2.689-9.817,6.849l59.343-0.216-->
<!--				C466.698,330.554,465.804,328.757,464.148,327.506z"/>-->
<!--		</g>-->
<!--	</g>-->
<!--	<g>-->
<!--		<g>-->
<!--			<path style="fill:#EBEBEB;" d="M97.557,82.163c-1.656-1.251-4.072-1.393-5.863-0.344c-2.377-4.804-9.002-6.924-13.727-4.393-->
<!--				c-1.233-5.176-6.333-9.155-11.654-9.092c-5.321,0.064-10.324,4.165-11.432,9.369c-0.176,0.827-0.293,1.733-0.884,2.338-->
<!--				c-0.961,0.982-2.566,0.652-3.935,0.545c-4.309-0.336-8.645,2.689-9.817,6.85l59.343-0.216-->
<!--				C100.107,85.211,99.213,83.414,97.557,82.163z"/>-->
<!--		</g>-->
<!--	</g>-->
<!--	<g>-->
<!--		<g>-->
<!--			<path style="fill:#EBEBEB;" d="M361.387,376.591c-2.426-1.833-5.966-2.041-8.59-0.504c-3.483-7.038-13.188-10.144-20.11-6.436-->
<!--				c-1.806-7.584-9.278-13.413-17.073-13.319c-7.796,0.094-15.125,6.101-16.748,13.727c-0.258,1.212-0.429,2.539-1.295,3.425-->
<!--				c-1.408,1.438-3.759,0.956-5.766,0.799c-6.313-0.492-12.665,3.94-14.382,10.035l86.94-0.316-->
<!--				C365.123,381.056,363.813,378.424,361.387,376.591z"/>-->
<!--		</g>-->
<!--	</g>-->
<!--	<g>-->
<!--		<g>-->
<!--			<path style="fill:#EBEBEB;" d="M245.291,446.208c-1.656-1.251-4.072-1.393-5.863-0.344c-2.377-4.804-9.002-6.924-13.727-4.393-->
<!--				c-1.232-5.177-6.333-9.155-11.654-9.092c-5.321,0.064-10.324,4.165-11.432,9.369c-0.176,0.827-0.292,1.733-0.884,2.338-->
<!--				c-0.961,0.982-2.566,0.652-3.935,0.545c-4.309-0.336-8.645,2.689-9.817,6.849l59.343-0.216-->
<!--				C247.842,449.256,246.947,447.459,245.291,446.208z"/>-->
<!--		</g>-->
<!--	</g>-->
<!--	<g>-->
<!--		<g>-->
<!--			<path style="fill:#EBEBEB;" d="M336.696,106.873c-3.312-2.502-8.144-2.786-11.727-0.688c-4.754-9.608-18.004-13.848-27.453-8.786-->
<!--				c-2.465-10.353-12.666-18.311-23.307-18.183c-10.642,0.128-20.648,8.329-22.863,18.739c-0.352,1.654-0.585,3.467-1.768,4.675-->
<!--				c-1.922,1.963-5.131,1.304-7.871,1.091c-8.618-0.672-17.29,5.378-19.634,13.699l118.686-0.432-->
<!--				C341.797,112.969,340.008,109.376,336.696,106.873z"/>-->
<!--		</g>-->
<!--	</g>-->
<!--</g>-->
<g id="Background_simple" style="display:none;">
	<g style="display:inline;">
		<path style="fill:#407BFF;" d="M166.036,53.698c-27.524,4.566-54.066,14.286-77.606,29.533
			c-27.744,17.97-56.092,45.966-47.72,82.583c15.458,67.602,89.612,68.833,74.806,114.287
			c-16.771,51.487-5.524,111.881,69.73,128.675c142.934,31.899,315.719-154.748,267.19-257.309
			C422.223,87.617,312.184,29.456,166.036,53.698z"/>
		<path style="opacity:0.9;fill:#FFFFFF;" d="M166.036,53.698c-27.524,4.566-54.066,14.286-77.606,29.533
			c-27.744,17.97-56.092,45.966-47.72,82.583c15.458,67.602,89.612,68.833,74.806,114.287
			c-16.771,51.487-5.524,111.881,69.73,128.675c142.934,31.899,315.719-154.748,267.19-257.309
			C422.223,87.617,312.184,29.456,166.036,53.698z"/>
	</g>
</g>
<!--<g id="Shadow">-->
<!--	<g>-->
<!--		<g>-->
<!--			<path style="fill:#F5F5F5;" d="M440.364,473.95c0,2.843-79.235,5.148-176.977,5.148s-176.977-2.305-176.977-5.148-->
<!--				c0-2.843,79.235-5.148,176.977-5.148S440.364,471.107,440.364,473.95z"/>-->
<!--		</g>-->
<!--	</g>-->
<!--</g>-->
<g id="Pet_2">
	<g>
		<g>
			<g>
				<g>
					<g>
						<path style="fill:#263238;" d="M295.811,228.288c6.648,13.142,15.567,24.986,25.531,35.786
							c5.031,5.453,10.332,10.653,15.785,15.682c5.64,5.201,11.531,10.191,16.49,16.074c5.433,6.447,9.72,14.238,10.211,22.801
							c0.055,0.96,1.555,0.966,1.5,0c-0.891-15.553-12.72-26.836-23.537-36.65c-11.226-10.184-22.032-20.895-31.195-33.009
							c-5.103-6.747-9.67-13.892-13.49-21.443C296.671,226.67,295.376,227.428,295.811,228.288L295.811,228.288z"/>
					</g>
				</g>
				<g>
					<g>
						<g>
							<path style="fill:#407BFF;" d="M300.832,162.295c-15.107-22.857-39.471-27.613-57.686-15.57
								c-18.215,12.043-23.375,36.32-8.329,59.179c14.472,21.873,43.617,36.499,62.039,27.122c-0.342,2.205,0.147,4.459,1.37,6.325
								l8.477-5.619c-1.234-1.858-3.12-3.188-5.284-3.727C317.344,216.711,315.304,184.168,300.832,162.295z"/>
							<path style="opacity:0.3;fill:#FFFFFF;" d="M300.832,162.295c-15.107-22.857-39.471-27.613-57.686-15.57
								c-18.215,12.043-23.375,36.32-8.329,59.179c14.472,21.873,43.617,36.499,62.039,27.122c-0.342,2.205,0.147,4.459,1.37,6.325
								l8.477-5.619c-1.234-1.858-3.12-3.188-5.284-3.727C317.344,216.711,315.304,184.168,300.832,162.295z"/>
							<path style="fill:#263238;" d="M296.944,233.868c-0.183,0.005-0.362-0.053-0.508-0.164c-0.38-0.269-0.47-0.795-0.201-1.176
								c0.001-0.001,0.002-0.002,0.002-0.003c0.269-0.37,2.712-3.745,5.356-3.368c0.466,0.067,0.792,0.494,0.734,0.961
								c-0.066,0.461-0.493,0.781-0.954,0.715c-0.002,0-0.005-0.001-0.007-0.001c-1.393-0.196-3.213,1.912-3.751,2.673
								C297.462,233.726,297.213,233.861,296.944,233.868z"/>
						</g>
					</g>
				</g>
			</g>
			<g>
				<g>
					<g>
						<path style="fill:#263238;" d="M357.969,333.88c4.142-7.732,4.53-16.775,3.686-25.335c-0.545-5.533-1.694-10.971-2.656-16.441
							c-0.753-4.281-1.451-8.576-2.373-12.825c-2.161-9.964-5.864-19.505-10.036-28.783c-4.866-10.824-10.371-21.445-13.804-32.846
							c-3.709-12.319-5.01-25.82-0.25-38.044c0.35-0.9-1.099-1.29-1.447-0.399c-8.579,22.029,1.75,45.138,11.004,65.073
							c4.624,9.962,9.133,20.033,11.953,30.681c1.056,3.988,1.835,8.038,2.553,12.099c0.916,5.179,1.93,10.348,2.772,15.539
							c1.628,10.045,2.265,21.26-2.698,30.524C356.218,333.973,357.512,334.732,357.969,333.88L357.969,333.88z"/>
					</g>
				</g>
				<g>
					<g>
						<path style="fill:#407BFF;" d="M394.689,118.358c7.491-33.46-9.374-59.553-36.042-65.518
							c-26.668-5.965-53.033,10.458-60.578,43.866c-7.155,32.034,4.961,71.005,29.407,79.47c-2.284,1.606-3.892,4.003-4.512,6.726
							l12.425,2.764c0.604-2.726,0.165-5.579-1.228-7.999C359.969,180.481,387.534,150.392,394.689,118.358z"/>
						<path style="fill:#263238;" d="M326.793,176.985c-0.163-0.161-0.266-0.373-0.292-0.6c-0.088-0.576,0.309-1.115,0.885-1.202
							c0.002,0,0.003-0.001,0.005-0.001c0.568-0.079,5.73-0.806,7.686,1.904c0.344,0.478,0.242,1.143-0.229,1.496
							c-0.473,0.341-1.133,0.234-1.473-0.24c-0.002-0.002-0.003-0.005-0.005-0.007c-1.032-1.426-4.513-1.236-5.666-1.061
							C327.371,177.329,327.033,177.221,326.793,176.985z"/>
					</g>
				</g>
				<g style="opacity:0.3;">
					<path style="fill:#FFFFFF;" d="M361.136,63.088c-0.362-0.518-0.922-0.859-1.474-1.167c-6.543-3.651-10.756-6.165-20.963-2.958
						c-9.577,4.528-18.097,11.272-24.703,19.552c-2.243,2.812-4.322,5.926-4.908,9.474c-0.586,3.549,0.679,7.616,3.809,9.387
						c2.444,1.382,5.469,1.141,8.214,0.55c7.718-1.661,14.695-5.697,21.37-9.913c8.43-5.324,17.319-12.077,19.007-21.904
						C361.665,65.084,361.732,63.942,361.136,63.088z"/>
				</g>
			</g>
			<g>
				<g>
					<g>
						<g>
							<path style="fill:#263238;" d="M385.658,238.161c0.054,5.386-1.091,10.64-2.33,15.852
								c-1.267,5.329-2.545,10.655-3.817,15.982c-2.571,10.762-5.142,21.524-7.712,32.286c-0.67,2.805-1.287,5.628-2.035,8.413
								c-0.691,2.577-1.61,5.117-3.381,7.16c-0.63,0.726,0.427,1.792,1.061,1.061c3.101-3.577,3.922-8.37,4.989-12.836
								c1.334-5.583,2.667-11.167,4.001-16.75c2.629-11.005,5.257-22.01,7.886-33.015c1.425-5.966,2.9-11.978,2.838-18.153
								C387.148,237.196,385.648,237.193,385.658,238.161L385.658,238.161z"/>
						</g>
					</g>
					<g>
						<g>
							<g>
								<path style="fill:#407BFF;" d="M435.209,208.961c5.869-26.762-7.697-47.552-29.027-52.226
									c-21.33-4.674-42.339,8.541-48.251,35.262c-5.605,25.621,4.212,56.718,23.774,63.397c-1.82,1.291-3.096,3.212-3.582,5.39
									l9.938,2.165c0.473-2.18,0.113-4.459-1.009-6.387C407.682,258.72,429.604,234.582,435.209,208.961z"/>
								<path style="fill:#263238;" d="M381.162,256.043c-0.131-0.128-0.214-0.297-0.236-0.479c-0.072-0.46,0.243-0.892,0.703-0.964
									c0.001,0,0.003,0,0.004-0.001c0.453-0.065,4.575-0.664,6.148,1.495c0.277,0.38,0.198,0.912-0.177,1.196
									c-0.377,0.274-0.904,0.19-1.178-0.186c-0.001-0.002-0.003-0.004-0.004-0.006c-0.83-1.135-3.611-0.972-4.531-0.828
									C381.625,256.316,381.354,256.231,381.162,256.043z"/>
							</g>
						</g>
						<path style="opacity:0.3;" d="M435.209,208.961c5.869-26.762-7.697-47.552-29.027-52.226
							c-21.33-4.674-42.339,8.541-48.251,35.262c-5.605,25.621,4.212,56.718,23.774,63.397c-1.82,1.291-3.096,3.212-3.582,5.39
							l9.938,2.165c0.473-2.18,0.113-4.459-1.009-6.387C407.682,258.72,429.604,234.582,435.209,208.961z"/>
					</g>
				</g>
				<g>
					<g>
						<path style="fill:#407BFF;" d="M426.596,163.255c4.033,3.168,7.281,7.197,9.444,11.853c2.363,5.086,3.393,10.677,4.236,16.183
							c0.146,0.951,1.591,0.547,1.446-0.399c-0.865-5.651-1.963-11.324-4.387-16.542c-2.209-4.755-5.56-8.921-9.679-12.157
							C426.906,161.604,425.837,162.659,426.596,163.255L426.596,163.255z"/>
					</g>
				</g>
			</g>
		</g>
		<path style="fill:#FFFFFF;" d="M332.574,287.548c0,0.609-0.275,1.102-0.614,1.102c-0.339,0-0.615-0.493-0.615-1.102
			c0-0.609,0.275-1.102,0.615-1.102C332.299,286.446,332.574,286.939,332.574,287.548z"/>
		<path style="fill:#FFFFFF;" d="M312.153,286.551c0,0.609-0.275,1.102-0.615,1.102c-0.339,0-0.614-0.493-0.614-1.102
			c0-0.609,0.275-1.102,0.614-1.102C311.878,285.449,312.153,285.942,312.153,286.551z"/>
		<g>
			<g>
				<g>
					<path style="fill:#263238;" d="M358.715,384.551c-0.104-6.079-1.386-12.396-5.191-17.139l-19.111,8.751
						c-3.279,3.432-5.872,7.717-6.421,12.432c-0.549,4.715,1.248,9.855,5.185,12.508c-1.857,1.805-3.419,10.472-4.158,12.953
						c-0.738,2.481-0.581,5.293,0.769,7.501c0.751,1.229,2.02,2.304,3.458,2.225c1.655-0.091,2.818-1.597,3.817-2.919
						c5.238-6.931,12.202-18.867,17.733-25.568c1.414-1.714,2.757-3.555,3.398-5.682
						C358.687,387.983,358.744,386.254,358.715,384.551z"/>
				</g>
				<g style="opacity:0.2;enable-background:new    ;">
					<path style="fill:#FFFFFF;" d="M358.719,384.556c-0.102-6.079-1.382-12.397-5.185-17.141l-19.114,8.745
						c-3.28,3.431-5.874,7.715-6.424,12.43c-0.55,4.715,1.245,9.856,5.181,12.509c-1.857,1.804-3.423,10.471-4.162,12.952
						s-0.583,5.293,0.767,7.502c0.751,1.229,2.019,2.305,3.457,2.226c1.655-0.091,2.818-1.596,3.818-2.918
						c5.24-6.929,12.209-18.863,17.741-25.562c1.415-1.713,2.758-3.554,3.4-5.681C358.69,387.988,358.747,386.259,358.719,384.556z"
						/>
				</g>
				<g style="opacity:0.2;enable-background:new    ;">
					<path d="M358.719,384.556c-0.102-6.079-1.382-12.397-5.185-17.141l-19.114,8.745c-3.28,3.431-5.874,7.715-6.424,12.43
						c-0.55,4.715,1.245,9.856,5.181,12.509c-1.857,1.804-3.423,10.471-4.162,12.952s-0.583,5.293,0.767,7.502
						c0.751,1.229,2.019,2.305,3.457,2.226c1.655-0.091,2.818-1.596,3.818-2.918c5.24-6.929,12.209-18.863,17.741-25.562
						c1.415-1.713,2.758-3.554,3.4-5.681C358.69,387.988,358.747,386.259,358.719,384.556z"/>
				</g>
			</g>
			<g>
				<path style="fill:#263238;" d="M401.861,414.44c-2.495-4.811-5.543-9.331-7.83-14.246c-3.507-7.538-5.146-15.937-4.729-24.24
					l-10.568,9.213c0.72,5.191,2.41,10.246,4.957,14.826c4.842,8.707,12.869,16.064,14.395,25.909
					c0.487,3.141,0.255,6.39-0.673,9.43c-1.639,5.373-5.754,10.178-11.175,11.652c-5.421,1.474-11.937-1.064-14.12-6.24
					c-0.79-1.872-1.044-4.019-2.314-5.605c-1.211-1.511-3.316-2.266-5.199-1.811c-1.883,0.455-3.427,2.123-3.679,4.043
					c-0.114,0.869,0.018,1.75,0.188,2.609c0.512,2.572,1.408,5.119,3.03,7.179c2.935,3.729,7.846,5.366,12.573,5.789
					c6.958,0.622,14.202-1.075,19.825-5.219c5.623-4.144,9.46-10.813,9.641-17.796C406.323,424.515,404.356,419.251,401.861,414.44z
					"/>
			</g>
			<g style="opacity:0.2;enable-background:new    ;">
				<path style="fill:#FFFFFF;" d="M401.861,414.44c-2.495-4.811-5.543-9.331-7.83-14.246c-3.507-7.538-5.146-15.937-4.729-24.24
					l-10.568,9.213c0.72,5.191,2.41,10.246,4.957,14.826c4.842,8.707,12.869,16.064,14.395,25.909
					c0.487,3.141,0.255,6.39-0.673,9.43c-1.639,5.373-5.754,10.178-11.175,11.652c-5.421,1.474-11.937-1.064-14.12-6.24
					c-0.79-1.872-1.044-4.019-2.314-5.605c-1.211-1.511-3.316-2.266-5.199-1.811c-1.883,0.455-3.427,2.123-3.679,4.043
					c-0.114,0.869,0.018,1.75,0.188,2.609c0.512,2.572,1.408,5.119,3.03,7.179c2.935,3.729,7.846,5.366,12.573,5.789
					c6.958,0.622,14.202-1.075,19.825-5.219c5.623-4.144,9.46-10.813,9.641-17.796C406.323,424.515,404.356,419.251,401.861,414.44z
					"/>
			</g>
			<path style="fill:#263238;" d="M367.141,301.936c-0.147-0.336,36.79,77.353,10.847,88.472
				c-25.911,11.106-49.012,9.471-49.704-28.422c-0.473-25.873-9.877-31.956-12.385-52.316c-0.961-7.804,18.835-26.946,33.841-27.311
				C354.741,282.237,367.141,301.936,367.141,301.936z"/>
			<path style="opacity:0.2;fill:#FFFFFF;enable-background:new    ;" d="M367.141,301.936c-0.147-0.336,36.79,77.353,10.847,88.472
				c-25.911,11.106-49.012,9.471-49.704-28.422c-0.473-25.873-9.877-31.956-12.385-52.316c-0.961-7.804,18.835-26.946,33.841-27.311
				C354.741,282.237,367.141,301.936,367.141,301.936z"/>
			<path style="opacity:0.2;enable-background:new    ;" d="M316.759,315.071c0.218,0.932,11.84,5.115,20.617,4.096
				c8.823-1.024,19.297-9.979,21.346-19.841s-4.922-12.668-4.922-12.668L316.759,315.071z"/>
			<path style="opacity:0.2;fill:#FFFFFF;enable-background:new    ;" d="M331.293,335.21c0,0-1.264-8.059,2.015-11.557
				c3.279-3.497,10.546-3.168,11.705,1.093c1.159,4.261,4.074,11.667,4.074,11.667s11.792,16.531,10.903,27.46
				c-0.889,10.93-7.922,19.782-13.422,19.454c-5.5-0.328-13.725-4.481-15.514-14.208c-1.79-9.727-0.806-25.794-0.697-26.122
				C330.466,342.671,331.293,335.21,331.293,335.21z"/>
			<path style="fill:#407BFF;" d="M324.399,333.091c0,0,37.069,10.07,46.078-23.677l6.998,18.119c0,0-3.24,15.2-21.583,19.592
				c-27.428,6.568-29.056,0.262-29.056,0.262L324.399,333.091z"/>
			<path style="fill:#263238;" d="M318.156,320.146c-3.074,6.834-8.225,30.089-12.014,36.871c-4.631,6.867-2.867,10.199,3.41,9.994
				c6.277-0.205,10.703-7.088,9.907-10.325c-0.796-3.237,12.657-23.315,10.239-29.718
				C327.863,322.117,321.787,316.972,318.156,320.146z"/>
			<path style="opacity:0.2;fill:#FFFFFF;enable-background:new    ;" d="M318.156,320.146c-3.074,6.834-8.225,30.089-12.014,36.871
				c-4.631,6.867-2.867,10.199,3.41,9.994c6.277-0.205,10.703-7.088,9.907-10.325c-0.796-3.237,12.657-23.315,10.239-29.718
				C327.863,322.117,321.787,316.972,318.156,320.146z"/>
			<path d="M310.001,367.412c-0.084,0.001-0.166-0.024-0.236-0.071c-1.181-0.874-0.614-4.158,0.236-6.096
				c0.065-0.207,0.286-0.323,0.494-0.257c0.207,0.065,0.323,0.286,0.257,0.494c-0.009,0.027-0.02,0.054-0.035,0.079
				c-0.929,2.142-1.063,4.725-0.48,5.143c0.174,0.13,0.209,0.377,0.079,0.551C310.241,367.354,310.124,367.412,310.001,367.412z"/>
			<path d="M305.512,366.806c-0.114-0.001-0.223-0.049-0.299-0.134c-0.929-1.047-0.087-4.339,1.236-6.206
				c0.126-0.178,0.373-0.221,0.551-0.094c0.178,0.126,0.221,0.373,0.095,0.551c-1.252,1.756-1.835,4.615-1.292,5.229
				c0.152,0.149,0.155,0.393,0.006,0.546c-0.002,0.002-0.004,0.004-0.006,0.006C305.725,366.777,305.619,366.815,305.512,366.806z"
				/>
			<path style="opacity:0.2;enable-background:new    ;" d="M349.68,321.355c-1.28,7.384-6.078,27.987-8.064,35.497
				c-2.78,7.802,5.341,13.793,11.37,12.036c6.029-1.757,8.607-9.524,7.032-12.462c-1.574-2.938,3.123-26.812-0.809-32.413
				C356.226,319.769,352.408,317.379,349.68,321.355z"/>
			<path style="fill:#263238;" d="M346.914,318.275c-1.28,7.384-0.493,31.189-2.48,38.699c-2.78,7.802-0.243,10.591,5.786,8.834
				c6.029-1.757,8.607-9.524,7.032-12.462c-1.574-2.938,6.469-25.728,2.536-31.33C356.806,317.772,349.642,314.298,346.914,318.275z
				"/>
			<path style="opacity:0.2;fill:#FFFFFF;enable-background:new    ;" d="M346.914,318.275c-1.28,7.384-0.493,31.189-2.48,38.699
				c-2.78,7.802-0.243,10.591,5.786,8.834c6.029-1.757,8.607-9.524,7.032-12.462c-1.574-2.938,6.469-25.728,2.536-31.33
				C356.806,317.772,349.642,314.298,346.914,318.275z"/>
			<path d="M350.754,366.085c-0.081,0.022-0.167,0.018-0.247-0.01c-1.361-0.553-1.628-3.875-1.285-5.963
				c0.012-0.217,0.197-0.384,0.414-0.372c0.217,0.012,0.384,0.197,0.372,0.414c-0.002,0.029-0.006,0.057-0.014,0.085
				c-0.368,2.306,0.144,4.841,0.812,5.101c0.201,0.083,0.296,0.314,0.213,0.514C350.973,365.969,350.874,366.055,350.754,366.085z"
				/>
			<path d="M346.255,366.613c-0.111,0.027-0.228,0.007-0.323-0.055c-1.16-0.784-1.162-4.182-0.344-6.318
				c0.078-0.204,0.307-0.306,0.511-0.228c0.204,0.078,0.306,0.306,0.228,0.51c-0.777,2.012-0.631,4.926,0.048,5.386
				c0.184,0.107,0.248,0.343,0.141,0.527c-0.001,0.002-0.003,0.004-0.004,0.007C346.455,366.533,346.361,366.595,346.255,366.613z"
				/>
			<g style="opacity:0.2;enable-background:new    ;">
				<path d="M389.279,390.354c0.492-1.631,0.549-3.36,0.52-5.063c-0.104-6.079-1.386-12.396-5.191-17.139l-19.111,8.751
					c-3.279,3.433-5.872,7.717-6.421,12.432c0,0-0.983,6.751-0.794,6.729C358.472,396.043,389.279,390.354,389.279,390.354z"/>
			</g>
			<g>
				<path style="fill:#263238;" d="M390.809,384.551c-0.104-6.079-1.386-12.396-5.191-17.139l-19.111,8.751
					c-3.279,3.432-5.872,7.717-6.421,12.432c-0.549,4.715,1.248,9.855,5.185,12.508c-1.857,1.805-3.419,10.472-4.158,12.953
					c-0.738,2.481-0.581,5.293,0.769,7.501c0.751,1.229,2.02,2.304,3.458,2.225c1.655-0.091,2.818-1.597,3.817-2.919
					c5.238-6.931,12.202-18.867,17.733-25.568c1.414-1.714,2.757-3.555,3.398-5.682
					C390.781,387.983,390.838,386.254,390.809,384.551z"/>
			</g>
			<g style="opacity:0.2;enable-background:new    ;">
				<path style="fill:#FFFFFF;" d="M390.809,384.551c-0.104-6.079-1.386-12.396-5.191-17.139l-19.111,8.751
					c-3.279,3.432-5.872,7.717-6.421,12.432c-0.549,4.715,1.248,9.855,5.185,12.508c-1.857,1.805-3.419,10.472-4.158,12.953
					c-0.738,2.481-0.581,5.293,0.769,7.501c0.751,1.229,2.02,2.304,3.458,2.225c1.655-0.091,2.818-1.597,3.817-2.919
					c5.238-6.931,12.202-18.867,17.733-25.568c1.414-1.714,2.757-3.555,3.398-5.682
					C390.781,387.983,390.838,386.254,390.809,384.551z"/>
			</g>
			<path style="fill:#263238;" d="M355.815,279.28c4.699-15.616-4.931-31.363-4.931-31.363c-7.187,3.161-13.385,8.207-17.938,14.603
				c-4.337-0.191-8.68-0.132-13.01,0.177c-2.396-4.022-8.948-13.192-19.409-14.309c0,0-4.337,19.204,1.65,29.013
				c-1.809,2.902-3.437,5.913-4.874,9.015c-3.037,6.798,2.072,15.438,5.794,20.131c3.722,4.693,13.754,10.123,23.223,10.252
				c13.825,0.177,28.116-11.088,30.746-16.936C358.418,296.779,358.991,287.736,355.815,279.28z"/>
			<path style="opacity:0.2;fill:#FFFFFF;enable-background:new    ;" d="M328.356,316.569c-0.684,0.064-1.369,0.128-2.053,0.192
				c-6.499-0.089-12.796-2.277-17.949-6.239c-1.752-2.604-2.428-5.785-1.887-8.877l0.386,1.058c-0.368-1.525,0.014-3.133,1.027-4.33
				l0.215,2.299c0,0,0.543-7.411,6.67-5.836l4.222,0.295c6.37-1.535,10.211,7.211,10.211,7.211l0.379-2.068c0,0,4.287,2.79,5.05,6.9
				l1.47-0.854C336.098,306.321,335.41,314.136,328.356,316.569z"/>
			<path style="opacity:0.2;fill:#FFFFFF;enable-background:new    ;" d="M355.815,279.28c4.699-15.616-4.931-31.363-4.931-31.363
				c-7.187,3.161-13.385,8.207-17.938,14.603c-4.337-0.191-8.68-0.132-13.01,0.177c-2.396-4.022-8.948-13.192-19.409-14.309
				c0,0-4.337,19.204,1.65,29.013c-1.809,2.902-3.437,5.913-4.874,9.015c-3.037,6.798,2.072,15.438,5.794,20.131
				c3.722,4.693,13.754,10.123,23.223,10.252c13.825,0.177,28.116-11.088,30.746-16.936
				C358.418,296.779,358.991,287.736,355.815,279.28z"/>
			<path style="fill:#263238;" d="M334.481,287.148c0.009,2.604-1.391,4.755-3.123,4.761c-1.732,0.006-3.167-2.1-3.178-4.718
				c-0.011-2.617,1.378-4.754,3.122-4.774C333.046,282.397,334.47,284.53,334.481,287.148z"/>
			<path style="fill:#263238;" d="M313.947,286.16c-0.378,2.641-2.08,4.494-3.808,4.265c-1.728-0.229-2.845-2.56-2.424-5.153
				c0.421-2.593,2.093-4.495,3.808-4.265C313.239,281.237,314.33,283.571,313.947,286.16z"/>
			<path style="fill:#263238;" d="M313.033,294.842c1.514-1.149,3.622-1.098,5.079,0.123c0.947,0.654-2.275,3.522-2.275,3.522
				S312.373,295.999,313.033,294.842z"/>
			<path style="fill:#263238;" d="M323.255,305.648c-2.841,0.266-6.867-1.128-7.507-2.124c-0.84-1.315-0.662-6.373-0.691-7.374
				c0.02-0.282,0.257-0.499,0.54-0.493c0.285,0.014,0.505,0.255,0.493,0.54c-0.094,2.197-0.053,5.971,0.452,6.771
				c0.505,0.799,5.438,2.422,7.738,1.385c0.337-0.162,1.373-0.637,0.83-2.683c-0.073-0.277,0.093-0.561,0.37-0.634c0,0,0,0,0.001,0
				c0.277-0.073,0.561,0.093,0.634,0.37c0,0,0,0,0,0.001c0.668,2.543-0.633,3.537-1.458,3.901
				C324.211,305.496,323.738,305.611,323.255,305.648z"/>
			<path style="fill:#263238;" d="M314.397,304.537c-1.069,0.064-2.132-0.206-3.042-0.77c-0.995-0.477-1.74-1.355-2.05-2.413
				c-0.132-0.636-0.006-1.299,0.348-1.843c0.182-0.216,0.504-0.246,0.723-0.068c0.209,0.186,0.239,0.502,0.068,0.723
				c-0.202,0.304-0.266,0.679-0.177,1.033c0.269,0.75,0.828,1.36,1.552,1.691c2.492,1.434,3.91,0.025,3.909,0.012
				c0.2-0.206,0.529-0.21,0.735-0.01c0.206,0.2,0.211,0.529,0.01,0.735l0,0C315.893,304.137,315.167,304.455,314.397,304.537z"/>
			<path style="opacity:0.4;enable-background:new    ;" d="M358.129,293.419c-2.217-1.968-7.662-5.17-20.42-6.75
				c0,0,14.117-0.463,20.43,4.769C358.151,292.127,358.149,292.792,358.129,293.419z"/>
			<path style="opacity:0.4;enable-background:new    ;" d="M318.859,284.448c0.03,0.323-0.588-13.506,4.328-21.939
				c0.917-0.086,1.831-0.067,2.728-0.086l0.233-0.022C322.037,269.083,319.541,276.633,318.859,284.448z"/>
			<path style="opacity:0.2;fill:#FFFFFF;enable-background:new    ;" d="M334.746,267.419c0,0,7.088-12.779,15.436-17.665
				c5.293,8.611,6.68,19.065,3.814,28.758c0,0-6.087-0.732-8.111-3.148c0,0,1.017-3.743,3.414-5.27
				c-1.62,0.642-3.057,1.672-4.187,2.998c0,0,0.371-6.053,2.46-9.063c0,0-4.252,3.694-5.008,8.285
				C342.491,272.36,336.188,270.853,334.746,267.419z"/>
			<path style="opacity:0.2;enable-background:new    ;" d="M332.945,262.52c-0.469,1.163-0.844,2.361-1.123,3.583
				c-1.044-1.009-1.775-2.297-2.106-3.711C330.907,262.451,332.004,262.478,332.945,262.52z"/>
			<path style="opacity:0.2;fill:#FFFFFF;enable-background:new    ;" d="M303.09,276.585c0,0,3.946-4.877,6.267-6.384
				c0,0-2.24-3.464-3.072-3.725c1.255,0.336,2.428,0.927,3.445,1.736c0,0-0.75-3.838-2.505-5.601
				c1.861,1.424,3.426,3.198,4.606,5.222l3.655-2.7c-2.982-6.555-8.071-11.925-14.456-15.255
				C301.031,249.878,297.104,267.063,303.09,276.585z"/>
			<path style="opacity:0.2;enable-background:new    ;" d="M297.325,286.387c1.429-3.093,3.049-6.095,4.851-8.987
				c-0.588-0.96-1.072-1.98-1.444-3.043c4.708-5.365,12.625-7.631,12.625-7.631C306.915,272.303,301.491,278.956,297.325,286.387z"
				/>
			<path style="opacity:0.4;enable-background:new    ;" d="M330.765,262.464c-0.819,1.097-1.546,2.258-2.176,3.474
				c-0.498,0.936-0.908,1.917-1.224,2.928c-0.312,0.98-0.453,2.114-0.891,3.145c-0.926,1.96-2.063,3.814-3.39,5.528
				c-1.335,1.65-2.309,3.56-2.862,5.609c0.466-2.083,1.366-4.045,2.639-5.758c1.246-1.75,2.297-3.631,3.135-5.609
				c0.3-1.026,0.546-2.066,0.737-3.117c0.283-1.066,0.661-2.104,1.129-3.102c0.518-1.088,1.102-2.143,1.749-3.16l0.129-0.012
				L330.765,262.464z"/>
			<path style="opacity:0.4;enable-background:new    ;" d="M317.209,276.148c0.273,1.964,0.359,3.949,0.256,5.929
				c-0.003-1.976-0.187-3.947-0.552-5.889c-0.164-0.986-0.257-1.983-0.279-2.983c0.047-1.017,0.275-2.018,0.674-2.955
				c0.348-0.922,0.643-1.863,0.882-2.818c0.32-0.938,0.718-1.847,1.191-2.717c0.355-0.659,0.718-1.37,1.122-1.929
				c0.387-0.036,0.775-0.073,1.175-0.11c-0.565,0.782-1.09,1.574-1.585,2.415c-0.495,0.829-0.915,1.701-1.254,2.606
				c-0.293,0.9-0.629,1.909-1.04,2.807c-0.437,0.859-0.704,1.796-0.784,2.757C317.024,274.227,317.088,275.191,317.209,276.148z"/>
			<path style="opacity:0.4;enable-background:new    ;" d="M356.339,301.142c-0.159,0.249-0.343,0.514-0.551,0.794
				c-2.841-0.938-5.558-2.215-8.094-3.801c-1.839-1.072-3.431-2.521-4.671-4.252c-1.174-1.75-3.125-2.821-5.232-2.871
				c2.154-0.03,4.19,0.983,5.465,2.719c1.278,1.635,2.892,2.976,4.733,3.934C350.621,299.155,353.425,300.323,356.339,301.142z"/>
			<path style="opacity:0.4;enable-background:new    ;" d="M304.802,283.459c-1.198,0.04-2.388,0.217-3.546,0.528
				c-1.148,0.309-2.257,0.749-3.303,1.313l-0.103,0.01c0.107-0.245,0.228-0.49,0.36-0.75c0.963-0.386,1.96-0.68,2.979-0.878
				C302.38,283.471,303.593,283.397,304.802,283.459z"/>
			<path style="opacity:0.4;enable-background:new    ;" d="M304.166,288.352c-1.311,0.479-2.475,1.293-3.374,2.361
				c-0.91,1.052-1.724,2.183-2.432,3.38c-0.399,0.611-0.77,1.232-1.13,1.839c-0.09-0.265-0.181-0.543-0.247-0.824l0.931-1.325
				c0.803-1.161,1.703-2.252,2.691-3.261C301.585,289.504,302.811,288.756,304.166,288.352z"/>
			<polygon style="opacity:0.2;enable-background:new    ;" points="383.691,399.992 390.289,389.614 386.302,404.203 			"/>
			<g style="opacity:0.4;enable-background:new    ;">
				<path d="M380.798,337.386c-0.976,2.079-1.952,4.158-2.928,6.238c-1.185,2.523-2.375,5.057-3.914,7.382
					c-2.349,3.549-5.451,6.525-8.525,9.468c3.704-0.279,6.613-3.159,9.163-5.86c3.263-3.457,6.629-7.086,8.013-11.634
					L380.798,337.386z"/>
			</g>
			<g style="opacity:0.4;enable-background:new    ;">
				<path d="M384.369,350.346c-0.617,1.315-1.234,2.629-1.852,3.944c-0.749,1.596-1.502,3.198-2.475,4.668
					c-1.485,2.244-3.446,4.125-5.39,5.987c2.342-0.176,4.181-1.997,5.794-3.705c2.063-2.186,4.192-4.481,5.067-7.356
					L384.369,350.346z"/>
			</g>
			<path style="opacity:0.4;enable-background:new    ;" d="M375.355,444.842c-1.401-1.069-2.54-2.448-3.237-4.098
				c-0.79-1.872-1.044-4.019-2.314-5.605c-1.211-1.511-3.316-2.266-5.199-1.811c-1.883,0.455-3.427,2.123-3.679,4.043
				c-0.114,0.869,0.018,1.75,0.189,2.609c0.512,2.571,1.408,5.119,3.03,7.179c1.054,1.339,2.366,2.405,3.829,3.245
				C369.977,448.863,373.031,446.585,375.355,444.842z"/>
		</g>
	</g>
</g>
<g id="Pet_1">
	<g>
		<g>
			<g>
				<g>
					<path style="fill:#263238;" d="M136.413,213.766c2.068,6.564,5.37,12.62,7.899,19.001c2.688,6.783,3.887,13.705,3.196,20.996
						c-0.702,7.4-2.941,14.57-5.293,21.585c-2.118,6.318-4.479,12.524-4.221,19.3c0.272,7.13,3.079,13.845,5.684,20.383
						c0.353,0.886,1.804,0.5,1.446-0.399c-2.368-5.945-4.98-12.065-5.538-18.509c-0.601-6.936,1.669-13.235,3.847-19.699
						c2.314-6.866,4.496-13.828,5.395-21.042c0.874-7.008,0.202-13.906-2.151-20.568c-2.578-7.299-6.488-14.053-8.818-21.448
						C137.57,212.449,136.122,212.841,136.413,213.766L136.413,213.766z"/>
				</g>
			</g>
			<g>
				<g>
					<g>
						<path style="fill:#407BFF;" d="M70.937,184.283c-15.146-22.831-10.012-47.119,8.187-59.187
							c18.198-12.068,42.564-7.34,57.735,15.436c14.487,21.863,16.575,54.405,0.75,67.704c2.163,0.546,4.048,1.876,5.288,3.731
							l-8.483,5.611c-1.229-1.862-1.717-4.116-1.368-6.32C114.588,220.729,85.424,206.146,70.937,184.283z"/>
						<path style="fill:#263238;" d="M138.348,208.646c0.076-0.167,0.092-0.354,0.047-0.531c-0.099-0.455-0.549-0.744-1.004-0.644
							c-0.001,0-0.003,0.001-0.004,0.001c-0.446,0.103-4.506,1.035-5.192,3.616c-0.12,0.455,0.146,0.922,0.598,1.051
							c0.45,0.119,0.912-0.149,1.031-0.6c0.001-0.002,0.001-0.005,0.002-0.007c0.363-1.359,3.015-2.211,3.925-2.41
							C138.014,209.068,138.236,208.891,138.348,208.646z"/>
					</g>
				</g>
				<path style="opacity:0.3;" d="M70.937,184.283c-15.146-22.831-10.012-47.119,8.187-59.187
					c18.198-12.068,42.564-7.34,57.735,15.436c14.487,21.863,16.575,54.405,0.75,67.704c2.163,0.546,4.048,1.876,5.288,3.731
					l-8.483,5.611c-1.229-1.862-1.717-4.116-1.368-6.32C114.588,220.729,85.424,206.146,70.937,184.283z"/>
			</g>
		</g>
		<g>
			<g>
				<g>
					<path style="fill:#263238;" d="M146.059,313.298c-3.37-6.893-3.031-14.96-1.813-22.341c0.736-4.46,1.842-8.86,2.778-13.282
						c0.708-3.348,1.41-6.701,2.315-10.003c2.324-8.48,6.019-16.494,9.966-24.324c4.275-8.48,8.842-16.909,11.7-26.004
						c3.079-9.802,4.204-20.538,0.777-30.404c-0.315-0.906-1.764-0.517-1.447,0.399c6.63,19.086-3.706,38.192-12.116,54.838
						c-3.935,7.789-7.66,15.753-10.066,24.165c-0.947,3.311-1.674,6.678-2.387,10.046c-0.937,4.423-2.029,8.827-2.814,13.28
						c-1.424,8.079-1.886,16.822,1.813,24.388C145.188,314.923,146.482,314.163,146.059,313.298L146.059,313.298z"/>
				</g>
			</g>
			<g>
				<g>
					<path style="fill:#407BFF;" d="M112.303,122.356c-4.081-34.045,15.327-58.305,42.461-61.552
						c27.134-3.247,51.709,15.75,55.849,49.748c3.89,32.592-12.092,70.143-37.266,76.102c2.111,1.828,3.469,4.375,3.811,7.146
						l-12.64,1.498c-0.326-2.773,0.398-5.567,2.028-7.834C140.586,187.663,116.193,154.949,112.303,122.356z"/>
					<path style="fill:#263238;" d="M173.945,187.528c0.178-0.144,0.303-0.344,0.352-0.568c0.145-0.565-0.195-1.14-0.759-1.285
						c-0.002,0-0.003-0.001-0.005-0.001c-0.557-0.136-5.619-1.38-7.839,1.12c-0.39,0.441-0.356,1.113,0.077,1.511
						c0.436,0.387,1.103,0.347,1.49-0.09c0.002-0.002,0.004-0.004,0.006-0.007c1.171-1.314,4.615-0.775,5.744-0.484
						C173.335,187.812,173.682,187.739,173.945,187.528z"/>
				</g>
				<g style="opacity:0.3;">
					<path style="fill:#FFFFFF;" d="M137.94,88.944c-2-8.312,4.348-18.215,16.099-22.273c4.982-1.25,12.273-0.106,17.043,1.799
						c4.77,1.905,6.356,3.069,10.428,6.201c4.128,3.175,8.901,8.092,11.595,12.55c3.12,5.164,4.218,11.592,2.622,17.41
						c-1.596,5.818-5.97,10.888-11.629,12.98c-5.658,2.093-12.465,0.996-16.952-3.036c-2.893-2.6-4.703-6.155-6.831-9.411
						c-2.128-3.257-4.858-6.435-8.593-7.521c-3.029-0.881-6.462-0.298-9.233-1.806C139.996,94.481,138.603,91.701,137.94,88.944z"/>
				</g>
			</g>
			<g>
				<g>
					<path style="fill:#407BFF;" d="M109.222,98.317c1.066-14.48,10.099-27.86,23.067-34.351c0.863-0.432,0.105-1.726-0.757-1.295
						c-13.456,6.735-22.707,20.656-23.81,35.646C107.651,99.28,109.152,99.276,109.222,98.317L109.222,98.317z"/>
				</g>
			</g>
			<g>
				<g>
					<path style="fill:#407BFF;" d="M136.686,61.846c0.726-0.197,1.451-0.393,2.177-0.59c0.379-0.102,0.648-0.538,0.524-0.922
						c-0.126-0.388-0.517-0.634-0.923-0.524c-0.726,0.197-1.451,0.393-2.177,0.59c-0.379,0.103-0.648,0.538-0.524,0.923
						C135.889,61.71,136.28,61.956,136.686,61.846L136.686,61.846z"/>
				</g>
			</g>
		</g>
		<g>
			<g>
				<path style="fill:#407BFF;" d="M160.243,366.414c-0.104-6.079-1.386-12.396-5.191-17.139l-19.111,8.751
					c-3.279,3.432-5.872,7.717-6.421,12.432c-0.549,4.715,1.248,9.855,5.185,12.508c-1.856,1.804-3.419,3.979-4.158,6.46
					c-0.738,2.481-0.581,5.293,0.769,7.501c0.751,1.229,2.02,2.304,3.458,2.225c1.655-0.091,2.818-1.597,3.817-2.919
					c5.238-6.931,12.202-12.374,17.733-19.074c1.415-1.714,2.757-3.555,3.399-5.682
					C160.215,369.846,160.272,368.117,160.243,366.414z"/>
			</g>
			<g style="opacity:0.3;">
				<path d="M160.243,366.414c-0.104-6.079-1.386-12.396-5.191-17.139l-19.111,8.751c-3.279,3.432-5.872,7.717-6.421,12.432
					c-0.549,4.715,1.248,9.855,5.185,12.508c-1.856,1.804-3.419,3.979-4.158,6.46c-0.738,2.481-0.581,5.293,0.769,7.501
					c0.751,1.229,2.02,2.304,3.458,2.225c1.655-0.091,2.818-1.597,3.817-2.919c5.238-6.931,12.202-12.374,17.733-19.074
					c1.415-1.714,2.757-3.555,3.399-5.682C160.215,369.846,160.272,368.117,160.243,366.414z"/>
			</g>
			<g>
				<path style="fill:#407BFF;" d="M195.248,360.245c1.857,7.025,8.08,12.35,15.023,14.494c6.942,2.144,14.486,1.475,21.507-0.395
					c-3.654,5.527-10.173,9.041-16.799,9.056c2.366,0.575,4.816,0.803,7.248,0.675c-2.91,2.809-7.121,3.832-11.159,4.066
					c-12.678,0.735-22.936-7.526-22.936-23.296"/>
			</g>
			<path style="fill:#407BFF;" d="M176.444,291.259c5.229,33.203,35.77,79.73,9.805,90.709s-55.942,0.95-56.634-36.943
				c-0.473-25.873-1.1-34.258-5.455-43.795C119.805,291.693,176.444,291.259,176.444,291.259z"/>
			<path style="fill:#263238;" d="M152.98,330.596c-0.916-0.507-2.121-11.247,9.194-15.892c11.315-4.645,17.157-10.82,17.157-10.82
				s-1.151-7.644-1.912-7.391c-0.761,0.253-49.921,12.338-50.886,12.761c-0.965,0.423,0.462,2.819,0.462,2.819
				s14.004,2.172,14.878,8.887s0,9.635,0,9.635H152.98z"/>
			<path style="fill:#407BFF;" d="M139.722,255.072c-8.663,1.756-31.738,20.964-24.453,45.488
				c3.812,12.853,22.839,16.231,37.432,12.994c14.593-3.237,30.399-14.341,28.422-27.603
				C177.35,260.648,148.329,252.993,139.722,255.072z"/>
			<path style="fill:#FFFFFF;" d="M153.464,286.778c-5.615-1.504-7.001-13.443-9.08-21.35c-0.442-1.228-1.796-1.864-3.023-1.422
				c-1.012,0.365-1.65,1.367-1.552,2.438c1.465,8.041,5.253,19.444,0.788,23.185c-6.552,5.513-19.688,3.441-17.515,12.845
				c2.174,9.403,15.467,13.176,29.352,10.104c13.884-3.072,24.335-12.12,22.319-21.563S161.765,288.975,153.464,286.778z"/>
			<path style="fill:#407BFF;" d="M129.09,262.695c-3.237,3.465-33.384,2.276-40.881,8.395c-7.497,6.119,9.183,26.713,36.117,15.381
				C133.342,273.626,129.09,262.695,129.09,262.695z"/>
			<path style="opacity:0.3;fill:#FFFFFF;enable-background:new    ;" d="M125.522,271.39c-0.693-4.237-29.706-4.284-36.298,2.449
				c-5.962,6.096,9.387,14.822,15.491,15.089c9.679,0.417,11.238-1.528,15.404-3.78C124.286,282.896,126.176,275.335,125.522,271.39
				z"/>
			<path style="fill:#263238;" d="M138.373,282.061c0.364,2.29-0.695,4.552-2.365,5.051c-1.67,0.499-3.319-0.953-3.683-3.243
				c-0.363-2.285,0.69-4.542,2.354-5.048c1.664-0.512,3.315,0.923,3.688,3.204C138.369,282.038,138.371,282.049,138.373,282.061z"/>
			<path style="fill:#407BFF;" d="M145.486,256.222c6.3,0,21.106-25.595,30.407-28.265c11.404-3.284,17.68,26.776-10.112,39.92
				C150.637,263.695,145.486,256.222,145.486,256.222z"/>
			<path style="opacity:0.3;fill:#FFFFFF;enable-background:new    ;" d="M152.818,262.451c-3.15-2.945,15.522-30.415,24.784-32.116
				c8.387-1.575,7.088,16.05,3.875,21.264c-5.056,8.261-10.033,11.813-14.231,14.042C163.048,267.87,155.732,265.2,152.818,262.451z
				"/>
			<path style="fill:#263238;" d="M151.571,279.872c0.898,2.097,2.842,3.08,4.343,2.197c1.501-0.884,1.99-3.299,1.093-5.396
				c-0.895-2.092-2.833-3.076-4.334-2.202c-1.504,0.876-2,3.289-1.107,5.389C151.567,279.864,151.569,279.868,151.571,279.872z"/>
			<path style="fill:#263238;" d="M147.802,291.504c-4.127,0.914-9.387,3.095-7.442,5.198c1.945,2.103,6.71,3.583,9.269,3.016
				c2.559-0.567,6.245-3.938,7.088-6.655C157.559,290.346,151.928,290.566,147.802,291.504z"/>
			
				<rect x="149.583" y="299.657" transform="matrix(0.9763 -0.2166 0.2166 0.9763 -61.6868 39.6377)" style="fill:#263238;" width="0.788" height="3.134"/>
			<path style="fill:#263238;" d="M137.712,302.134c3.189,2.153,11.038,5.515,14.817,3.929c3.779-1.586,6.898-9.535,7.6-13.319
				C157.179,302.871,145.848,306.244,137.712,302.134z"/>
			<path style="fill:#407BFF;" d="M143.345,303.219c-0.609-0.146-1.017-0.162-1.164,0.447c-0.007,0.03-0.013,0.061-0.018,0.092
				c-0.701,4.064-0.638,9.167,6.166,8.49c5.812-0.583,4.836-6.111,4.064-8.663c-0.176-0.604-0.803-0.955-1.41-0.788
				c-1.134,0.273-2.299,0.395-3.465,0.362C146.187,303.203,144.65,303.483,143.345,303.219z"/>
			<path style="opacity:0.3;fill:#263238;enable-background:new    ;" d="M146.904,309.255c-0.41-0.969-0.315-4.725,0-6.174
				l0.788,0.158c-0.307,1.575-0.323,5.009,0,5.71L146.904,309.255z"/>
			<path style="fill:#263238;" d="M148.168,303.653c-3.619,0.56-8.1,0.129-10.702-1.596c-0.611,0.312-1.095,0.826-1.369,1.455
				l-0.748-0.251c0.369-0.908,1.076-1.638,1.972-2.034l0.207-0.104l0.189,0.138c3.107,2.213,9.448,2.3,13.041,0.899
				c3.593-1.4,8.202-5.755,8.987-9.495l0.045-0.222l0.233-0.036c0.919-0.31,1.923-0.257,2.804,0.148l-0.38,0.688
				c-0.625-0.275-1.325-0.327-1.983-0.147c-0.987,3.922-5.708,8.382-9.414,9.824C150.119,303.268,149.152,303.513,148.168,303.653z"
				/>
			<path style="fill:#263238;" d="M134.098,325.503c0,0,36.745,13.917,45.754-19.83l4.678,13.419c0,0-3.24,15.2-21.583,19.592
				c-27.428,6.568-39.027-4.392-39.027-4.392L134.098,325.503z"/>
			<path style="opacity:0.3;" d="M129.643,346.1c0,0,4.501-2.23,4.72-5.318c0.219-3.088,0-4.769,0-4.769s5.162-11.43,4.431-12.785
				c-0.164-0.305-9.223,12.473-9.37,12.912C129.278,336.578,129.643,346.1,129.643,346.1z"/>
			<path style="fill:#407BFF;" d="M126.995,312.074c-5.174,4.513-10.34,20.72-8.749,25.776c-4.631,6.867-2.867,10.199,3.41,9.994
				c6.277-0.205,10.703-7.088,9.907-10.325c-0.795-3.237,9.45-11.561,7.033-17.964C136.76,314.704,130.626,308.9,126.995,312.074z"
				/>
			<path style="fill:#263238;" d="M122.104,348.246c-0.084,0.001-0.166-0.024-0.236-0.071c-1.181-0.874-0.614-4.158,0.236-6.095
				c0.065-0.207,0.286-0.323,0.494-0.257c0.207,0.065,0.323,0.286,0.257,0.494c-0.009,0.027-0.02,0.054-0.035,0.079
				c-0.929,2.142-1.063,4.725-0.48,5.143c0.174,0.13,0.209,0.377,0.079,0.551C122.345,348.187,122.228,348.246,122.104,348.246z"/>
			<path style="fill:#263238;" d="M117.615,347.639c-0.114-0.001-0.223-0.049-0.299-0.134c-0.929-1.047-0.087-4.339,1.236-6.206
				c0.126-0.178,0.373-0.221,0.551-0.094s0.221,0.373,0.094,0.551c-1.252,1.756-1.835,4.615-1.292,5.229
				c0.152,0.149,0.155,0.393,0.006,0.546c-0.002,0.002-0.004,0.004-0.006,0.005C117.829,347.611,117.723,347.648,117.615,347.639z"
				/>
			<path style="opacity:0.3;" d="M158.748,321.484c-3.15,6.088-1.097,16.606,2.218,20.756c-1.819,8.08,1.806,12.627,7.587,10.155
				s9.186-11.515,7.265-14.24c-1.922-2.725-3.132-16.056-7.503-18.852C163.944,316.507,160.985,317.208,158.748,321.484z"/>
			<path style="fill:#407BFF;" d="M159.872,318.665c-3.15,6.088-0.323,18.688,2.993,22.839c-1.819,8.08,1.032,10.545,6.812,8.072
				c5.781-2.473,7.395-10.49,5.473-13.215c-1.922-2.725,1.961-17.247-2.41-20.043C168.37,313.523,162.109,314.389,159.872,318.665z"
				/>
			<path style="fill:#263238;" d="M170.095,349.805h-0.102c-1.418-0.386-2.079-3.654-2-5.765c0.023-0.21,0.198-0.372,0.41-0.378
				c0.217,0.009,0.387,0.192,0.378,0.409c0,0,0,0,0,0.001c-0.087,2.363,0.725,4.788,1.418,4.977
				c0.206,0.053,0.331,0.263,0.279,0.469c-0.001,0.004-0.002,0.007-0.003,0.011C170.421,349.694,170.267,349.806,170.095,349.805z"
				/>
			<path style="fill:#263238;" d="M165.692,350.868c-0.063,0-0.126-0.016-0.181-0.047c-1.252-0.638-1.662-4.016-1.103-6.229
				c0.05-0.207,0.258-0.335,0.465-0.285c0.002,0.001,0.005,0.001,0.007,0.002c0.211,0.051,0.341,0.262,0.291,0.473
				c-0.528,2.095,0,4.969,0.693,5.34c0.196,0.095,0.278,0.33,0.183,0.526C165.982,350.782,165.844,350.869,165.692,350.868
				L165.692,350.868z"/>
			<g style="opacity:0.3;">
				<path d="M190.757,369.073c-0.09-5.246-1.196-10.697-4.479-14.789l-16.491,7.551c-2.829,2.962-5.066,6.659-5.54,10.727
					c-0.473,4.069,1.077,8.504,4.474,10.793c-0.926,0.9-1.766,1.906-2.435,3.008h9.333l11.757-8.019
					c1.221-1.479,2.379-3.067,2.933-4.903C190.732,372.034,190.782,370.542,190.757,369.073z"/>
			</g>
			<g>
				<path style="fill:#407BFF;" d="M196.697,366.414c-0.104-6.079-1.386-12.396-5.191-17.139l-19.111,8.751
					c-3.279,3.432-5.872,7.717-6.421,12.432c-0.549,4.715,1.248,9.855,5.185,12.508c-1.856,1.804-3.419,3.979-4.158,6.46
					c-0.738,2.481-0.581,5.293,0.769,7.501c0.751,1.229,2.02,2.304,3.458,2.225c1.655-0.091,2.818-1.597,3.817-2.919
					c5.238-6.931,12.202-12.374,17.733-19.074c1.414-1.714,2.757-3.555,3.398-5.682
					C196.669,369.846,196.726,368.117,196.697,366.414z"/>
			</g>
			<path style="opacity:0.3;" d="M191.595,378.597c0,0,3.823-3.572,4.971-14.911l2.546,3.812c0,0,1.688,8.481-4.983,14.466
				C193.064,380.987,192.253,379.842,191.595,378.597z"/>
			<path style="fill:#FFFFFF;" d="M156.271,276.441c0.193,0.577,0.088,1.133-0.234,1.24c-0.322,0.107-0.739-0.273-0.932-0.851
				c-0.193-0.577-0.088-1.133,0.234-1.24C155.661,275.483,156.078,275.864,156.271,276.441z"/>
			<path style="fill:#FFFFFF;" d="M137.11,281.711c0.146,0.591-0.003,1.136-0.333,1.217s-0.715-0.332-0.861-0.923
				c-0.146-0.591,0.003-1.136,0.333-1.217C136.579,280.706,136.964,281.12,137.11,281.711z"/>
		</g>
	</g>
</g>
</svg>
